<svg class="rh-pattern group-2b cloud-infrastructure" xmlns="http://www.w3.org/2000/svg" viewBox="0 0 60 60" height="60" width="60">
<path d="M 60,10 A 10,10 0 0 0 50,0 10,10 0 0 0 40,10 10,10 0 0 0 50,20 10,10 0 0 0 60,10 Z M 40,10 A 10,10 0 0 0 30,0 10,10 0 0 0 20,10 10,10 0 0 0 30,20 10,10 0 0 0 40,10 Z M 20,10 A 10,10 0 0 0 10,0 10,10 0 0 0 0,10 10,10 0 0 0 10,20 10,10 0 0 0 20,10 Z M 60,30 A 10,10 0 0 0 50,20 10,10 0 0 0 40,30 10,10 0 0 0 50,40 10,10 0 0 0 60,30 Z M 40,30 A 10,10 0 0 0 30,20 10,10 0 0 0 20,30 10,10 0 0 0 30,40 10,10 0 0 0 40,30 Z M 20,30 A 10,10 0 0 0 10,20 10,10 0 0 0 0,30 10,10 0 0 0 10,40 10,10 0 0 0 20,30 Z M 60,50 A 10,10 0 0 0 50,40 10,10 0 0 0 40,50 10,10 0 0 0 50,60 10,10 0 0 0 60,50 Z M 40,50 A 10,10 0 0 0 30,40 10,10 0 0 0 20,50 10,10 0 0 0 30,60 10,10 0 0 0 40,50 Z M 20,50 A 10,10 0 0 0 10,40 10,10 0 0 0 0,50 10,10 0 0 0 10,60 10,10 0 0 0 20,50 Z M 50,0 c 0,5.52 4.5,10 10,10 M 30,0 c 0,5.52 4.5,10 10,10 5.5,0 10,-4.48 10,-10 M 10,0 c 0,5.52 4.5,10 10,10 5.5,0 10,-4.48 10,-10 m 30,10 c -5.5,0 -10,4.5 -10,10 0,5.5 4.5,10 10,10 M 50,20 A 10,10 0 0 0 40,10 10,10 0 0 0 30,20 10,10 0 0 0 40,30 10,10 0 0 0 50,20 Z M 30,20 A 10,10 0 0 0 20,10 10,10 0 0 0 10,20 10,10 0 0 0 20,30 10,10 0 0 0 30,20 Z m 30,10 c -5.5,0 -10,4.5 -10,10 0,5.5 4.5,10 10,10 M 50,40 A 10,10 0 0 0 40,30 10,10 0 0 0 30,40 10,10 0 0 0 40,50 10,10 0 0 0 50,40 Z M 30,40 A 10,10 0 0 0 20,30 10,10 0 0 0 10,40 10,10 0 0 0 20,50 10,10 0 0 0 30,40 Z M 0,10 C 5.52,10 10,5.52 10,0 M 0,30 C 5.52,30 10,25.5 10,20 10,14.5 5.52,10 0,10 M 0,50 C 5.52,50 10,45.5 10,40 10,34.5 5.52,30 0,30 m 60,20 c -5.5,0 -10,4.5 -10,10 m 0,0 C 50,54.5 45.5,50 40,50 34.5,50 30,54.5 30,60 m 0,0 C 30,54.5 25.5,50 20,50 14.5,50 10,54.5 10,60 m 0,0 C 10,54.5 5.52,50 0,50"
 style="stroke:hsl(0, 0%, 69%);stroke-linecap:square" /></svg>
