<svg version="1.1" xmlns="http://www.w3.org/2000/svg" xmlns:xlink="http://www.w3.org/1999/xlink" x="0px" y="0px"
	 viewBox="0 0 60 60" enable-background="new 0 0 60 60" xml:space="preserve">
<path fill="none" stroke="#333E48" stroke-width="0.75" stroke-miterlimit="10" d="M3.5,56.5l8.1-8.1 M18.4,41.6l8.1-8.1 M33.5,26.5
	l8.1-8.1 M48.5,11.5l8.1-8.1 M11.6,11.7L3.4,3.5 M26.6,26.7l-8.2-8.2 M41.5,41.6l-8.1-8.1 M56.5,56.6l-8.1-8.1 M33.4,3.4l8.1,8.1
	 M56.7,26.7l-8.2-8.2 M56.7,33.3l-8.2,8.2 M41.5,48.5l-8.2,8.2 M18.4,48.4l8.4,8.4 M11.6,41.6l-8.3-8.3 M3.3,26.7l8.2-8.2 M26.6,3.4
	l-8.1,8.1 M30,35c2.8,0,5-2.2,5-5s-2.2-5-5-5s-5,2.2-5,5S27.2,35,30,35z M45,20c2.8,0,5-2.2,5-5s-2.2-5-5-5s-5,2.2-5,5
	S42.2,20,45,20z M45,50c2.8,0,5-2.2,5-5s-2.2-5-5-5s-5,2.2-5,5S42.2,50,45,50z M15,20c2.8,0,5-2.2,5-5s-2.2-5-5-5s-5,2.2-5,5
	S12.2,20,15,20z M15,50c2.8,0,5-2.2,5-5s-2.2-5-5-5s-5,2.2-5,5S12.2,50,15,50z M60,25c-2.8,0-5,2.2-5,5s2.2,5,5,5 M55,0
	c0,2.8,2.2,5,5,5 M5,60c0-2.8-2.2-5-5-5 M60,55c-2.8,0-5,2.2-5,5 M0,5c2.8,0,5-2.2,5-5 M0,35c2.8,0,5-2.2,5-5s-2.2-5-5-5 M25,0
	c0,2.8,2.2,5,5,5s5-2.2,5-5 M35,60c0-2.8-2.2-5-5-5s-5,2.2-5,5 M45,10 M35,15l-5-5l-5,5l5,5L35,15z M50,30l-5-5l-5,5l5,5L50,30z
	 M20,30l-5-5l-5,5l5,5L20,30z M5,15l-5-5l-5,5l5,5L5,15z M20,0l-5-5l-5,5l5,5L20,0z M50,0l-5-5l-5,5l5,5L50,0z M20,60l-5-5l-5,5l5,5
	L20,60z M50,60l-5-5l-5,5l5,5L50,60z M65,15l-5-5l-5,5l5,5L65,15z M65,45l-5-5l-5,5l5,5L65,45z M5,45l-5-5l-5,5l5,5L5,45z M35,45
	l-5-5l-5,5l5,5L35,45z"/>
</svg>
