<svg version="1.1" xmlns="http://www.w3.org/2000/svg" xmlns:xlink="http://www.w3.org/1999/xlink" viewBox="0 0 1200 1200" width="1200" height="1200">
  <g transform="translate(300 1200)">
    <g transform="rotate(-45)" viewBox="0 0 1200 70.7">
      <svg x="0" y="0" viewBox="0 0 60 60" width="70.7" height="70.7">
        <path d="M 45,0 30,15 15,0 M 60,22.5 52.5,30 60,37.5 M 60,45 45,30 60,15 M 60,7.5 37.5,30 60,52.5 M 45,60 30,45 15,60 M 60,60 0,0 M 22.5,0 30,7.5 37.5,0 M 7.5,0 30,22.5 52.5,0 M 0,15 15,30 0,45 M 22.5,60 30,52.5 37.5,60 M 7.5,60 30,37.5 52.5,60 M 0,37.5 7.5,30 0,22.5 M 0,52.5 22.5,30 0,7.5 M 0,60 60,0" style="fill:none;stroke:hsl(206, 68%, 59%);stroke-width:0.5;stroke-linecap:square" />
      </svg>

      <svg x="70.7" y="0" viewBox="0 0 60 60" width="70.7" height="70.7">
        <path d="M 45,0 30,15 15,0 M 60,22.5 52.5,30 60,37.5 M 60,45 45,30 60,15 M 60,7.5 37.5,30 60,52.5 M 45,60 30,45 15,60 M 60,60 0,0 M 22.5,0 30,7.5 37.5,0 M 7.5,0 30,22.5 52.5,0 M 0,15 15,30 0,45 M 22.5,60 30,52.5 37.5,60 M 7.5,60 30,37.5 52.5,60 M 0,37.5 7.5,30 0,22.5 M 0,52.5 22.5,30 0,7.5 M 0,60 60,0" style="fill:none;stroke:hsl(206, 68%, 59%);stroke-width:0.5;stroke-linecap:square" />
      </svg>

      <svg x="141.4" y="0" viewBox="0 0 60 60" width="70.7" height="70.7">
        <path d="M 45,0 30,15 15,0 M 60,22.5 52.5,30 60,37.5 M 60,45 45,30 60,15 M 60,7.5 37.5,30 60,52.5 M 45,60 30,45 15,60 M 60,60 0,0 M 22.5,0 30,7.5 37.5,0 M 7.5,0 30,22.5 52.5,0 M 0,15 15,30 0,45 M 22.5,60 30,52.5 37.5,60 M 7.5,60 30,37.5 52.5,60 M 0,37.5 7.5,30 0,22.5 M 0,52.5 22.5,30 0,7.5 M 0,60 60,0" style="fill:none;stroke:hsl(206, 68%, 59%);stroke-width:0.5;stroke-linecap:square" />
      </svg>

      <svg x="212.1" y="0" viewBox="0 0 60 60" width="70.7" height="70.7">
        <path d="M 45,0 30,15 15,0 M 60,22.5 52.5,30 60,37.5 M 60,45 45,30 60,15 M 60,7.5 37.5,30 60,52.5 M 45,60 30,45 15,60 M 60,60 0,0 M 22.5,0 30,7.5 37.5,0 M 7.5,0 30,22.5 52.5,0 M 0,15 15,30 0,45 M 22.5,60 30,52.5 37.5,60 M 7.5,60 30,37.5 52.5,60 M 0,37.5 7.5,30 0,22.5 M 0,52.5 22.5,30 0,7.5 M 0,60 60,0" style="fill:none;stroke:hsl(206, 68%, 59%);stroke-width:0.5;stroke-linecap:square" />
      </svg>

      <svg x="282.8" y="0" viewBox="0 0 60 60" width="70.7" height="70.7">
        <path d="M 45,0 30,15 15,0 M 60,22.5 52.5,30 60,37.5 M 60,45 45,30 60,15 M 60,7.5 37.5,30 60,52.5 M 45,60 30,45 15,60 M 60,60 0,0 M 22.5,0 30,7.5 37.5,0 M 7.5,0 30,22.5 52.5,0 M 0,15 15,30 0,45 M 22.5,60 30,52.5 37.5,60 M 7.5,60 30,37.5 52.5,60 M 0,37.5 7.5,30 0,22.5 M 0,52.5 22.5,30 0,7.5 M 0,60 60,0" style="fill:none;stroke:hsl(206, 68%, 59%);stroke-width:0.5;stroke-linecap:square" />
      </svg>

      <svg x="353.5" y="0" viewBox="0 0 60 60" width="70.7" height="70.7">
        <path d="M 45,0 30,15 15,0 M 60,22.5 52.5,30 60,37.5 M 60,45 45,30 60,15 M 60,7.5 37.5,30 60,52.5 M 45,60 30,45 15,60 M 60,60 0,0 M 22.5,0 30,7.5 37.5,0 M 7.5,0 30,22.5 52.5,0 M 0,15 15,30 0,45 M 22.5,60 30,52.5 37.5,60 M 7.5,60 30,37.5 52.5,60 M 0,37.5 7.5,30 0,22.5 M 0,52.5 22.5,30 0,7.5 M 0,60 60,0" style="fill:none;stroke:hsl(206, 68%, 59%);stroke-width:0.5;stroke-linecap:square" />
      </svg>

      <svg x="424.2" y="0" viewBox="0 0 60 60" width="70.7" height="70.7">
        <path d="M 45,0 30,15 15,0 M 60,22.5 52.5,30 60,37.5 M 60,45 45,30 60,15 M 60,7.5 37.5,30 60,52.5 M 45,60 30,45 15,60 M 60,60 0,0 M 22.5,0 30,7.5 37.5,0 M 7.5,0 30,22.5 52.5,0 M 0,15 15,30 0,45 M 22.5,60 30,52.5 37.5,60 M 7.5,60 30,37.5 52.5,60 M 0,37.5 7.5,30 0,22.5 M 0,52.5 22.5,30 0,7.5 M 0,60 60,0" style="fill:none;stroke:hsl(206, 68%, 59%);stroke-width:0.5;stroke-linecap:square" />
      </svg>

      <svg x="494.9" y="0" viewBox="0 0 60 60" width="70.7" height="70.7">
        <path d="M 45,0 30,15 15,0 M 60,22.5 52.5,30 60,37.5 M 60,45 45,30 60,15 M 60,7.5 37.5,30 60,52.5 M 45,60 30,45 15,60 M 60,60 0,0 M 22.5,0 30,7.5 37.5,0 M 7.5,0 30,22.5 52.5,0 M 0,15 15,30 0,45 M 22.5,60 30,52.5 37.5,60 M 7.5,60 30,37.5 52.5,60 M 0,37.5 7.5,30 0,22.5 M 0,52.5 22.5,30 0,7.5 M 0,60 60,0" style="fill:none;stroke:hsl(206, 68%, 59%);stroke-width:0.5;stroke-linecap:square" />
      </svg>

      <svg x="565.6" y="0" viewBox="0 0 60 60" width="70.7" height="70.7">
        <path d="M 45,0 30,15 15,0 M 60,22.5 52.5,30 60,37.5 M 60,45 45,30 60,15 M 60,7.5 37.5,30 60,52.5 M 45,60 30,45 15,60 M 60,60 0,0 M 22.5,0 30,7.5 37.5,0 M 7.5,0 30,22.5 52.5,0 M 0,15 15,30 0,45 M 22.5,60 30,52.5 37.5,60 M 7.5,60 30,37.5 52.5,60 M 0,37.5 7.5,30 0,22.5 M 0,52.5 22.5,30 0,7.5 M 0,60 60,0" style="fill:none;stroke:hsl(206, 68%, 59%);stroke-width:0.5;stroke-linecap:square" />
      </svg>

      <svg x="636.3" y="0" viewBox="0 0 60 60" width="70.7" height="70.7">
        <path d="M 45,0 30,15 15,0 M 60,22.5 52.5,30 60,37.5 M 60,45 45,30 60,15 M 60,7.5 37.5,30 60,52.5 M 45,60 30,45 15,60 M 60,60 0,0 M 22.5,0 30,7.5 37.5,0 M 7.5,0 30,22.5 52.5,0 M 0,15 15,30 0,45 M 22.5,60 30,52.5 37.5,60 M 7.5,60 30,37.5 52.5,60 M 0,37.5 7.5,30 0,22.5 M 0,52.5 22.5,30 0,7.5 M 0,60 60,0" style="fill:none;stroke:hsl(206, 68%, 59%);stroke-width:0.5;stroke-linecap:square" />
      </svg>

      <svg x="707.0" y="0" viewBox="0 0 60 60" width="70.7" height="70.7">
        <path d="M 45,0 30,15 15,0 M 60,22.5 52.5,30 60,37.5 M 60,45 45,30 60,15 M 60,7.5 37.5,30 60,52.5 M 45,60 30,45 15,60 M 60,60 0,0 M 22.5,0 30,7.5 37.5,0 M 7.5,0 30,22.5 52.5,0 M 0,15 15,30 0,45 M 22.5,60 30,52.5 37.5,60 M 7.5,60 30,37.5 52.5,60 M 0,37.5 7.5,30 0,22.5 M 0,52.5 22.5,30 0,7.5 M 0,60 60,0" style="fill:none;stroke:hsl(206, 68%, 59%);stroke-width:0.5;stroke-linecap:square" />
      </svg>

      <svg x="777.7" y="0" viewBox="0 0 60 60" width="70.7" height="70.7">
        <path d="M 45,0 30,15 15,0 M 60,22.5 52.5,30 60,37.5 M 60,45 45,30 60,15 M 60,7.5 37.5,30 60,52.5 M 45,60 30,45 15,60 M 60,60 0,0 M 22.5,0 30,7.5 37.5,0 M 7.5,0 30,22.5 52.5,0 M 0,15 15,30 0,45 M 22.5,60 30,52.5 37.5,60 M 7.5,60 30,37.5 52.5,60 M 0,37.5 7.5,30 0,22.5 M 0,52.5 22.5,30 0,7.5 M 0,60 60,0" style="fill:none;stroke:hsl(206, 68%, 59%);stroke-width:0.5;stroke-linecap:square" />
      </svg>

      <svg x="848.4" y="0" viewBox="0 0 60 60" width="70.7" height="70.7">
        <path d="M 45,0 30,15 15,0 M 60,22.5 52.5,30 60,37.5 M 60,45 45,30 60,15 M 60,7.5 37.5,30 60,52.5 M 45,60 30,45 15,60 M 60,60 0,0 M 22.5,0 30,7.5 37.5,0 M 7.5,0 30,22.5 52.5,0 M 0,15 15,30 0,45 M 22.5,60 30,52.5 37.5,60 M 7.5,60 30,37.5 52.5,60 M 0,37.5 7.5,30 0,22.5 M 0,52.5 22.5,30 0,7.5 M 0,60 60,0" style="fill:none;stroke:hsl(206, 68%, 59%);stroke-width:0.5;stroke-linecap:square" />
      </svg>

      <svg x="919.1" y="0" viewBox="0 0 60 60" width="70.7" height="70.7">
        <path d="M 45,0 30,15 15,0 M 60,22.5 52.5,30 60,37.5 M 60,45 45,30 60,15 M 60,7.5 37.5,30 60,52.5 M 45,60 30,45 15,60 M 60,60 0,0 M 22.5,0 30,7.5 37.5,0 M 7.5,0 30,22.5 52.5,0 M 0,15 15,30 0,45 M 22.5,60 30,52.5 37.5,60 M 7.5,60 30,37.5 52.5,60 M 0,37.5 7.5,30 0,22.5 M 0,52.5 22.5,30 0,7.5 M 0,60 60,0" style="fill:none;stroke:hsl(206, 68%, 59%);stroke-width:0.5;stroke-linecap:square" />
      </svg>

      <svg x="989.8" y="0" viewBox="0 0 60 60" width="70.7" height="70.7">
        <path d="M 45,0 30,15 15,0 M 60,22.5 52.5,30 60,37.5 M 60,45 45,30 60,15 M 60,7.5 37.5,30 60,52.5 M 45,60 30,45 15,60 M 60,60 0,0 M 22.5,0 30,7.5 37.5,0 M 7.5,0 30,22.5 52.5,0 M 0,15 15,30 0,45 M 22.5,60 30,52.5 37.5,60 M 7.5,60 30,37.5 52.5,60 M 0,37.5 7.5,30 0,22.5 M 0,52.5 22.5,30 0,7.5 M 0,60 60,0" style="fill:none;stroke:hsl(206, 68%, 59%);stroke-width:0.5;stroke-linecap:square" />
      </svg>

      <svg x="1060.5" y="0" viewBox="0 0 60 60" width="70.7" height="70.7">
        <path d="M 45,0 30,15 15,0 M 60,22.5 52.5,30 60,37.5 M 60,45 45,30 60,15 M 60,7.5 37.5,30 60,52.5 M 45,60 30,45 15,60 M 60,60 0,0 M 22.5,0 30,7.5 37.5,0 M 7.5,0 30,22.5 52.5,0 M 0,15 15,30 0,45 M 22.5,60 30,52.5 37.5,60 M 7.5,60 30,37.5 52.5,60 M 0,37.5 7.5,30 0,22.5 M 0,52.5 22.5,30 0,7.5 M 0,60 60,0" style="fill:none;stroke:hsl(206, 68%, 59%);stroke-width:0.5;stroke-linecap:square" />
      </svg>

      <svg x="1131.2" y="0" viewBox="0 0 60 60" width="70.7" height="70.7">
        <path d="M 45,0 30,15 15,0 M 60,22.5 52.5,30 60,37.5 M 60,45 45,30 60,15 M 60,7.5 37.5,30 60,52.5 M 45,60 30,45 15,60 M 60,60 0,0 M 22.5,0 30,7.5 37.5,0 M 7.5,0 30,22.5 52.5,0 M 0,15 15,30 0,45 M 22.5,60 30,52.5 37.5,60 M 7.5,60 30,37.5 52.5,60 M 0,37.5 7.5,30 0,22.5 M 0,52.5 22.5,30 0,7.5 M 0,60 60,0" style="fill:none;stroke:hsl(206, 68%, 59%);stroke-width:0.5;stroke-linecap:square" />
      </svg>

      <svg x="1201.9" y="0" viewBox="0 0 60 60" width="70.7" height="70.7">
        <path d="M 45,0 30,15 15,0 M 60,22.5 52.5,30 60,37.5 M 60,45 45,30 60,15 M 60,7.5 37.5,30 60,52.5 M 45,60 30,45 15,60 M 60,60 0,0 M 22.5,0 30,7.5 37.5,0 M 7.5,0 30,22.5 52.5,0 M 0,15 15,30 0,45 M 22.5,60 30,52.5 37.5,60 M 7.5,60 30,37.5 52.5,60 M 0,37.5 7.5,30 0,22.5 M 0,52.5 22.5,30 0,7.5 M 0,60 60,0" style="fill:none;stroke:hsl(206, 68%, 59%);stroke-width:0.5;stroke-linecap:square" />
      </svg>

      <svg x="1272.6" y="0" viewBox="0 0 60 60" width="70.7" height="70.7">
        <path d="M 45,0 30,15 15,0 M 60,22.5 52.5,30 60,37.5 M 60,45 45,30 60,15 M 60,7.5 37.5,30 60,52.5 M 45,60 30,45 15,60 M 60,60 0,0 M 22.5,0 30,7.5 37.5,0 M 7.5,0 30,22.5 52.5,0 M 0,15 15,30 0,45 M 22.5,60 30,52.5 37.5,60 M 7.5,60 30,37.5 52.5,60 M 0,37.5 7.5,30 0,22.5 M 0,52.5 22.5,30 0,7.5 M 0,60 60,0" style="fill:none;stroke:hsl(206, 68%, 59%);stroke-width:0.5;stroke-linecap:square" />
      </svg>

      <svg x="1343.3" y="0" viewBox="0 0 60 60" width="70.7" height="70.7">
        <path d="M 45,0 30,15 15,0 M 60,22.5 52.5,30 60,37.5 M 60,45 45,30 60,15 M 60,7.5 37.5,30 60,52.5 M 45,60 30,45 15,60 M 60,60 0,0 M 22.5,0 30,7.5 37.5,0 M 7.5,0 30,22.5 52.5,0 M 0,15 15,30 0,45 M 22.5,60 30,52.5 37.5,60 M 7.5,60 30,37.5 52.5,60 M 0,37.5 7.5,30 0,22.5 M 0,52.5 22.5,30 0,7.5 M 0,60 60,0" style="fill:none;stroke:hsl(206, 68%, 59%);stroke-width:0.5;stroke-linecap:square" />
      </svg>

      <svg x="1414.0" y="0" viewBox="0 0 60 60" width="70.7" height="70.7">
        <path d="M 45,0 30,15 15,0 M 60,22.5 52.5,30 60,37.5 M 60,45 45,30 60,15 M 60,7.5 37.5,30 60,52.5 M 45,60 30,45 15,60 M 60,60 0,0 M 22.5,0 30,7.5 37.5,0 M 7.5,0 30,22.5 52.5,0 M 0,15 15,30 0,45 M 22.5,60 30,52.5 37.5,60 M 7.5,60 30,37.5 52.5,60 M 0,37.5 7.5,30 0,22.5 M 0,52.5 22.5,30 0,7.5 M 0,60 60,0" style="fill:none;stroke:hsl(206, 68%, 59%);stroke-width:0.5;stroke-linecap:square" />
      </svg>

      <svg x="1484.7" y="0" viewBox="0 0 60 60" width="70.7" height="70.7">
        <path d="M 45,0 30,15 15,0 M 60,22.5 52.5,30 60,37.5 M 60,45 45,30 60,15 M 60,7.5 37.5,30 60,52.5 M 45,60 30,45 15,60 M 60,60 0,0 M 22.5,0 30,7.5 37.5,0 M 7.5,0 30,22.5 52.5,0 M 0,15 15,30 0,45 M 22.5,60 30,52.5 37.5,60 M 7.5,60 30,37.5 52.5,60 M 0,37.5 7.5,30 0,22.5 M 0,52.5 22.5,30 0,7.5 M 0,60 60,0" style="fill:none;stroke:hsl(206, 68%, 59%);stroke-width:0.5;stroke-linecap:square" />
      </svg>

      <svg x="1555.4" y="0" viewBox="0 0 60 60" width="70.7" height="70.7">
        <path d="M 45,0 30,15 15,0 M 60,22.5 52.5,30 60,37.5 M 60,45 45,30 60,15 M 60,7.5 37.5,30 60,52.5 M 45,60 30,45 15,60 M 60,60 0,0 M 22.5,0 30,7.5 37.5,0 M 7.5,0 30,22.5 52.5,0 M 0,15 15,30 0,45 M 22.5,60 30,52.5 37.5,60 M 7.5,60 30,37.5 52.5,60 M 0,37.5 7.5,30 0,22.5 M 0,52.5 22.5,30 0,7.5 M 0,60 60,0" style="fill:none;stroke:hsl(206, 68%, 59%);stroke-width:0.5;stroke-linecap:square" />
      </svg>

      <svg x="1626.1" y="0" viewBox="0 0 60 60" width="70.7" height="70.7">
        <path d="M 45,0 30,15 15,0 M 60,22.5 52.5,30 60,37.5 M 60,45 45,30 60,15 M 60,7.5 37.5,30 60,52.5 M 45,60 30,45 15,60 M 60,60 0,0 M 22.5,0 30,7.5 37.5,0 M 7.5,0 30,22.5 52.5,0 M 0,15 15,30 0,45 M 22.5,60 30,52.5 37.5,60 M 7.5,60 30,37.5 52.5,60 M 0,37.5 7.5,30 0,22.5 M 0,52.5 22.5,30 0,7.5 M 0,60 60,0" style="fill:none;stroke:hsl(206, 68%, 59%);stroke-width:0.5;stroke-linecap:square" />
      </svg>
    </g>
  </g>
</svg>
