<svg version="1.1" xmlns="http://www.w3.org/2000/svg" xmlns:xlink="http://www.w3.org/1999/xlink" viewBox="0 0 1200 1200" width="1200" height="1200">
  <g transform="translate(300 1200)">
    <g transform="rotate(-45)" viewBox="0 0 1200 70.7">
      <svg x="0" y="0" viewBox="0 0 60 60" width="70.7" height="70.7">
        <path d="M 7.5,60 C 7.5,55.7 4,52.5 0,52.5 m 60,0 c -4,0 -7.5,3 -7.5,7.5 M 7.5,0 C 7.5,4.3 4,7.5 0,7.5 m 60,0 c -4,0 -7.5,-3 -7.5,-7.5 m -25,0 C 27.5,4.3 24,7.5 20,7.5 16,7.5 12.5,4.5 12.5,0 m 35,0 C 47.5,4.3 44,7.5 40,7.5 36,7.5 32.5,4.5 32.5,0 m 0,60 c 0,-4.3 3.5,-7.5 7.5,-7.5 4,0 7.5,3 7.5,7.5 M 0,32.5 C 4,32.5 7.5,36 7.5,40 7.5,44.3 4,47.5 0,47.5 M 27.5,40 c 0,4 -3.5,7.5 -7.5,7.5 -4,0 -7.5,-3.5 -7.5,-7.5 0,-4.3 3.5,-7.5 7.5,-7.5 4,0 7.5,3 7.5,7.5 z m 20,0 c 0,4 -3.5,7.5 -7.5,7.5 -4,0 -7.5,-3.5 -7.5,-7.5 0,-4.3 3.5,-7.5 7.5,-7.5 4,0 7.5,3 7.5,7.5 z M 60,47.5 C 56,47.5 52.5,44 52.5,40 52.5,35.7 56,32.5 60,32.5 M 0,12.5 C 4,12.5 7.5,16 7.5,20 7.5,24.3 4,27.5 0,27.5 M 27.5,20 c 0,4 -3.5,7.5 -7.5,7.5 -4,0 -7.5,-3.5 -7.5,-7.5 0,-4.3 3.5,-7.5 7.5,-7.5 4,0 7.5,3 7.5,7.5 z m 20,0 c 0,4 -3.5,7.5 -7.5,7.5 -4,0 -7.5,-3.5 -7.5,-7.5 0,-4.3 3.5,-7.5 7.5,-7.5 4,0 7.5,3 7.5,7.5 z M 60,27.5 C 56,27.5 52.5,24 52.5,20 52.5,15.7 56,12.5 60,12.5 M 12.5,60 c 0,-4.3 3.5,-7.5 7.5,-7.5 4,0 7.5,3 7.5,7.5 M 7.5,47.5 0,40 7.5,32.5 M 12.5,7.48 20,-0.024 27.5,7.5 m 5,45 7.5,7.5 7.5,-7.5 m -20,-5 -15,-15 m -5,-5 L 0,20 7.5,12.5 m 20,40 L 20,60 12.5,52.5 m 20,-5 15,-15 m 5,-5 L 60,20 52.5,12.5 M 7.5,52.5 0,60 m 27.5,-27.5 -15,15 m 35,-35 -15,15 M 60,-0.024 52.5,7.48 m -5,0 L 40,-0.024 32.5,7.5 m 0,5 15,15 m 5,5 7.5,7.5 -7.5,7.5 m -40,-20 15,-15 m -20,15 5,0 0,5 -5,0 z m 20,0 5,0 0,5 -5,0 z m 20,0 5,0 0,5 -5,0 z m 0,-20 5,0 0,5 -5,0 z m -20,0 5,0 0,5 -5,0 z m -20,0 5,0 0,5 -5,0 z m 0,40 5,0 0,5 -5,0 z m 20,0 5,0 0,5 -5,0 z m 20,0 5,0 0,5 -5,0 z m 5,5 7.5,7.5 m -27.5,-27.5 15,15 m -35,-35 15,15 M 0,-0.024 7.5,7.48" style="fill:none;stroke:hsl(79, 100%, 38%);stroke-width:0.5;stroke-linecap:square" />
      </svg>

      <svg x="70.7" y="0" viewBox="0 0 60 60" width="70.7" height="70.7">
        <path d="M 7.5,60 C 7.5,55.7 4,52.5 0,52.5 m 60,0 c -4,0 -7.5,3 -7.5,7.5 M 7.5,0 C 7.5,4.3 4,7.5 0,7.5 m 60,0 c -4,0 -7.5,-3 -7.5,-7.5 m -25,0 C 27.5,4.3 24,7.5 20,7.5 16,7.5 12.5,4.5 12.5,0 m 35,0 C 47.5,4.3 44,7.5 40,7.5 36,7.5 32.5,4.5 32.5,0 m 0,60 c 0,-4.3 3.5,-7.5 7.5,-7.5 4,0 7.5,3 7.5,7.5 M 0,32.5 C 4,32.5 7.5,36 7.5,40 7.5,44.3 4,47.5 0,47.5 M 27.5,40 c 0,4 -3.5,7.5 -7.5,7.5 -4,0 -7.5,-3.5 -7.5,-7.5 0,-4.3 3.5,-7.5 7.5,-7.5 4,0 7.5,3 7.5,7.5 z m 20,0 c 0,4 -3.5,7.5 -7.5,7.5 -4,0 -7.5,-3.5 -7.5,-7.5 0,-4.3 3.5,-7.5 7.5,-7.5 4,0 7.5,3 7.5,7.5 z M 60,47.5 C 56,47.5 52.5,44 52.5,40 52.5,35.7 56,32.5 60,32.5 M 0,12.5 C 4,12.5 7.5,16 7.5,20 7.5,24.3 4,27.5 0,27.5 M 27.5,20 c 0,4 -3.5,7.5 -7.5,7.5 -4,0 -7.5,-3.5 -7.5,-7.5 0,-4.3 3.5,-7.5 7.5,-7.5 4,0 7.5,3 7.5,7.5 z m 20,0 c 0,4 -3.5,7.5 -7.5,7.5 -4,0 -7.5,-3.5 -7.5,-7.5 0,-4.3 3.5,-7.5 7.5,-7.5 4,0 7.5,3 7.5,7.5 z M 60,27.5 C 56,27.5 52.5,24 52.5,20 52.5,15.7 56,12.5 60,12.5 M 12.5,60 c 0,-4.3 3.5,-7.5 7.5,-7.5 4,0 7.5,3 7.5,7.5 M 7.5,47.5 0,40 7.5,32.5 M 12.5,7.48 20,-0.024 27.5,7.5 m 5,45 7.5,7.5 7.5,-7.5 m -20,-5 -15,-15 m -5,-5 L 0,20 7.5,12.5 m 20,40 L 20,60 12.5,52.5 m 20,-5 15,-15 m 5,-5 L 60,20 52.5,12.5 M 7.5,52.5 0,60 m 27.5,-27.5 -15,15 m 35,-35 -15,15 M 60,-0.024 52.5,7.48 m -5,0 L 40,-0.024 32.5,7.5 m 0,5 15,15 m 5,5 7.5,7.5 -7.5,7.5 m -40,-20 15,-15 m -20,15 5,0 0,5 -5,0 z m 20,0 5,0 0,5 -5,0 z m 20,0 5,0 0,5 -5,0 z m 0,-20 5,0 0,5 -5,0 z m -20,0 5,0 0,5 -5,0 z m -20,0 5,0 0,5 -5,0 z m 0,40 5,0 0,5 -5,0 z m 20,0 5,0 0,5 -5,0 z m 20,0 5,0 0,5 -5,0 z m 5,5 7.5,7.5 m -27.5,-27.5 15,15 m -35,-35 15,15 M 0,-0.024 7.5,7.48" style="fill:none;stroke:hsl(79, 100%, 38%);stroke-width:0.5;stroke-linecap:square" />
      </svg>

      <svg x="141.4" y="0" viewBox="0 0 60 60" width="70.7" height="70.7">
        <path d="M 7.5,60 C 7.5,55.7 4,52.5 0,52.5 m 60,0 c -4,0 -7.5,3 -7.5,7.5 M 7.5,0 C 7.5,4.3 4,7.5 0,7.5 m 60,0 c -4,0 -7.5,-3 -7.5,-7.5 m -25,0 C 27.5,4.3 24,7.5 20,7.5 16,7.5 12.5,4.5 12.5,0 m 35,0 C 47.5,4.3 44,7.5 40,7.5 36,7.5 32.5,4.5 32.5,0 m 0,60 c 0,-4.3 3.5,-7.5 7.5,-7.5 4,0 7.5,3 7.5,7.5 M 0,32.5 C 4,32.5 7.5,36 7.5,40 7.5,44.3 4,47.5 0,47.5 M 27.5,40 c 0,4 -3.5,7.5 -7.5,7.5 -4,0 -7.5,-3.5 -7.5,-7.5 0,-4.3 3.5,-7.5 7.5,-7.5 4,0 7.5,3 7.5,7.5 z m 20,0 c 0,4 -3.5,7.5 -7.5,7.5 -4,0 -7.5,-3.5 -7.5,-7.5 0,-4.3 3.5,-7.5 7.5,-7.5 4,0 7.5,3 7.5,7.5 z M 60,47.5 C 56,47.5 52.5,44 52.5,40 52.5,35.7 56,32.5 60,32.5 M 0,12.5 C 4,12.5 7.5,16 7.5,20 7.5,24.3 4,27.5 0,27.5 M 27.5,20 c 0,4 -3.5,7.5 -7.5,7.5 -4,0 -7.5,-3.5 -7.5,-7.5 0,-4.3 3.5,-7.5 7.5,-7.5 4,0 7.5,3 7.5,7.5 z m 20,0 c 0,4 -3.5,7.5 -7.5,7.5 -4,0 -7.5,-3.5 -7.5,-7.5 0,-4.3 3.5,-7.5 7.5,-7.5 4,0 7.5,3 7.5,7.5 z M 60,27.5 C 56,27.5 52.5,24 52.5,20 52.5,15.7 56,12.5 60,12.5 M 12.5,60 c 0,-4.3 3.5,-7.5 7.5,-7.5 4,0 7.5,3 7.5,7.5 M 7.5,47.5 0,40 7.5,32.5 M 12.5,7.48 20,-0.024 27.5,7.5 m 5,45 7.5,7.5 7.5,-7.5 m -20,-5 -15,-15 m -5,-5 L 0,20 7.5,12.5 m 20,40 L 20,60 12.5,52.5 m 20,-5 15,-15 m 5,-5 L 60,20 52.5,12.5 M 7.5,52.5 0,60 m 27.5,-27.5 -15,15 m 35,-35 -15,15 M 60,-0.024 52.5,7.48 m -5,0 L 40,-0.024 32.5,7.5 m 0,5 15,15 m 5,5 7.5,7.5 -7.5,7.5 m -40,-20 15,-15 m -20,15 5,0 0,5 -5,0 z m 20,0 5,0 0,5 -5,0 z m 20,0 5,0 0,5 -5,0 z m 0,-20 5,0 0,5 -5,0 z m -20,0 5,0 0,5 -5,0 z m -20,0 5,0 0,5 -5,0 z m 0,40 5,0 0,5 -5,0 z m 20,0 5,0 0,5 -5,0 z m 20,0 5,0 0,5 -5,0 z m 5,5 7.5,7.5 m -27.5,-27.5 15,15 m -35,-35 15,15 M 0,-0.024 7.5,7.48" style="fill:none;stroke:hsl(79, 100%, 38%);stroke-width:0.5;stroke-linecap:square" />
      </svg>

      <svg x="212.1" y="0" viewBox="0 0 60 60" width="70.7" height="70.7">
        <path d="M 7.5,60 C 7.5,55.7 4,52.5 0,52.5 m 60,0 c -4,0 -7.5,3 -7.5,7.5 M 7.5,0 C 7.5,4.3 4,7.5 0,7.5 m 60,0 c -4,0 -7.5,-3 -7.5,-7.5 m -25,0 C 27.5,4.3 24,7.5 20,7.5 16,7.5 12.5,4.5 12.5,0 m 35,0 C 47.5,4.3 44,7.5 40,7.5 36,7.5 32.5,4.5 32.5,0 m 0,60 c 0,-4.3 3.5,-7.5 7.5,-7.5 4,0 7.5,3 7.5,7.5 M 0,32.5 C 4,32.5 7.5,36 7.5,40 7.5,44.3 4,47.5 0,47.5 M 27.5,40 c 0,4 -3.5,7.5 -7.5,7.5 -4,0 -7.5,-3.5 -7.5,-7.5 0,-4.3 3.5,-7.5 7.5,-7.5 4,0 7.5,3 7.5,7.5 z m 20,0 c 0,4 -3.5,7.5 -7.5,7.5 -4,0 -7.5,-3.5 -7.5,-7.5 0,-4.3 3.5,-7.5 7.5,-7.5 4,0 7.5,3 7.5,7.5 z M 60,47.5 C 56,47.5 52.5,44 52.5,40 52.5,35.7 56,32.5 60,32.5 M 0,12.5 C 4,12.5 7.5,16 7.5,20 7.5,24.3 4,27.5 0,27.5 M 27.5,20 c 0,4 -3.5,7.5 -7.5,7.5 -4,0 -7.5,-3.5 -7.5,-7.5 0,-4.3 3.5,-7.5 7.5,-7.5 4,0 7.5,3 7.5,7.5 z m 20,0 c 0,4 -3.5,7.5 -7.5,7.5 -4,0 -7.5,-3.5 -7.5,-7.5 0,-4.3 3.5,-7.5 7.5,-7.5 4,0 7.5,3 7.5,7.5 z M 60,27.5 C 56,27.5 52.5,24 52.5,20 52.5,15.7 56,12.5 60,12.5 M 12.5,60 c 0,-4.3 3.5,-7.5 7.5,-7.5 4,0 7.5,3 7.5,7.5 M 7.5,47.5 0,40 7.5,32.5 M 12.5,7.48 20,-0.024 27.5,7.5 m 5,45 7.5,7.5 7.5,-7.5 m -20,-5 -15,-15 m -5,-5 L 0,20 7.5,12.5 m 20,40 L 20,60 12.5,52.5 m 20,-5 15,-15 m 5,-5 L 60,20 52.5,12.5 M 7.5,52.5 0,60 m 27.5,-27.5 -15,15 m 35,-35 -15,15 M 60,-0.024 52.5,7.48 m -5,0 L 40,-0.024 32.5,7.5 m 0,5 15,15 m 5,5 7.5,7.5 -7.5,7.5 m -40,-20 15,-15 m -20,15 5,0 0,5 -5,0 z m 20,0 5,0 0,5 -5,0 z m 20,0 5,0 0,5 -5,0 z m 0,-20 5,0 0,5 -5,0 z m -20,0 5,0 0,5 -5,0 z m -20,0 5,0 0,5 -5,0 z m 0,40 5,0 0,5 -5,0 z m 20,0 5,0 0,5 -5,0 z m 20,0 5,0 0,5 -5,0 z m 5,5 7.5,7.5 m -27.5,-27.5 15,15 m -35,-35 15,15 M 0,-0.024 7.5,7.48" style="fill:none;stroke:hsl(79, 100%, 38%);stroke-width:0.5;stroke-linecap:square" />
      </svg>

      <svg x="282.8" y="0" viewBox="0 0 60 60" width="70.7" height="70.7">
        <path d="M 7.5,60 C 7.5,55.7 4,52.5 0,52.5 m 60,0 c -4,0 -7.5,3 -7.5,7.5 M 7.5,0 C 7.5,4.3 4,7.5 0,7.5 m 60,0 c -4,0 -7.5,-3 -7.5,-7.5 m -25,0 C 27.5,4.3 24,7.5 20,7.5 16,7.5 12.5,4.5 12.5,0 m 35,0 C 47.5,4.3 44,7.5 40,7.5 36,7.5 32.5,4.5 32.5,0 m 0,60 c 0,-4.3 3.5,-7.5 7.5,-7.5 4,0 7.5,3 7.5,7.5 M 0,32.5 C 4,32.5 7.5,36 7.5,40 7.5,44.3 4,47.5 0,47.5 M 27.5,40 c 0,4 -3.5,7.5 -7.5,7.5 -4,0 -7.5,-3.5 -7.5,-7.5 0,-4.3 3.5,-7.5 7.5,-7.5 4,0 7.5,3 7.5,7.5 z m 20,0 c 0,4 -3.5,7.5 -7.5,7.5 -4,0 -7.5,-3.5 -7.5,-7.5 0,-4.3 3.5,-7.5 7.5,-7.5 4,0 7.5,3 7.5,7.5 z M 60,47.5 C 56,47.5 52.5,44 52.5,40 52.5,35.7 56,32.5 60,32.5 M 0,12.5 C 4,12.5 7.5,16 7.5,20 7.5,24.3 4,27.5 0,27.5 M 27.5,20 c 0,4 -3.5,7.5 -7.5,7.5 -4,0 -7.5,-3.5 -7.5,-7.5 0,-4.3 3.5,-7.5 7.5,-7.5 4,0 7.5,3 7.5,7.5 z m 20,0 c 0,4 -3.5,7.5 -7.5,7.5 -4,0 -7.5,-3.5 -7.5,-7.5 0,-4.3 3.5,-7.5 7.5,-7.5 4,0 7.5,3 7.5,7.5 z M 60,27.5 C 56,27.5 52.5,24 52.5,20 52.5,15.7 56,12.5 60,12.5 M 12.5,60 c 0,-4.3 3.5,-7.5 7.5,-7.5 4,0 7.5,3 7.5,7.5 M 7.5,47.5 0,40 7.5,32.5 M 12.5,7.48 20,-0.024 27.5,7.5 m 5,45 7.5,7.5 7.5,-7.5 m -20,-5 -15,-15 m -5,-5 L 0,20 7.5,12.5 m 20,40 L 20,60 12.5,52.5 m 20,-5 15,-15 m 5,-5 L 60,20 52.5,12.5 M 7.5,52.5 0,60 m 27.5,-27.5 -15,15 m 35,-35 -15,15 M 60,-0.024 52.5,7.48 m -5,0 L 40,-0.024 32.5,7.5 m 0,5 15,15 m 5,5 7.5,7.5 -7.5,7.5 m -40,-20 15,-15 m -20,15 5,0 0,5 -5,0 z m 20,0 5,0 0,5 -5,0 z m 20,0 5,0 0,5 -5,0 z m 0,-20 5,0 0,5 -5,0 z m -20,0 5,0 0,5 -5,0 z m -20,0 5,0 0,5 -5,0 z m 0,40 5,0 0,5 -5,0 z m 20,0 5,0 0,5 -5,0 z m 20,0 5,0 0,5 -5,0 z m 5,5 7.5,7.5 m -27.5,-27.5 15,15 m -35,-35 15,15 M 0,-0.024 7.5,7.48" style="fill:none;stroke:hsl(79, 100%, 38%);stroke-width:0.5;stroke-linecap:square" />
      </svg>

      <svg x="353.5" y="0" viewBox="0 0 60 60" width="70.7" height="70.7">
        <path d="M 7.5,60 C 7.5,55.7 4,52.5 0,52.5 m 60,0 c -4,0 -7.5,3 -7.5,7.5 M 7.5,0 C 7.5,4.3 4,7.5 0,7.5 m 60,0 c -4,0 -7.5,-3 -7.5,-7.5 m -25,0 C 27.5,4.3 24,7.5 20,7.5 16,7.5 12.5,4.5 12.5,0 m 35,0 C 47.5,4.3 44,7.5 40,7.5 36,7.5 32.5,4.5 32.5,0 m 0,60 c 0,-4.3 3.5,-7.5 7.5,-7.5 4,0 7.5,3 7.5,7.5 M 0,32.5 C 4,32.5 7.5,36 7.5,40 7.5,44.3 4,47.5 0,47.5 M 27.5,40 c 0,4 -3.5,7.5 -7.5,7.5 -4,0 -7.5,-3.5 -7.5,-7.5 0,-4.3 3.5,-7.5 7.5,-7.5 4,0 7.5,3 7.5,7.5 z m 20,0 c 0,4 -3.5,7.5 -7.5,7.5 -4,0 -7.5,-3.5 -7.5,-7.5 0,-4.3 3.5,-7.5 7.5,-7.5 4,0 7.5,3 7.5,7.5 z M 60,47.5 C 56,47.5 52.5,44 52.5,40 52.5,35.7 56,32.5 60,32.5 M 0,12.5 C 4,12.5 7.5,16 7.5,20 7.5,24.3 4,27.5 0,27.5 M 27.5,20 c 0,4 -3.5,7.5 -7.5,7.5 -4,0 -7.5,-3.5 -7.5,-7.5 0,-4.3 3.5,-7.5 7.5,-7.5 4,0 7.5,3 7.5,7.5 z m 20,0 c 0,4 -3.5,7.5 -7.5,7.5 -4,0 -7.5,-3.5 -7.5,-7.5 0,-4.3 3.5,-7.5 7.5,-7.5 4,0 7.5,3 7.5,7.5 z M 60,27.5 C 56,27.5 52.5,24 52.5,20 52.5,15.7 56,12.5 60,12.5 M 12.5,60 c 0,-4.3 3.5,-7.5 7.5,-7.5 4,0 7.5,3 7.5,7.5 M 7.5,47.5 0,40 7.5,32.5 M 12.5,7.48 20,-0.024 27.5,7.5 m 5,45 7.5,7.5 7.5,-7.5 m -20,-5 -15,-15 m -5,-5 L 0,20 7.5,12.5 m 20,40 L 20,60 12.5,52.5 m 20,-5 15,-15 m 5,-5 L 60,20 52.5,12.5 M 7.5,52.5 0,60 m 27.5,-27.5 -15,15 m 35,-35 -15,15 M 60,-0.024 52.5,7.48 m -5,0 L 40,-0.024 32.5,7.5 m 0,5 15,15 m 5,5 7.5,7.5 -7.5,7.5 m -40,-20 15,-15 m -20,15 5,0 0,5 -5,0 z m 20,0 5,0 0,5 -5,0 z m 20,0 5,0 0,5 -5,0 z m 0,-20 5,0 0,5 -5,0 z m -20,0 5,0 0,5 -5,0 z m -20,0 5,0 0,5 -5,0 z m 0,40 5,0 0,5 -5,0 z m 20,0 5,0 0,5 -5,0 z m 20,0 5,0 0,5 -5,0 z m 5,5 7.5,7.5 m -27.5,-27.5 15,15 m -35,-35 15,15 M 0,-0.024 7.5,7.48" style="fill:none;stroke:hsl(79, 100%, 38%);stroke-width:0.5;stroke-linecap:square" />
      </svg>

      <svg x="424.2" y="0" viewBox="0 0 60 60" width="70.7" height="70.7">
        <path d="M 7.5,60 C 7.5,55.7 4,52.5 0,52.5 m 60,0 c -4,0 -7.5,3 -7.5,7.5 M 7.5,0 C 7.5,4.3 4,7.5 0,7.5 m 60,0 c -4,0 -7.5,-3 -7.5,-7.5 m -25,0 C 27.5,4.3 24,7.5 20,7.5 16,7.5 12.5,4.5 12.5,0 m 35,0 C 47.5,4.3 44,7.5 40,7.5 36,7.5 32.5,4.5 32.5,0 m 0,60 c 0,-4.3 3.5,-7.5 7.5,-7.5 4,0 7.5,3 7.5,7.5 M 0,32.5 C 4,32.5 7.5,36 7.5,40 7.5,44.3 4,47.5 0,47.5 M 27.5,40 c 0,4 -3.5,7.5 -7.5,7.5 -4,0 -7.5,-3.5 -7.5,-7.5 0,-4.3 3.5,-7.5 7.5,-7.5 4,0 7.5,3 7.5,7.5 z m 20,0 c 0,4 -3.5,7.5 -7.5,7.5 -4,0 -7.5,-3.5 -7.5,-7.5 0,-4.3 3.5,-7.5 7.5,-7.5 4,0 7.5,3 7.5,7.5 z M 60,47.5 C 56,47.5 52.5,44 52.5,40 52.5,35.7 56,32.5 60,32.5 M 0,12.5 C 4,12.5 7.5,16 7.5,20 7.5,24.3 4,27.5 0,27.5 M 27.5,20 c 0,4 -3.5,7.5 -7.5,7.5 -4,0 -7.5,-3.5 -7.5,-7.5 0,-4.3 3.5,-7.5 7.5,-7.5 4,0 7.5,3 7.5,7.5 z m 20,0 c 0,4 -3.5,7.5 -7.5,7.5 -4,0 -7.5,-3.5 -7.5,-7.5 0,-4.3 3.5,-7.5 7.5,-7.5 4,0 7.5,3 7.5,7.5 z M 60,27.5 C 56,27.5 52.5,24 52.5,20 52.5,15.7 56,12.5 60,12.5 M 12.5,60 c 0,-4.3 3.5,-7.5 7.5,-7.5 4,0 7.5,3 7.5,7.5 M 7.5,47.5 0,40 7.5,32.5 M 12.5,7.48 20,-0.024 27.5,7.5 m 5,45 7.5,7.5 7.5,-7.5 m -20,-5 -15,-15 m -5,-5 L 0,20 7.5,12.5 m 20,40 L 20,60 12.5,52.5 m 20,-5 15,-15 m 5,-5 L 60,20 52.5,12.5 M 7.5,52.5 0,60 m 27.5,-27.5 -15,15 m 35,-35 -15,15 M 60,-0.024 52.5,7.48 m -5,0 L 40,-0.024 32.5,7.5 m 0,5 15,15 m 5,5 7.5,7.5 -7.5,7.5 m -40,-20 15,-15 m -20,15 5,0 0,5 -5,0 z m 20,0 5,0 0,5 -5,0 z m 20,0 5,0 0,5 -5,0 z m 0,-20 5,0 0,5 -5,0 z m -20,0 5,0 0,5 -5,0 z m -20,0 5,0 0,5 -5,0 z m 0,40 5,0 0,5 -5,0 z m 20,0 5,0 0,5 -5,0 z m 20,0 5,0 0,5 -5,0 z m 5,5 7.5,7.5 m -27.5,-27.5 15,15 m -35,-35 15,15 M 0,-0.024 7.5,7.48" style="fill:none;stroke:hsl(79, 100%, 38%);stroke-width:0.5;stroke-linecap:square" />
      </svg>

      <svg x="494.9" y="0" viewBox="0 0 60 60" width="70.7" height="70.7">
        <path d="M 7.5,60 C 7.5,55.7 4,52.5 0,52.5 m 60,0 c -4,0 -7.5,3 -7.5,7.5 M 7.5,0 C 7.5,4.3 4,7.5 0,7.5 m 60,0 c -4,0 -7.5,-3 -7.5,-7.5 m -25,0 C 27.5,4.3 24,7.5 20,7.5 16,7.5 12.5,4.5 12.5,0 m 35,0 C 47.5,4.3 44,7.5 40,7.5 36,7.5 32.5,4.5 32.5,0 m 0,60 c 0,-4.3 3.5,-7.5 7.5,-7.5 4,0 7.5,3 7.5,7.5 M 0,32.5 C 4,32.5 7.5,36 7.5,40 7.5,44.3 4,47.5 0,47.5 M 27.5,40 c 0,4 -3.5,7.5 -7.5,7.5 -4,0 -7.5,-3.5 -7.5,-7.5 0,-4.3 3.5,-7.5 7.5,-7.5 4,0 7.5,3 7.5,7.5 z m 20,0 c 0,4 -3.5,7.5 -7.5,7.5 -4,0 -7.5,-3.5 -7.5,-7.5 0,-4.3 3.5,-7.5 7.5,-7.5 4,0 7.5,3 7.5,7.5 z M 60,47.5 C 56,47.5 52.5,44 52.5,40 52.5,35.7 56,32.5 60,32.5 M 0,12.5 C 4,12.5 7.5,16 7.5,20 7.5,24.3 4,27.5 0,27.5 M 27.5,20 c 0,4 -3.5,7.5 -7.5,7.5 -4,0 -7.5,-3.5 -7.5,-7.5 0,-4.3 3.5,-7.5 7.5,-7.5 4,0 7.5,3 7.5,7.5 z m 20,0 c 0,4 -3.5,7.5 -7.5,7.5 -4,0 -7.5,-3.5 -7.5,-7.5 0,-4.3 3.5,-7.5 7.5,-7.5 4,0 7.5,3 7.5,7.5 z M 60,27.5 C 56,27.5 52.5,24 52.5,20 52.5,15.7 56,12.5 60,12.5 M 12.5,60 c 0,-4.3 3.5,-7.5 7.5,-7.5 4,0 7.5,3 7.5,7.5 M 7.5,47.5 0,40 7.5,32.5 M 12.5,7.48 20,-0.024 27.5,7.5 m 5,45 7.5,7.5 7.5,-7.5 m -20,-5 -15,-15 m -5,-5 L 0,20 7.5,12.5 m 20,40 L 20,60 12.5,52.5 m 20,-5 15,-15 m 5,-5 L 60,20 52.5,12.5 M 7.5,52.5 0,60 m 27.5,-27.5 -15,15 m 35,-35 -15,15 M 60,-0.024 52.5,7.48 m -5,0 L 40,-0.024 32.5,7.5 m 0,5 15,15 m 5,5 7.5,7.5 -7.5,7.5 m -40,-20 15,-15 m -20,15 5,0 0,5 -5,0 z m 20,0 5,0 0,5 -5,0 z m 20,0 5,0 0,5 -5,0 z m 0,-20 5,0 0,5 -5,0 z m -20,0 5,0 0,5 -5,0 z m -20,0 5,0 0,5 -5,0 z m 0,40 5,0 0,5 -5,0 z m 20,0 5,0 0,5 -5,0 z m 20,0 5,0 0,5 -5,0 z m 5,5 7.5,7.5 m -27.5,-27.5 15,15 m -35,-35 15,15 M 0,-0.024 7.5,7.48" style="fill:none;stroke:hsl(79, 100%, 38%);stroke-width:0.5;stroke-linecap:square" />
      </svg>

      <svg x="565.6" y="0" viewBox="0 0 60 60" width="70.7" height="70.7">
        <path d="M 7.5,60 C 7.5,55.7 4,52.5 0,52.5 m 60,0 c -4,0 -7.5,3 -7.5,7.5 M 7.5,0 C 7.5,4.3 4,7.5 0,7.5 m 60,0 c -4,0 -7.5,-3 -7.5,-7.5 m -25,0 C 27.5,4.3 24,7.5 20,7.5 16,7.5 12.5,4.5 12.5,0 m 35,0 C 47.5,4.3 44,7.5 40,7.5 36,7.5 32.5,4.5 32.5,0 m 0,60 c 0,-4.3 3.5,-7.5 7.5,-7.5 4,0 7.5,3 7.5,7.5 M 0,32.5 C 4,32.5 7.5,36 7.5,40 7.5,44.3 4,47.5 0,47.5 M 27.5,40 c 0,4 -3.5,7.5 -7.5,7.5 -4,0 -7.5,-3.5 -7.5,-7.5 0,-4.3 3.5,-7.5 7.5,-7.5 4,0 7.5,3 7.5,7.5 z m 20,0 c 0,4 -3.5,7.5 -7.5,7.5 -4,0 -7.5,-3.5 -7.5,-7.5 0,-4.3 3.5,-7.5 7.5,-7.5 4,0 7.5,3 7.5,7.5 z M 60,47.5 C 56,47.5 52.5,44 52.5,40 52.5,35.7 56,32.5 60,32.5 M 0,12.5 C 4,12.5 7.5,16 7.5,20 7.5,24.3 4,27.5 0,27.5 M 27.5,20 c 0,4 -3.5,7.5 -7.5,7.5 -4,0 -7.5,-3.5 -7.5,-7.5 0,-4.3 3.5,-7.5 7.5,-7.5 4,0 7.5,3 7.5,7.5 z m 20,0 c 0,4 -3.5,7.5 -7.5,7.5 -4,0 -7.5,-3.5 -7.5,-7.5 0,-4.3 3.5,-7.5 7.5,-7.5 4,0 7.5,3 7.5,7.5 z M 60,27.5 C 56,27.5 52.5,24 52.5,20 52.5,15.7 56,12.5 60,12.5 M 12.5,60 c 0,-4.3 3.5,-7.5 7.5,-7.5 4,0 7.5,3 7.5,7.5 M 7.5,47.5 0,40 7.5,32.5 M 12.5,7.48 20,-0.024 27.5,7.5 m 5,45 7.5,7.5 7.5,-7.5 m -20,-5 -15,-15 m -5,-5 L 0,20 7.5,12.5 m 20,40 L 20,60 12.5,52.5 m 20,-5 15,-15 m 5,-5 L 60,20 52.5,12.5 M 7.5,52.5 0,60 m 27.5,-27.5 -15,15 m 35,-35 -15,15 M 60,-0.024 52.5,7.48 m -5,0 L 40,-0.024 32.5,7.5 m 0,5 15,15 m 5,5 7.5,7.5 -7.5,7.5 m -40,-20 15,-15 m -20,15 5,0 0,5 -5,0 z m 20,0 5,0 0,5 -5,0 z m 20,0 5,0 0,5 -5,0 z m 0,-20 5,0 0,5 -5,0 z m -20,0 5,0 0,5 -5,0 z m -20,0 5,0 0,5 -5,0 z m 0,40 5,0 0,5 -5,0 z m 20,0 5,0 0,5 -5,0 z m 20,0 5,0 0,5 -5,0 z m 5,5 7.5,7.5 m -27.5,-27.5 15,15 m -35,-35 15,15 M 0,-0.024 7.5,7.48" style="fill:none;stroke:hsl(79, 100%, 38%);stroke-width:0.5;stroke-linecap:square" />
      </svg>

      <svg x="636.3" y="0" viewBox="0 0 60 60" width="70.7" height="70.7">
        <path d="M 7.5,60 C 7.5,55.7 4,52.5 0,52.5 m 60,0 c -4,0 -7.5,3 -7.5,7.5 M 7.5,0 C 7.5,4.3 4,7.5 0,7.5 m 60,0 c -4,0 -7.5,-3 -7.5,-7.5 m -25,0 C 27.5,4.3 24,7.5 20,7.5 16,7.5 12.5,4.5 12.5,0 m 35,0 C 47.5,4.3 44,7.5 40,7.5 36,7.5 32.5,4.5 32.5,0 m 0,60 c 0,-4.3 3.5,-7.5 7.5,-7.5 4,0 7.5,3 7.5,7.5 M 0,32.5 C 4,32.5 7.5,36 7.5,40 7.5,44.3 4,47.5 0,47.5 M 27.5,40 c 0,4 -3.5,7.5 -7.5,7.5 -4,0 -7.5,-3.5 -7.5,-7.5 0,-4.3 3.5,-7.5 7.5,-7.5 4,0 7.5,3 7.5,7.5 z m 20,0 c 0,4 -3.5,7.5 -7.5,7.5 -4,0 -7.5,-3.5 -7.5,-7.5 0,-4.3 3.5,-7.5 7.5,-7.5 4,0 7.5,3 7.5,7.5 z M 60,47.5 C 56,47.5 52.5,44 52.5,40 52.5,35.7 56,32.5 60,32.5 M 0,12.5 C 4,12.5 7.5,16 7.5,20 7.5,24.3 4,27.5 0,27.5 M 27.5,20 c 0,4 -3.5,7.5 -7.5,7.5 -4,0 -7.5,-3.5 -7.5,-7.5 0,-4.3 3.5,-7.5 7.5,-7.5 4,0 7.5,3 7.5,7.5 z m 20,0 c 0,4 -3.5,7.5 -7.5,7.5 -4,0 -7.5,-3.5 -7.5,-7.5 0,-4.3 3.5,-7.5 7.5,-7.5 4,0 7.5,3 7.5,7.5 z M 60,27.5 C 56,27.5 52.5,24 52.5,20 52.5,15.7 56,12.5 60,12.5 M 12.5,60 c 0,-4.3 3.5,-7.5 7.5,-7.5 4,0 7.5,3 7.5,7.5 M 7.5,47.5 0,40 7.5,32.5 M 12.5,7.48 20,-0.024 27.5,7.5 m 5,45 7.5,7.5 7.5,-7.5 m -20,-5 -15,-15 m -5,-5 L 0,20 7.5,12.5 m 20,40 L 20,60 12.5,52.5 m 20,-5 15,-15 m 5,-5 L 60,20 52.5,12.5 M 7.5,52.5 0,60 m 27.5,-27.5 -15,15 m 35,-35 -15,15 M 60,-0.024 52.5,7.48 m -5,0 L 40,-0.024 32.5,7.5 m 0,5 15,15 m 5,5 7.5,7.5 -7.5,7.5 m -40,-20 15,-15 m -20,15 5,0 0,5 -5,0 z m 20,0 5,0 0,5 -5,0 z m 20,0 5,0 0,5 -5,0 z m 0,-20 5,0 0,5 -5,0 z m -20,0 5,0 0,5 -5,0 z m -20,0 5,0 0,5 -5,0 z m 0,40 5,0 0,5 -5,0 z m 20,0 5,0 0,5 -5,0 z m 20,0 5,0 0,5 -5,0 z m 5,5 7.5,7.5 m -27.5,-27.5 15,15 m -35,-35 15,15 M 0,-0.024 7.5,7.48" style="fill:none;stroke:hsl(79, 100%, 38%);stroke-width:0.5;stroke-linecap:square" />
      </svg>

      <svg x="707.0" y="0" viewBox="0 0 60 60" width="70.7" height="70.7">
        <path d="M 7.5,60 C 7.5,55.7 4,52.5 0,52.5 m 60,0 c -4,0 -7.5,3 -7.5,7.5 M 7.5,0 C 7.5,4.3 4,7.5 0,7.5 m 60,0 c -4,0 -7.5,-3 -7.5,-7.5 m -25,0 C 27.5,4.3 24,7.5 20,7.5 16,7.5 12.5,4.5 12.5,0 m 35,0 C 47.5,4.3 44,7.5 40,7.5 36,7.5 32.5,4.5 32.5,0 m 0,60 c 0,-4.3 3.5,-7.5 7.5,-7.5 4,0 7.5,3 7.5,7.5 M 0,32.5 C 4,32.5 7.5,36 7.5,40 7.5,44.3 4,47.5 0,47.5 M 27.5,40 c 0,4 -3.5,7.5 -7.5,7.5 -4,0 -7.5,-3.5 -7.5,-7.5 0,-4.3 3.5,-7.5 7.5,-7.5 4,0 7.5,3 7.5,7.5 z m 20,0 c 0,4 -3.5,7.5 -7.5,7.5 -4,0 -7.5,-3.5 -7.5,-7.5 0,-4.3 3.5,-7.5 7.5,-7.5 4,0 7.5,3 7.5,7.5 z M 60,47.5 C 56,47.5 52.5,44 52.5,40 52.5,35.7 56,32.5 60,32.5 M 0,12.5 C 4,12.5 7.5,16 7.5,20 7.5,24.3 4,27.5 0,27.5 M 27.5,20 c 0,4 -3.5,7.5 -7.5,7.5 -4,0 -7.5,-3.5 -7.5,-7.5 0,-4.3 3.5,-7.5 7.5,-7.5 4,0 7.5,3 7.5,7.5 z m 20,0 c 0,4 -3.5,7.5 -7.5,7.5 -4,0 -7.5,-3.5 -7.5,-7.5 0,-4.3 3.5,-7.5 7.5,-7.5 4,0 7.5,3 7.5,7.5 z M 60,27.5 C 56,27.5 52.5,24 52.5,20 52.5,15.7 56,12.5 60,12.5 M 12.5,60 c 0,-4.3 3.5,-7.5 7.5,-7.5 4,0 7.5,3 7.5,7.5 M 7.5,47.5 0,40 7.5,32.5 M 12.5,7.48 20,-0.024 27.5,7.5 m 5,45 7.5,7.5 7.5,-7.5 m -20,-5 -15,-15 m -5,-5 L 0,20 7.5,12.5 m 20,40 L 20,60 12.5,52.5 m 20,-5 15,-15 m 5,-5 L 60,20 52.5,12.5 M 7.5,52.5 0,60 m 27.5,-27.5 -15,15 m 35,-35 -15,15 M 60,-0.024 52.5,7.48 m -5,0 L 40,-0.024 32.5,7.5 m 0,5 15,15 m 5,5 7.5,7.5 -7.5,7.5 m -40,-20 15,-15 m -20,15 5,0 0,5 -5,0 z m 20,0 5,0 0,5 -5,0 z m 20,0 5,0 0,5 -5,0 z m 0,-20 5,0 0,5 -5,0 z m -20,0 5,0 0,5 -5,0 z m -20,0 5,0 0,5 -5,0 z m 0,40 5,0 0,5 -5,0 z m 20,0 5,0 0,5 -5,0 z m 20,0 5,0 0,5 -5,0 z m 5,5 7.5,7.5 m -27.5,-27.5 15,15 m -35,-35 15,15 M 0,-0.024 7.5,7.48" style="fill:none;stroke:hsl(79, 100%, 38%);stroke-width:0.5;stroke-linecap:square" />
      </svg>

      <svg x="777.7" y="0" viewBox="0 0 60 60" width="70.7" height="70.7">
        <path d="M 7.5,60 C 7.5,55.7 4,52.5 0,52.5 m 60,0 c -4,0 -7.5,3 -7.5,7.5 M 7.5,0 C 7.5,4.3 4,7.5 0,7.5 m 60,0 c -4,0 -7.5,-3 -7.5,-7.5 m -25,0 C 27.5,4.3 24,7.5 20,7.5 16,7.5 12.5,4.5 12.5,0 m 35,0 C 47.5,4.3 44,7.5 40,7.5 36,7.5 32.5,4.5 32.5,0 m 0,60 c 0,-4.3 3.5,-7.5 7.5,-7.5 4,0 7.5,3 7.5,7.5 M 0,32.5 C 4,32.5 7.5,36 7.5,40 7.5,44.3 4,47.5 0,47.5 M 27.5,40 c 0,4 -3.5,7.5 -7.5,7.5 -4,0 -7.5,-3.5 -7.5,-7.5 0,-4.3 3.5,-7.5 7.5,-7.5 4,0 7.5,3 7.5,7.5 z m 20,0 c 0,4 -3.5,7.5 -7.5,7.5 -4,0 -7.5,-3.5 -7.5,-7.5 0,-4.3 3.5,-7.5 7.5,-7.5 4,0 7.5,3 7.5,7.5 z M 60,47.5 C 56,47.5 52.5,44 52.5,40 52.5,35.7 56,32.5 60,32.5 M 0,12.5 C 4,12.5 7.5,16 7.5,20 7.5,24.3 4,27.5 0,27.5 M 27.5,20 c 0,4 -3.5,7.5 -7.5,7.5 -4,0 -7.5,-3.5 -7.5,-7.5 0,-4.3 3.5,-7.5 7.5,-7.5 4,0 7.5,3 7.5,7.5 z m 20,0 c 0,4 -3.5,7.5 -7.5,7.5 -4,0 -7.5,-3.5 -7.5,-7.5 0,-4.3 3.5,-7.5 7.5,-7.5 4,0 7.5,3 7.5,7.5 z M 60,27.5 C 56,27.5 52.5,24 52.5,20 52.5,15.7 56,12.5 60,12.5 M 12.5,60 c 0,-4.3 3.5,-7.5 7.5,-7.5 4,0 7.5,3 7.5,7.5 M 7.5,47.5 0,40 7.5,32.5 M 12.5,7.48 20,-0.024 27.5,7.5 m 5,45 7.5,7.5 7.5,-7.5 m -20,-5 -15,-15 m -5,-5 L 0,20 7.5,12.5 m 20,40 L 20,60 12.5,52.5 m 20,-5 15,-15 m 5,-5 L 60,20 52.5,12.5 M 7.5,52.5 0,60 m 27.5,-27.5 -15,15 m 35,-35 -15,15 M 60,-0.024 52.5,7.48 m -5,0 L 40,-0.024 32.5,7.5 m 0,5 15,15 m 5,5 7.5,7.5 -7.5,7.5 m -40,-20 15,-15 m -20,15 5,0 0,5 -5,0 z m 20,0 5,0 0,5 -5,0 z m 20,0 5,0 0,5 -5,0 z m 0,-20 5,0 0,5 -5,0 z m -20,0 5,0 0,5 -5,0 z m -20,0 5,0 0,5 -5,0 z m 0,40 5,0 0,5 -5,0 z m 20,0 5,0 0,5 -5,0 z m 20,0 5,0 0,5 -5,0 z m 5,5 7.5,7.5 m -27.5,-27.5 15,15 m -35,-35 15,15 M 0,-0.024 7.5,7.48" style="fill:none;stroke:hsl(79, 100%, 38%);stroke-width:0.5;stroke-linecap:square" />
      </svg>

      <svg x="848.4" y="0" viewBox="0 0 60 60" width="70.7" height="70.7">
        <path d="M 7.5,60 C 7.5,55.7 4,52.5 0,52.5 m 60,0 c -4,0 -7.5,3 -7.5,7.5 M 7.5,0 C 7.5,4.3 4,7.5 0,7.5 m 60,0 c -4,0 -7.5,-3 -7.5,-7.5 m -25,0 C 27.5,4.3 24,7.5 20,7.5 16,7.5 12.5,4.5 12.5,0 m 35,0 C 47.5,4.3 44,7.5 40,7.5 36,7.5 32.5,4.5 32.5,0 m 0,60 c 0,-4.3 3.5,-7.5 7.5,-7.5 4,0 7.5,3 7.5,7.5 M 0,32.5 C 4,32.5 7.5,36 7.5,40 7.5,44.3 4,47.5 0,47.5 M 27.5,40 c 0,4 -3.5,7.5 -7.5,7.5 -4,0 -7.5,-3.5 -7.5,-7.5 0,-4.3 3.5,-7.5 7.5,-7.5 4,0 7.5,3 7.5,7.5 z m 20,0 c 0,4 -3.5,7.5 -7.5,7.5 -4,0 -7.5,-3.5 -7.5,-7.5 0,-4.3 3.5,-7.5 7.5,-7.5 4,0 7.5,3 7.5,7.5 z M 60,47.5 C 56,47.5 52.5,44 52.5,40 52.5,35.7 56,32.5 60,32.5 M 0,12.5 C 4,12.5 7.5,16 7.5,20 7.5,24.3 4,27.5 0,27.5 M 27.5,20 c 0,4 -3.5,7.5 -7.5,7.5 -4,0 -7.5,-3.5 -7.5,-7.5 0,-4.3 3.5,-7.5 7.5,-7.5 4,0 7.5,3 7.5,7.5 z m 20,0 c 0,4 -3.5,7.5 -7.5,7.5 -4,0 -7.5,-3.5 -7.5,-7.5 0,-4.3 3.5,-7.5 7.5,-7.5 4,0 7.5,3 7.5,7.5 z M 60,27.5 C 56,27.5 52.5,24 52.5,20 52.5,15.7 56,12.5 60,12.5 M 12.5,60 c 0,-4.3 3.5,-7.5 7.5,-7.5 4,0 7.5,3 7.5,7.5 M 7.5,47.5 0,40 7.5,32.5 M 12.5,7.48 20,-0.024 27.5,7.5 m 5,45 7.5,7.5 7.5,-7.5 m -20,-5 -15,-15 m -5,-5 L 0,20 7.5,12.5 m 20,40 L 20,60 12.5,52.5 m 20,-5 15,-15 m 5,-5 L 60,20 52.5,12.5 M 7.5,52.5 0,60 m 27.5,-27.5 -15,15 m 35,-35 -15,15 M 60,-0.024 52.5,7.48 m -5,0 L 40,-0.024 32.5,7.5 m 0,5 15,15 m 5,5 7.5,7.5 -7.5,7.5 m -40,-20 15,-15 m -20,15 5,0 0,5 -5,0 z m 20,0 5,0 0,5 -5,0 z m 20,0 5,0 0,5 -5,0 z m 0,-20 5,0 0,5 -5,0 z m -20,0 5,0 0,5 -5,0 z m -20,0 5,0 0,5 -5,0 z m 0,40 5,0 0,5 -5,0 z m 20,0 5,0 0,5 -5,0 z m 20,0 5,0 0,5 -5,0 z m 5,5 7.5,7.5 m -27.5,-27.5 15,15 m -35,-35 15,15 M 0,-0.024 7.5,7.48" style="fill:none;stroke:hsl(79, 100%, 38%);stroke-width:0.5;stroke-linecap:square" />
      </svg>

      <svg x="919.1" y="0" viewBox="0 0 60 60" width="70.7" height="70.7">
        <path d="M 7.5,60 C 7.5,55.7 4,52.5 0,52.5 m 60,0 c -4,0 -7.5,3 -7.5,7.5 M 7.5,0 C 7.5,4.3 4,7.5 0,7.5 m 60,0 c -4,0 -7.5,-3 -7.5,-7.5 m -25,0 C 27.5,4.3 24,7.5 20,7.5 16,7.5 12.5,4.5 12.5,0 m 35,0 C 47.5,4.3 44,7.5 40,7.5 36,7.5 32.5,4.5 32.5,0 m 0,60 c 0,-4.3 3.5,-7.5 7.5,-7.5 4,0 7.5,3 7.5,7.5 M 0,32.5 C 4,32.5 7.5,36 7.5,40 7.5,44.3 4,47.5 0,47.5 M 27.5,40 c 0,4 -3.5,7.5 -7.5,7.5 -4,0 -7.5,-3.5 -7.5,-7.5 0,-4.3 3.5,-7.5 7.5,-7.5 4,0 7.5,3 7.5,7.5 z m 20,0 c 0,4 -3.5,7.5 -7.5,7.5 -4,0 -7.5,-3.5 -7.5,-7.5 0,-4.3 3.5,-7.5 7.5,-7.5 4,0 7.5,3 7.5,7.5 z M 60,47.5 C 56,47.5 52.5,44 52.5,40 52.5,35.7 56,32.5 60,32.5 M 0,12.5 C 4,12.5 7.5,16 7.5,20 7.5,24.3 4,27.5 0,27.5 M 27.5,20 c 0,4 -3.5,7.5 -7.5,7.5 -4,0 -7.5,-3.5 -7.5,-7.5 0,-4.3 3.5,-7.5 7.5,-7.5 4,0 7.5,3 7.5,7.5 z m 20,0 c 0,4 -3.5,7.5 -7.5,7.5 -4,0 -7.5,-3.5 -7.5,-7.5 0,-4.3 3.5,-7.5 7.5,-7.5 4,0 7.5,3 7.5,7.5 z M 60,27.5 C 56,27.5 52.5,24 52.5,20 52.5,15.7 56,12.5 60,12.5 M 12.5,60 c 0,-4.3 3.5,-7.5 7.5,-7.5 4,0 7.5,3 7.5,7.5 M 7.5,47.5 0,40 7.5,32.5 M 12.5,7.48 20,-0.024 27.5,7.5 m 5,45 7.5,7.5 7.5,-7.5 m -20,-5 -15,-15 m -5,-5 L 0,20 7.5,12.5 m 20,40 L 20,60 12.5,52.5 m 20,-5 15,-15 m 5,-5 L 60,20 52.5,12.5 M 7.5,52.5 0,60 m 27.5,-27.5 -15,15 m 35,-35 -15,15 M 60,-0.024 52.5,7.48 m -5,0 L 40,-0.024 32.5,7.5 m 0,5 15,15 m 5,5 7.5,7.5 -7.5,7.5 m -40,-20 15,-15 m -20,15 5,0 0,5 -5,0 z m 20,0 5,0 0,5 -5,0 z m 20,0 5,0 0,5 -5,0 z m 0,-20 5,0 0,5 -5,0 z m -20,0 5,0 0,5 -5,0 z m -20,0 5,0 0,5 -5,0 z m 0,40 5,0 0,5 -5,0 z m 20,0 5,0 0,5 -5,0 z m 20,0 5,0 0,5 -5,0 z m 5,5 7.5,7.5 m -27.5,-27.5 15,15 m -35,-35 15,15 M 0,-0.024 7.5,7.48" style="fill:none;stroke:hsl(79, 100%, 38%);stroke-width:0.5;stroke-linecap:square" />
      </svg>

      <svg x="989.8" y="0" viewBox="0 0 60 60" width="70.7" height="70.7">
        <path d="M 7.5,60 C 7.5,55.7 4,52.5 0,52.5 m 60,0 c -4,0 -7.5,3 -7.5,7.5 M 7.5,0 C 7.5,4.3 4,7.5 0,7.5 m 60,0 c -4,0 -7.5,-3 -7.5,-7.5 m -25,0 C 27.5,4.3 24,7.5 20,7.5 16,7.5 12.5,4.5 12.5,0 m 35,0 C 47.5,4.3 44,7.5 40,7.5 36,7.5 32.5,4.5 32.5,0 m 0,60 c 0,-4.3 3.5,-7.5 7.5,-7.5 4,0 7.5,3 7.5,7.5 M 0,32.5 C 4,32.5 7.5,36 7.5,40 7.5,44.3 4,47.5 0,47.5 M 27.5,40 c 0,4 -3.5,7.5 -7.5,7.5 -4,0 -7.5,-3.5 -7.5,-7.5 0,-4.3 3.5,-7.5 7.5,-7.5 4,0 7.5,3 7.5,7.5 z m 20,0 c 0,4 -3.5,7.5 -7.5,7.5 -4,0 -7.5,-3.5 -7.5,-7.5 0,-4.3 3.5,-7.5 7.5,-7.5 4,0 7.5,3 7.5,7.5 z M 60,47.5 C 56,47.5 52.5,44 52.5,40 52.5,35.7 56,32.5 60,32.5 M 0,12.5 C 4,12.5 7.5,16 7.5,20 7.5,24.3 4,27.5 0,27.5 M 27.5,20 c 0,4 -3.5,7.5 -7.5,7.5 -4,0 -7.5,-3.5 -7.5,-7.5 0,-4.3 3.5,-7.5 7.5,-7.5 4,0 7.5,3 7.5,7.5 z m 20,0 c 0,4 -3.5,7.5 -7.5,7.5 -4,0 -7.5,-3.5 -7.5,-7.5 0,-4.3 3.5,-7.5 7.5,-7.5 4,0 7.5,3 7.5,7.5 z M 60,27.5 C 56,27.5 52.5,24 52.5,20 52.5,15.7 56,12.5 60,12.5 M 12.5,60 c 0,-4.3 3.5,-7.5 7.5,-7.5 4,0 7.5,3 7.5,7.5 M 7.5,47.5 0,40 7.5,32.5 M 12.5,7.48 20,-0.024 27.5,7.5 m 5,45 7.5,7.5 7.5,-7.5 m -20,-5 -15,-15 m -5,-5 L 0,20 7.5,12.5 m 20,40 L 20,60 12.5,52.5 m 20,-5 15,-15 m 5,-5 L 60,20 52.5,12.5 M 7.5,52.5 0,60 m 27.5,-27.5 -15,15 m 35,-35 -15,15 M 60,-0.024 52.5,7.48 m -5,0 L 40,-0.024 32.5,7.5 m 0,5 15,15 m 5,5 7.5,7.5 -7.5,7.5 m -40,-20 15,-15 m -20,15 5,0 0,5 -5,0 z m 20,0 5,0 0,5 -5,0 z m 20,0 5,0 0,5 -5,0 z m 0,-20 5,0 0,5 -5,0 z m -20,0 5,0 0,5 -5,0 z m -20,0 5,0 0,5 -5,0 z m 0,40 5,0 0,5 -5,0 z m 20,0 5,0 0,5 -5,0 z m 20,0 5,0 0,5 -5,0 z m 5,5 7.5,7.5 m -27.5,-27.5 15,15 m -35,-35 15,15 M 0,-0.024 7.5,7.48" style="fill:none;stroke:hsl(79, 100%, 38%);stroke-width:0.5;stroke-linecap:square" />
      </svg>

      <svg x="1060.5" y="0" viewBox="0 0 60 60" width="70.7" height="70.7">
        <path d="M 7.5,60 C 7.5,55.7 4,52.5 0,52.5 m 60,0 c -4,0 -7.5,3 -7.5,7.5 M 7.5,0 C 7.5,4.3 4,7.5 0,7.5 m 60,0 c -4,0 -7.5,-3 -7.5,-7.5 m -25,0 C 27.5,4.3 24,7.5 20,7.5 16,7.5 12.5,4.5 12.5,0 m 35,0 C 47.5,4.3 44,7.5 40,7.5 36,7.5 32.5,4.5 32.5,0 m 0,60 c 0,-4.3 3.5,-7.5 7.5,-7.5 4,0 7.5,3 7.5,7.5 M 0,32.5 C 4,32.5 7.5,36 7.5,40 7.5,44.3 4,47.5 0,47.5 M 27.5,40 c 0,4 -3.5,7.5 -7.5,7.5 -4,0 -7.5,-3.5 -7.5,-7.5 0,-4.3 3.5,-7.5 7.5,-7.5 4,0 7.5,3 7.5,7.5 z m 20,0 c 0,4 -3.5,7.5 -7.5,7.5 -4,0 -7.5,-3.5 -7.5,-7.5 0,-4.3 3.5,-7.5 7.5,-7.5 4,0 7.5,3 7.5,7.5 z M 60,47.5 C 56,47.5 52.5,44 52.5,40 52.5,35.7 56,32.5 60,32.5 M 0,12.5 C 4,12.5 7.5,16 7.5,20 7.5,24.3 4,27.5 0,27.5 M 27.5,20 c 0,4 -3.5,7.5 -7.5,7.5 -4,0 -7.5,-3.5 -7.5,-7.5 0,-4.3 3.5,-7.5 7.5,-7.5 4,0 7.5,3 7.5,7.5 z m 20,0 c 0,4 -3.5,7.5 -7.5,7.5 -4,0 -7.5,-3.5 -7.5,-7.5 0,-4.3 3.5,-7.5 7.5,-7.5 4,0 7.5,3 7.5,7.5 z M 60,27.5 C 56,27.5 52.5,24 52.5,20 52.5,15.7 56,12.5 60,12.5 M 12.5,60 c 0,-4.3 3.5,-7.5 7.5,-7.5 4,0 7.5,3 7.5,7.5 M 7.5,47.5 0,40 7.5,32.5 M 12.5,7.48 20,-0.024 27.5,7.5 m 5,45 7.5,7.5 7.5,-7.5 m -20,-5 -15,-15 m -5,-5 L 0,20 7.5,12.5 m 20,40 L 20,60 12.5,52.5 m 20,-5 15,-15 m 5,-5 L 60,20 52.5,12.5 M 7.5,52.5 0,60 m 27.5,-27.5 -15,15 m 35,-35 -15,15 M 60,-0.024 52.5,7.48 m -5,0 L 40,-0.024 32.5,7.5 m 0,5 15,15 m 5,5 7.5,7.5 -7.5,7.5 m -40,-20 15,-15 m -20,15 5,0 0,5 -5,0 z m 20,0 5,0 0,5 -5,0 z m 20,0 5,0 0,5 -5,0 z m 0,-20 5,0 0,5 -5,0 z m -20,0 5,0 0,5 -5,0 z m -20,0 5,0 0,5 -5,0 z m 0,40 5,0 0,5 -5,0 z m 20,0 5,0 0,5 -5,0 z m 20,0 5,0 0,5 -5,0 z m 5,5 7.5,7.5 m -27.5,-27.5 15,15 m -35,-35 15,15 M 0,-0.024 7.5,7.48" style="fill:none;stroke:hsl(79, 100%, 38%);stroke-width:0.5;stroke-linecap:square" />
      </svg>

      <svg x="1131.2" y="0" viewBox="0 0 60 60" width="70.7" height="70.7">
        <path d="M 7.5,60 C 7.5,55.7 4,52.5 0,52.5 m 60,0 c -4,0 -7.5,3 -7.5,7.5 M 7.5,0 C 7.5,4.3 4,7.5 0,7.5 m 60,0 c -4,0 -7.5,-3 -7.5,-7.5 m -25,0 C 27.5,4.3 24,7.5 20,7.5 16,7.5 12.5,4.5 12.5,0 m 35,0 C 47.5,4.3 44,7.5 40,7.5 36,7.5 32.5,4.5 32.5,0 m 0,60 c 0,-4.3 3.5,-7.5 7.5,-7.5 4,0 7.5,3 7.5,7.5 M 0,32.5 C 4,32.5 7.5,36 7.5,40 7.5,44.3 4,47.5 0,47.5 M 27.5,40 c 0,4 -3.5,7.5 -7.5,7.5 -4,0 -7.5,-3.5 -7.5,-7.5 0,-4.3 3.5,-7.5 7.5,-7.5 4,0 7.5,3 7.5,7.5 z m 20,0 c 0,4 -3.5,7.5 -7.5,7.5 -4,0 -7.5,-3.5 -7.5,-7.5 0,-4.3 3.5,-7.5 7.5,-7.5 4,0 7.5,3 7.5,7.5 z M 60,47.5 C 56,47.5 52.5,44 52.5,40 52.5,35.7 56,32.5 60,32.5 M 0,12.5 C 4,12.5 7.5,16 7.5,20 7.5,24.3 4,27.5 0,27.5 M 27.5,20 c 0,4 -3.5,7.5 -7.5,7.5 -4,0 -7.5,-3.5 -7.5,-7.5 0,-4.3 3.5,-7.5 7.5,-7.5 4,0 7.5,3 7.5,7.5 z m 20,0 c 0,4 -3.5,7.5 -7.5,7.5 -4,0 -7.5,-3.5 -7.5,-7.5 0,-4.3 3.5,-7.5 7.5,-7.5 4,0 7.5,3 7.5,7.5 z M 60,27.5 C 56,27.5 52.5,24 52.5,20 52.5,15.7 56,12.5 60,12.5 M 12.5,60 c 0,-4.3 3.5,-7.5 7.5,-7.5 4,0 7.5,3 7.5,7.5 M 7.5,47.5 0,40 7.5,32.5 M 12.5,7.48 20,-0.024 27.5,7.5 m 5,45 7.5,7.5 7.5,-7.5 m -20,-5 -15,-15 m -5,-5 L 0,20 7.5,12.5 m 20,40 L 20,60 12.5,52.5 m 20,-5 15,-15 m 5,-5 L 60,20 52.5,12.5 M 7.5,52.5 0,60 m 27.5,-27.5 -15,15 m 35,-35 -15,15 M 60,-0.024 52.5,7.48 m -5,0 L 40,-0.024 32.5,7.5 m 0,5 15,15 m 5,5 7.5,7.5 -7.5,7.5 m -40,-20 15,-15 m -20,15 5,0 0,5 -5,0 z m 20,0 5,0 0,5 -5,0 z m 20,0 5,0 0,5 -5,0 z m 0,-20 5,0 0,5 -5,0 z m -20,0 5,0 0,5 -5,0 z m -20,0 5,0 0,5 -5,0 z m 0,40 5,0 0,5 -5,0 z m 20,0 5,0 0,5 -5,0 z m 20,0 5,0 0,5 -5,0 z m 5,5 7.5,7.5 m -27.5,-27.5 15,15 m -35,-35 15,15 M 0,-0.024 7.5,7.48" style="fill:none;stroke:hsl(79, 100%, 38%);stroke-width:0.5;stroke-linecap:square" />
      </svg>

      <svg x="1201.9" y="0" viewBox="0 0 60 60" width="70.7" height="70.7">
        <path d="M 7.5,60 C 7.5,55.7 4,52.5 0,52.5 m 60,0 c -4,0 -7.5,3 -7.5,7.5 M 7.5,0 C 7.5,4.3 4,7.5 0,7.5 m 60,0 c -4,0 -7.5,-3 -7.5,-7.5 m -25,0 C 27.5,4.3 24,7.5 20,7.5 16,7.5 12.5,4.5 12.5,0 m 35,0 C 47.5,4.3 44,7.5 40,7.5 36,7.5 32.5,4.5 32.5,0 m 0,60 c 0,-4.3 3.5,-7.5 7.5,-7.5 4,0 7.5,3 7.5,7.5 M 0,32.5 C 4,32.5 7.5,36 7.5,40 7.5,44.3 4,47.5 0,47.5 M 27.5,40 c 0,4 -3.5,7.5 -7.5,7.5 -4,0 -7.5,-3.5 -7.5,-7.5 0,-4.3 3.5,-7.5 7.5,-7.5 4,0 7.5,3 7.5,7.5 z m 20,0 c 0,4 -3.5,7.5 -7.5,7.5 -4,0 -7.5,-3.5 -7.5,-7.5 0,-4.3 3.5,-7.5 7.5,-7.5 4,0 7.5,3 7.5,7.5 z M 60,47.5 C 56,47.5 52.5,44 52.5,40 52.5,35.7 56,32.5 60,32.5 M 0,12.5 C 4,12.5 7.5,16 7.5,20 7.5,24.3 4,27.5 0,27.5 M 27.5,20 c 0,4 -3.5,7.5 -7.5,7.5 -4,0 -7.5,-3.5 -7.5,-7.5 0,-4.3 3.5,-7.5 7.5,-7.5 4,0 7.5,3 7.5,7.5 z m 20,0 c 0,4 -3.5,7.5 -7.5,7.5 -4,0 -7.5,-3.5 -7.5,-7.5 0,-4.3 3.5,-7.5 7.5,-7.5 4,0 7.5,3 7.5,7.5 z M 60,27.5 C 56,27.5 52.5,24 52.5,20 52.5,15.7 56,12.5 60,12.5 M 12.5,60 c 0,-4.3 3.5,-7.5 7.5,-7.5 4,0 7.5,3 7.5,7.5 M 7.5,47.5 0,40 7.5,32.5 M 12.5,7.48 20,-0.024 27.5,7.5 m 5,45 7.5,7.5 7.5,-7.5 m -20,-5 -15,-15 m -5,-5 L 0,20 7.5,12.5 m 20,40 L 20,60 12.5,52.5 m 20,-5 15,-15 m 5,-5 L 60,20 52.5,12.5 M 7.5,52.5 0,60 m 27.5,-27.5 -15,15 m 35,-35 -15,15 M 60,-0.024 52.5,7.48 m -5,0 L 40,-0.024 32.5,7.5 m 0,5 15,15 m 5,5 7.5,7.5 -7.5,7.5 m -40,-20 15,-15 m -20,15 5,0 0,5 -5,0 z m 20,0 5,0 0,5 -5,0 z m 20,0 5,0 0,5 -5,0 z m 0,-20 5,0 0,5 -5,0 z m -20,0 5,0 0,5 -5,0 z m -20,0 5,0 0,5 -5,0 z m 0,40 5,0 0,5 -5,0 z m 20,0 5,0 0,5 -5,0 z m 20,0 5,0 0,5 -5,0 z m 5,5 7.5,7.5 m -27.5,-27.5 15,15 m -35,-35 15,15 M 0,-0.024 7.5,7.48" style="fill:none;stroke:hsl(79, 100%, 38%);stroke-width:0.5;stroke-linecap:square" />
      </svg>

      <svg x="1272.6" y="0" viewBox="0 0 60 60" width="70.7" height="70.7">
        <path d="M 7.5,60 C 7.5,55.7 4,52.5 0,52.5 m 60,0 c -4,0 -7.5,3 -7.5,7.5 M 7.5,0 C 7.5,4.3 4,7.5 0,7.5 m 60,0 c -4,0 -7.5,-3 -7.5,-7.5 m -25,0 C 27.5,4.3 24,7.5 20,7.5 16,7.5 12.5,4.5 12.5,0 m 35,0 C 47.5,4.3 44,7.5 40,7.5 36,7.5 32.5,4.5 32.5,0 m 0,60 c 0,-4.3 3.5,-7.5 7.5,-7.5 4,0 7.5,3 7.5,7.5 M 0,32.5 C 4,32.5 7.5,36 7.5,40 7.5,44.3 4,47.5 0,47.5 M 27.5,40 c 0,4 -3.5,7.5 -7.5,7.5 -4,0 -7.5,-3.5 -7.5,-7.5 0,-4.3 3.5,-7.5 7.5,-7.5 4,0 7.5,3 7.5,7.5 z m 20,0 c 0,4 -3.5,7.5 -7.5,7.5 -4,0 -7.5,-3.5 -7.5,-7.5 0,-4.3 3.5,-7.5 7.5,-7.5 4,0 7.5,3 7.5,7.5 z M 60,47.5 C 56,47.5 52.5,44 52.5,40 52.5,35.7 56,32.5 60,32.5 M 0,12.5 C 4,12.5 7.5,16 7.5,20 7.5,24.3 4,27.5 0,27.5 M 27.5,20 c 0,4 -3.5,7.5 -7.5,7.5 -4,0 -7.5,-3.5 -7.5,-7.5 0,-4.3 3.5,-7.5 7.5,-7.5 4,0 7.5,3 7.5,7.5 z m 20,0 c 0,4 -3.5,7.5 -7.5,7.5 -4,0 -7.5,-3.5 -7.5,-7.5 0,-4.3 3.5,-7.5 7.5,-7.5 4,0 7.5,3 7.5,7.5 z M 60,27.5 C 56,27.5 52.5,24 52.5,20 52.5,15.7 56,12.5 60,12.5 M 12.5,60 c 0,-4.3 3.5,-7.5 7.5,-7.5 4,0 7.5,3 7.5,7.5 M 7.5,47.5 0,40 7.5,32.5 M 12.5,7.48 20,-0.024 27.5,7.5 m 5,45 7.5,7.5 7.5,-7.5 m -20,-5 -15,-15 m -5,-5 L 0,20 7.5,12.5 m 20,40 L 20,60 12.5,52.5 m 20,-5 15,-15 m 5,-5 L 60,20 52.5,12.5 M 7.5,52.5 0,60 m 27.5,-27.5 -15,15 m 35,-35 -15,15 M 60,-0.024 52.5,7.48 m -5,0 L 40,-0.024 32.5,7.5 m 0,5 15,15 m 5,5 7.5,7.5 -7.5,7.5 m -40,-20 15,-15 m -20,15 5,0 0,5 -5,0 z m 20,0 5,0 0,5 -5,0 z m 20,0 5,0 0,5 -5,0 z m 0,-20 5,0 0,5 -5,0 z m -20,0 5,0 0,5 -5,0 z m -20,0 5,0 0,5 -5,0 z m 0,40 5,0 0,5 -5,0 z m 20,0 5,0 0,5 -5,0 z m 20,0 5,0 0,5 -5,0 z m 5,5 7.5,7.5 m -27.5,-27.5 15,15 m -35,-35 15,15 M 0,-0.024 7.5,7.48" style="fill:none;stroke:hsl(79, 100%, 38%);stroke-width:0.5;stroke-linecap:square" />
      </svg>

      <svg x="1343.3" y="0" viewBox="0 0 60 60" width="70.7" height="70.7">
        <path d="M 7.5,60 C 7.5,55.7 4,52.5 0,52.5 m 60,0 c -4,0 -7.5,3 -7.5,7.5 M 7.5,0 C 7.5,4.3 4,7.5 0,7.5 m 60,0 c -4,0 -7.5,-3 -7.5,-7.5 m -25,0 C 27.5,4.3 24,7.5 20,7.5 16,7.5 12.5,4.5 12.5,0 m 35,0 C 47.5,4.3 44,7.5 40,7.5 36,7.5 32.5,4.5 32.5,0 m 0,60 c 0,-4.3 3.5,-7.5 7.5,-7.5 4,0 7.5,3 7.5,7.5 M 0,32.5 C 4,32.5 7.5,36 7.5,40 7.5,44.3 4,47.5 0,47.5 M 27.5,40 c 0,4 -3.5,7.5 -7.5,7.5 -4,0 -7.5,-3.5 -7.5,-7.5 0,-4.3 3.5,-7.5 7.5,-7.5 4,0 7.5,3 7.5,7.5 z m 20,0 c 0,4 -3.5,7.5 -7.5,7.5 -4,0 -7.5,-3.5 -7.5,-7.5 0,-4.3 3.5,-7.5 7.5,-7.5 4,0 7.5,3 7.5,7.5 z M 60,47.5 C 56,47.5 52.5,44 52.5,40 52.5,35.7 56,32.5 60,32.5 M 0,12.5 C 4,12.5 7.5,16 7.5,20 7.5,24.3 4,27.5 0,27.5 M 27.5,20 c 0,4 -3.5,7.5 -7.5,7.5 -4,0 -7.5,-3.5 -7.5,-7.5 0,-4.3 3.5,-7.5 7.5,-7.5 4,0 7.5,3 7.5,7.5 z m 20,0 c 0,4 -3.5,7.5 -7.5,7.5 -4,0 -7.5,-3.5 -7.5,-7.5 0,-4.3 3.5,-7.5 7.5,-7.5 4,0 7.5,3 7.5,7.5 z M 60,27.5 C 56,27.5 52.5,24 52.5,20 52.5,15.7 56,12.5 60,12.5 M 12.5,60 c 0,-4.3 3.5,-7.5 7.5,-7.5 4,0 7.5,3 7.5,7.5 M 7.5,47.5 0,40 7.5,32.5 M 12.5,7.48 20,-0.024 27.5,7.5 m 5,45 7.5,7.5 7.5,-7.5 m -20,-5 -15,-15 m -5,-5 L 0,20 7.5,12.5 m 20,40 L 20,60 12.5,52.5 m 20,-5 15,-15 m 5,-5 L 60,20 52.5,12.5 M 7.5,52.5 0,60 m 27.5,-27.5 -15,15 m 35,-35 -15,15 M 60,-0.024 52.5,7.48 m -5,0 L 40,-0.024 32.5,7.5 m 0,5 15,15 m 5,5 7.5,7.5 -7.5,7.5 m -40,-20 15,-15 m -20,15 5,0 0,5 -5,0 z m 20,0 5,0 0,5 -5,0 z m 20,0 5,0 0,5 -5,0 z m 0,-20 5,0 0,5 -5,0 z m -20,0 5,0 0,5 -5,0 z m -20,0 5,0 0,5 -5,0 z m 0,40 5,0 0,5 -5,0 z m 20,0 5,0 0,5 -5,0 z m 20,0 5,0 0,5 -5,0 z m 5,5 7.5,7.5 m -27.5,-27.5 15,15 m -35,-35 15,15 M 0,-0.024 7.5,7.48" style="fill:none;stroke:hsl(79, 100%, 38%);stroke-width:0.5;stroke-linecap:square" />
      </svg>

      <svg x="1414.0" y="0" viewBox="0 0 60 60" width="70.7" height="70.7">
        <path d="M 7.5,60 C 7.5,55.7 4,52.5 0,52.5 m 60,0 c -4,0 -7.5,3 -7.5,7.5 M 7.5,0 C 7.5,4.3 4,7.5 0,7.5 m 60,0 c -4,0 -7.5,-3 -7.5,-7.5 m -25,0 C 27.5,4.3 24,7.5 20,7.5 16,7.5 12.5,4.5 12.5,0 m 35,0 C 47.5,4.3 44,7.5 40,7.5 36,7.5 32.5,4.5 32.5,0 m 0,60 c 0,-4.3 3.5,-7.5 7.5,-7.5 4,0 7.5,3 7.5,7.5 M 0,32.5 C 4,32.5 7.5,36 7.5,40 7.5,44.3 4,47.5 0,47.5 M 27.5,40 c 0,4 -3.5,7.5 -7.5,7.5 -4,0 -7.5,-3.5 -7.5,-7.5 0,-4.3 3.5,-7.5 7.5,-7.5 4,0 7.5,3 7.5,7.5 z m 20,0 c 0,4 -3.5,7.5 -7.5,7.5 -4,0 -7.5,-3.5 -7.5,-7.5 0,-4.3 3.5,-7.5 7.5,-7.5 4,0 7.5,3 7.5,7.5 z M 60,47.5 C 56,47.5 52.5,44 52.5,40 52.5,35.7 56,32.5 60,32.5 M 0,12.5 C 4,12.5 7.5,16 7.5,20 7.5,24.3 4,27.5 0,27.5 M 27.5,20 c 0,4 -3.5,7.5 -7.5,7.5 -4,0 -7.5,-3.5 -7.5,-7.5 0,-4.3 3.5,-7.5 7.5,-7.5 4,0 7.5,3 7.5,7.5 z m 20,0 c 0,4 -3.5,7.5 -7.5,7.5 -4,0 -7.5,-3.5 -7.5,-7.5 0,-4.3 3.5,-7.5 7.5,-7.5 4,0 7.5,3 7.5,7.5 z M 60,27.5 C 56,27.5 52.5,24 52.5,20 52.5,15.7 56,12.5 60,12.5 M 12.5,60 c 0,-4.3 3.5,-7.5 7.5,-7.5 4,0 7.5,3 7.5,7.5 M 7.5,47.5 0,40 7.5,32.5 M 12.5,7.48 20,-0.024 27.5,7.5 m 5,45 7.5,7.5 7.5,-7.5 m -20,-5 -15,-15 m -5,-5 L 0,20 7.5,12.5 m 20,40 L 20,60 12.5,52.5 m 20,-5 15,-15 m 5,-5 L 60,20 52.5,12.5 M 7.5,52.5 0,60 m 27.5,-27.5 -15,15 m 35,-35 -15,15 M 60,-0.024 52.5,7.48 m -5,0 L 40,-0.024 32.5,7.5 m 0,5 15,15 m 5,5 7.5,7.5 -7.5,7.5 m -40,-20 15,-15 m -20,15 5,0 0,5 -5,0 z m 20,0 5,0 0,5 -5,0 z m 20,0 5,0 0,5 -5,0 z m 0,-20 5,0 0,5 -5,0 z m -20,0 5,0 0,5 -5,0 z m -20,0 5,0 0,5 -5,0 z m 0,40 5,0 0,5 -5,0 z m 20,0 5,0 0,5 -5,0 z m 20,0 5,0 0,5 -5,0 z m 5,5 7.5,7.5 m -27.5,-27.5 15,15 m -35,-35 15,15 M 0,-0.024 7.5,7.48" style="fill:none;stroke:hsl(79, 100%, 38%);stroke-width:0.5;stroke-linecap:square" />
      </svg>

      <svg x="1484.7" y="0" viewBox="0 0 60 60" width="70.7" height="70.7">
        <path d="M 7.5,60 C 7.5,55.7 4,52.5 0,52.5 m 60,0 c -4,0 -7.5,3 -7.5,7.5 M 7.5,0 C 7.5,4.3 4,7.5 0,7.5 m 60,0 c -4,0 -7.5,-3 -7.5,-7.5 m -25,0 C 27.5,4.3 24,7.5 20,7.5 16,7.5 12.5,4.5 12.5,0 m 35,0 C 47.5,4.3 44,7.5 40,7.5 36,7.5 32.5,4.5 32.5,0 m 0,60 c 0,-4.3 3.5,-7.5 7.5,-7.5 4,0 7.5,3 7.5,7.5 M 0,32.5 C 4,32.5 7.5,36 7.5,40 7.5,44.3 4,47.5 0,47.5 M 27.5,40 c 0,4 -3.5,7.5 -7.5,7.5 -4,0 -7.5,-3.5 -7.5,-7.5 0,-4.3 3.5,-7.5 7.5,-7.5 4,0 7.5,3 7.5,7.5 z m 20,0 c 0,4 -3.5,7.5 -7.5,7.5 -4,0 -7.5,-3.5 -7.5,-7.5 0,-4.3 3.5,-7.5 7.5,-7.5 4,0 7.5,3 7.5,7.5 z M 60,47.5 C 56,47.5 52.5,44 52.5,40 52.5,35.7 56,32.5 60,32.5 M 0,12.5 C 4,12.5 7.5,16 7.5,20 7.5,24.3 4,27.5 0,27.5 M 27.5,20 c 0,4 -3.5,7.5 -7.5,7.5 -4,0 -7.5,-3.5 -7.5,-7.5 0,-4.3 3.5,-7.5 7.5,-7.5 4,0 7.5,3 7.5,7.5 z m 20,0 c 0,4 -3.5,7.5 -7.5,7.5 -4,0 -7.5,-3.5 -7.5,-7.5 0,-4.3 3.5,-7.5 7.5,-7.5 4,0 7.5,3 7.5,7.5 z M 60,27.5 C 56,27.5 52.5,24 52.5,20 52.5,15.7 56,12.5 60,12.5 M 12.5,60 c 0,-4.3 3.5,-7.5 7.5,-7.5 4,0 7.5,3 7.5,7.5 M 7.5,47.5 0,40 7.5,32.5 M 12.5,7.48 20,-0.024 27.5,7.5 m 5,45 7.5,7.5 7.5,-7.5 m -20,-5 -15,-15 m -5,-5 L 0,20 7.5,12.5 m 20,40 L 20,60 12.5,52.5 m 20,-5 15,-15 m 5,-5 L 60,20 52.5,12.5 M 7.5,52.5 0,60 m 27.5,-27.5 -15,15 m 35,-35 -15,15 M 60,-0.024 52.5,7.48 m -5,0 L 40,-0.024 32.5,7.5 m 0,5 15,15 m 5,5 7.5,7.5 -7.5,7.5 m -40,-20 15,-15 m -20,15 5,0 0,5 -5,0 z m 20,0 5,0 0,5 -5,0 z m 20,0 5,0 0,5 -5,0 z m 0,-20 5,0 0,5 -5,0 z m -20,0 5,0 0,5 -5,0 z m -20,0 5,0 0,5 -5,0 z m 0,40 5,0 0,5 -5,0 z m 20,0 5,0 0,5 -5,0 z m 20,0 5,0 0,5 -5,0 z m 5,5 7.5,7.5 m -27.5,-27.5 15,15 m -35,-35 15,15 M 0,-0.024 7.5,7.48" style="fill:none;stroke:hsl(79, 100%, 38%);stroke-width:0.5;stroke-linecap:square" />
      </svg>

      <svg x="1555.4" y="0" viewBox="0 0 60 60" width="70.7" height="70.7">
        <path d="M 7.5,60 C 7.5,55.7 4,52.5 0,52.5 m 60,0 c -4,0 -7.5,3 -7.5,7.5 M 7.5,0 C 7.5,4.3 4,7.5 0,7.5 m 60,0 c -4,0 -7.5,-3 -7.5,-7.5 m -25,0 C 27.5,4.3 24,7.5 20,7.5 16,7.5 12.5,4.5 12.5,0 m 35,0 C 47.5,4.3 44,7.5 40,7.5 36,7.5 32.5,4.5 32.5,0 m 0,60 c 0,-4.3 3.5,-7.5 7.5,-7.5 4,0 7.5,3 7.5,7.5 M 0,32.5 C 4,32.5 7.5,36 7.5,40 7.5,44.3 4,47.5 0,47.5 M 27.5,40 c 0,4 -3.5,7.5 -7.5,7.5 -4,0 -7.5,-3.5 -7.5,-7.5 0,-4.3 3.5,-7.5 7.5,-7.5 4,0 7.5,3 7.5,7.5 z m 20,0 c 0,4 -3.5,7.5 -7.5,7.5 -4,0 -7.5,-3.5 -7.5,-7.5 0,-4.3 3.5,-7.5 7.5,-7.5 4,0 7.5,3 7.5,7.5 z M 60,47.5 C 56,47.5 52.5,44 52.5,40 52.5,35.7 56,32.5 60,32.5 M 0,12.5 C 4,12.5 7.5,16 7.5,20 7.5,24.3 4,27.5 0,27.5 M 27.5,20 c 0,4 -3.5,7.5 -7.5,7.5 -4,0 -7.5,-3.5 -7.5,-7.5 0,-4.3 3.5,-7.5 7.5,-7.5 4,0 7.5,3 7.5,7.5 z m 20,0 c 0,4 -3.5,7.5 -7.5,7.5 -4,0 -7.5,-3.5 -7.5,-7.5 0,-4.3 3.5,-7.5 7.5,-7.5 4,0 7.5,3 7.5,7.5 z M 60,27.5 C 56,27.5 52.5,24 52.5,20 52.5,15.7 56,12.5 60,12.5 M 12.5,60 c 0,-4.3 3.5,-7.5 7.5,-7.5 4,0 7.5,3 7.5,7.5 M 7.5,47.5 0,40 7.5,32.5 M 12.5,7.48 20,-0.024 27.5,7.5 m 5,45 7.5,7.5 7.5,-7.5 m -20,-5 -15,-15 m -5,-5 L 0,20 7.5,12.5 m 20,40 L 20,60 12.5,52.5 m 20,-5 15,-15 m 5,-5 L 60,20 52.5,12.5 M 7.5,52.5 0,60 m 27.5,-27.5 -15,15 m 35,-35 -15,15 M 60,-0.024 52.5,7.48 m -5,0 L 40,-0.024 32.5,7.5 m 0,5 15,15 m 5,5 7.5,7.5 -7.5,7.5 m -40,-20 15,-15 m -20,15 5,0 0,5 -5,0 z m 20,0 5,0 0,5 -5,0 z m 20,0 5,0 0,5 -5,0 z m 0,-20 5,0 0,5 -5,0 z m -20,0 5,0 0,5 -5,0 z m -20,0 5,0 0,5 -5,0 z m 0,40 5,0 0,5 -5,0 z m 20,0 5,0 0,5 -5,0 z m 20,0 5,0 0,5 -5,0 z m 5,5 7.5,7.5 m -27.5,-27.5 15,15 m -35,-35 15,15 M 0,-0.024 7.5,7.48" style="fill:none;stroke:hsl(79, 100%, 38%);stroke-width:0.5;stroke-linecap:square" />
      </svg>

      <svg x="1626.1" y="0" viewBox="0 0 60 60" width="70.7" height="70.7">
        <path d="M 7.5,60 C 7.5,55.7 4,52.5 0,52.5 m 60,0 c -4,0 -7.5,3 -7.5,7.5 M 7.5,0 C 7.5,4.3 4,7.5 0,7.5 m 60,0 c -4,0 -7.5,-3 -7.5,-7.5 m -25,0 C 27.5,4.3 24,7.5 20,7.5 16,7.5 12.5,4.5 12.5,0 m 35,0 C 47.5,4.3 44,7.5 40,7.5 36,7.5 32.5,4.5 32.5,0 m 0,60 c 0,-4.3 3.5,-7.5 7.5,-7.5 4,0 7.5,3 7.5,7.5 M 0,32.5 C 4,32.5 7.5,36 7.5,40 7.5,44.3 4,47.5 0,47.5 M 27.5,40 c 0,4 -3.5,7.5 -7.5,7.5 -4,0 -7.5,-3.5 -7.5,-7.5 0,-4.3 3.5,-7.5 7.5,-7.5 4,0 7.5,3 7.5,7.5 z m 20,0 c 0,4 -3.5,7.5 -7.5,7.5 -4,0 -7.5,-3.5 -7.5,-7.5 0,-4.3 3.5,-7.5 7.5,-7.5 4,0 7.5,3 7.5,7.5 z M 60,47.5 C 56,47.5 52.5,44 52.5,40 52.5,35.7 56,32.5 60,32.5 M 0,12.5 C 4,12.5 7.5,16 7.5,20 7.5,24.3 4,27.5 0,27.5 M 27.5,20 c 0,4 -3.5,7.5 -7.5,7.5 -4,0 -7.5,-3.5 -7.5,-7.5 0,-4.3 3.5,-7.5 7.5,-7.5 4,0 7.5,3 7.5,7.5 z m 20,0 c 0,4 -3.5,7.5 -7.5,7.5 -4,0 -7.5,-3.5 -7.5,-7.5 0,-4.3 3.5,-7.5 7.5,-7.5 4,0 7.5,3 7.5,7.5 z M 60,27.5 C 56,27.5 52.5,24 52.5,20 52.5,15.7 56,12.5 60,12.5 M 12.5,60 c 0,-4.3 3.5,-7.5 7.5,-7.5 4,0 7.5,3 7.5,7.5 M 7.5,47.5 0,40 7.5,32.5 M 12.5,7.48 20,-0.024 27.5,7.5 m 5,45 7.5,7.5 7.5,-7.5 m -20,-5 -15,-15 m -5,-5 L 0,20 7.5,12.5 m 20,40 L 20,60 12.5,52.5 m 20,-5 15,-15 m 5,-5 L 60,20 52.5,12.5 M 7.5,52.5 0,60 m 27.5,-27.5 -15,15 m 35,-35 -15,15 M 60,-0.024 52.5,7.48 m -5,0 L 40,-0.024 32.5,7.5 m 0,5 15,15 m 5,5 7.5,7.5 -7.5,7.5 m -40,-20 15,-15 m -20,15 5,0 0,5 -5,0 z m 20,0 5,0 0,5 -5,0 z m 20,0 5,0 0,5 -5,0 z m 0,-20 5,0 0,5 -5,0 z m -20,0 5,0 0,5 -5,0 z m -20,0 5,0 0,5 -5,0 z m 0,40 5,0 0,5 -5,0 z m 20,0 5,0 0,5 -5,0 z m 20,0 5,0 0,5 -5,0 z m 5,5 7.5,7.5 m -27.5,-27.5 15,15 m -35,-35 15,15 M 0,-0.024 7.5,7.48" style="fill:none;stroke:hsl(79, 100%, 38%);stroke-width:0.5;stroke-linecap:square" />
      </svg>
    </g>
  </g>
</svg>
