<svg version="1.1" xmlns="http://www.w3.org/2000/svg" xmlns:xlink="http://www.w3.org/1999/xlink" viewBox="0 0 1200 1200" width="1200" height="1200">
  <g transform="translate(0 1200)">
    <g transform="rotate(-45)" viewBox="0 0 1200 70.7">
      <svg x="0" y="0" viewBox="0 0 60 60" width="141.4" height="141.4">
        <path d="M 60,10 A 10,10 0 0 0 50,0 10,10 0 0 0 40,10 10,10 0 0 0 50,20 10,10 0 0 0 60,10 Z M 40,10 A 10,10 0 0 0 30,0 10,10 0 0 0 20,10 10,10 0 0 0 30,20 10,10 0 0 0 40,10 Z M 20,10 A 10,10 0 0 0 10,0 10,10 0 0 0 0,10 10,10 0 0 0 10,20 10,10 0 0 0 20,10 Z M 60,30 A 10,10 0 0 0 50,20 10,10 0 0 0 40,30 10,10 0 0 0 50,40 10,10 0 0 0 60,30 Z M 40,30 A 10,10 0 0 0 30,20 10,10 0 0 0 20,30 10,10 0 0 0 30,40 10,10 0 0 0 40,30 Z M 20,30 A 10,10 0 0 0 10,20 10,10 0 0 0 0,30 10,10 0 0 0 10,40 10,10 0 0 0 20,30 Z M 60,50 A 10,10 0 0 0 50,40 10,10 0 0 0 40,50 10,10 0 0 0 50,60 10,10 0 0 0 60,50 Z M 40,50 A 10,10 0 0 0 30,40 10,10 0 0 0 20,50 10,10 0 0 0 30,60 10,10 0 0 0 40,50 Z M 20,50 A 10,10 0 0 0 10,40 10,10 0 0 0 0,50 10,10 0 0 0 10,60 10,10 0 0 0 20,50 Z M 50,0 c 0,5.52 4.5,10 10,10 M 30,0 c 0,5.52 4.5,10 10,10 5.5,0 10,-4.48 10,-10 M 10,0 c 0,5.52 4.5,10 10,10 5.5,0 10,-4.48 10,-10 m 30,10 c -5.5,0 -10,4.5 -10,10 0,5.5 4.5,10 10,10 M 50,20 A 10,10 0 0 0 40,10 10,10 0 0 0 30,20 10,10 0 0 0 40,30 10,10 0 0 0 50,20 Z M 30,20 A 10,10 0 0 0 20,10 10,10 0 0 0 10,20 10,10 0 0 0 20,30 10,10 0 0 0 30,20 Z m 30,10 c -5.5,0 -10,4.5 -10,10 0,5.5 4.5,10 10,10 M 50,40 A 10,10 0 0 0 40,30 10,10 0 0 0 30,40 10,10 0 0 0 40,50 10,10 0 0 0 50,40 Z M 30,40 A 10,10 0 0 0 20,30 10,10 0 0 0 10,40 10,10 0 0 0 20,50 10,10 0 0 0 30,40 Z M 0,10 C 5.52,10 10,5.52 10,0 M 0,30 C 5.52,30 10,25.5 10,20 10,14.5 5.52,10 0,10 M 0,50 C 5.52,50 10,45.5 10,40 10,34.5 5.52,30 0,30 m 60,20 c -5.5,0 -10,4.5 -10,10 m 0,0 C 50,54.5 45.5,50 40,50 34.5,50 30,54.5 30,60 m 0,0 C 30,54.5 25.5,50 20,50 14.5,50 10,54.5 10,60 m 0,0 C 10,54.5 5.52,50 0,50" style="fill:none;stroke:hsl(206, 54%, 39%);stroke-width:0.5;stroke-linecap:square" />
      </svg>

      <svg x="141.4" y="0" viewBox="0 0 60 60" width="141.4" height="141.4">
        <path d="M 60,10 A 10,10 0 0 0 50,0 10,10 0 0 0 40,10 10,10 0 0 0 50,20 10,10 0 0 0 60,10 Z M 40,10 A 10,10 0 0 0 30,0 10,10 0 0 0 20,10 10,10 0 0 0 30,20 10,10 0 0 0 40,10 Z M 20,10 A 10,10 0 0 0 10,0 10,10 0 0 0 0,10 10,10 0 0 0 10,20 10,10 0 0 0 20,10 Z M 60,30 A 10,10 0 0 0 50,20 10,10 0 0 0 40,30 10,10 0 0 0 50,40 10,10 0 0 0 60,30 Z M 40,30 A 10,10 0 0 0 30,20 10,10 0 0 0 20,30 10,10 0 0 0 30,40 10,10 0 0 0 40,30 Z M 20,30 A 10,10 0 0 0 10,20 10,10 0 0 0 0,30 10,10 0 0 0 10,40 10,10 0 0 0 20,30 Z M 60,50 A 10,10 0 0 0 50,40 10,10 0 0 0 40,50 10,10 0 0 0 50,60 10,10 0 0 0 60,50 Z M 40,50 A 10,10 0 0 0 30,40 10,10 0 0 0 20,50 10,10 0 0 0 30,60 10,10 0 0 0 40,50 Z M 20,50 A 10,10 0 0 0 10,40 10,10 0 0 0 0,50 10,10 0 0 0 10,60 10,10 0 0 0 20,50 Z M 50,0 c 0,5.52 4.5,10 10,10 M 30,0 c 0,5.52 4.5,10 10,10 5.5,0 10,-4.48 10,-10 M 10,0 c 0,5.52 4.5,10 10,10 5.5,0 10,-4.48 10,-10 m 30,10 c -5.5,0 -10,4.5 -10,10 0,5.5 4.5,10 10,10 M 50,20 A 10,10 0 0 0 40,10 10,10 0 0 0 30,20 10,10 0 0 0 40,30 10,10 0 0 0 50,20 Z M 30,20 A 10,10 0 0 0 20,10 10,10 0 0 0 10,20 10,10 0 0 0 20,30 10,10 0 0 0 30,20 Z m 30,10 c -5.5,0 -10,4.5 -10,10 0,5.5 4.5,10 10,10 M 50,40 A 10,10 0 0 0 40,30 10,10 0 0 0 30,40 10,10 0 0 0 40,50 10,10 0 0 0 50,40 Z M 30,40 A 10,10 0 0 0 20,30 10,10 0 0 0 10,40 10,10 0 0 0 20,50 10,10 0 0 0 30,40 Z M 0,10 C 5.52,10 10,5.52 10,0 M 0,30 C 5.52,30 10,25.5 10,20 10,14.5 5.52,10 0,10 M 0,50 C 5.52,50 10,45.5 10,40 10,34.5 5.52,30 0,30 m 60,20 c -5.5,0 -10,4.5 -10,10 m 0,0 C 50,54.5 45.5,50 40,50 34.5,50 30,54.5 30,60 m 0,0 C 30,54.5 25.5,50 20,50 14.5,50 10,54.5 10,60 m 0,0 C 10,54.5 5.52,50 0,50" style="fill:none;stroke:hsl(206, 54%, 39%);stroke-width:0.5;stroke-linecap:square" />
      </svg>

      <svg x="282.8" y="0" viewBox="0 0 60 60" width="141.4" height="141.4">
        <path d="M 60,10 A 10,10 0 0 0 50,0 10,10 0 0 0 40,10 10,10 0 0 0 50,20 10,10 0 0 0 60,10 Z M 40,10 A 10,10 0 0 0 30,0 10,10 0 0 0 20,10 10,10 0 0 0 30,20 10,10 0 0 0 40,10 Z M 20,10 A 10,10 0 0 0 10,0 10,10 0 0 0 0,10 10,10 0 0 0 10,20 10,10 0 0 0 20,10 Z M 60,30 A 10,10 0 0 0 50,20 10,10 0 0 0 40,30 10,10 0 0 0 50,40 10,10 0 0 0 60,30 Z M 40,30 A 10,10 0 0 0 30,20 10,10 0 0 0 20,30 10,10 0 0 0 30,40 10,10 0 0 0 40,30 Z M 20,30 A 10,10 0 0 0 10,20 10,10 0 0 0 0,30 10,10 0 0 0 10,40 10,10 0 0 0 20,30 Z M 60,50 A 10,10 0 0 0 50,40 10,10 0 0 0 40,50 10,10 0 0 0 50,60 10,10 0 0 0 60,50 Z M 40,50 A 10,10 0 0 0 30,40 10,10 0 0 0 20,50 10,10 0 0 0 30,60 10,10 0 0 0 40,50 Z M 20,50 A 10,10 0 0 0 10,40 10,10 0 0 0 0,50 10,10 0 0 0 10,60 10,10 0 0 0 20,50 Z M 50,0 c 0,5.52 4.5,10 10,10 M 30,0 c 0,5.52 4.5,10 10,10 5.5,0 10,-4.48 10,-10 M 10,0 c 0,5.52 4.5,10 10,10 5.5,0 10,-4.48 10,-10 m 30,10 c -5.5,0 -10,4.5 -10,10 0,5.5 4.5,10 10,10 M 50,20 A 10,10 0 0 0 40,10 10,10 0 0 0 30,20 10,10 0 0 0 40,30 10,10 0 0 0 50,20 Z M 30,20 A 10,10 0 0 0 20,10 10,10 0 0 0 10,20 10,10 0 0 0 20,30 10,10 0 0 0 30,20 Z m 30,10 c -5.5,0 -10,4.5 -10,10 0,5.5 4.5,10 10,10 M 50,40 A 10,10 0 0 0 40,30 10,10 0 0 0 30,40 10,10 0 0 0 40,50 10,10 0 0 0 50,40 Z M 30,40 A 10,10 0 0 0 20,30 10,10 0 0 0 10,40 10,10 0 0 0 20,50 10,10 0 0 0 30,40 Z M 0,10 C 5.52,10 10,5.52 10,0 M 0,30 C 5.52,30 10,25.5 10,20 10,14.5 5.52,10 0,10 M 0,50 C 5.52,50 10,45.5 10,40 10,34.5 5.52,30 0,30 m 60,20 c -5.5,0 -10,4.5 -10,10 m 0,0 C 50,54.5 45.5,50 40,50 34.5,50 30,54.5 30,60 m 0,0 C 30,54.5 25.5,50 20,50 14.5,50 10,54.5 10,60 m 0,0 C 10,54.5 5.52,50 0,50" style="fill:none;stroke:hsl(206, 54%, 39%);stroke-width:0.5;stroke-linecap:square" />
      </svg>

      <svg x="424.2" y="0" viewBox="0 0 60 60" width="141.4" height="141.4">
        <path d="M 60,10 A 10,10 0 0 0 50,0 10,10 0 0 0 40,10 10,10 0 0 0 50,20 10,10 0 0 0 60,10 Z M 40,10 A 10,10 0 0 0 30,0 10,10 0 0 0 20,10 10,10 0 0 0 30,20 10,10 0 0 0 40,10 Z M 20,10 A 10,10 0 0 0 10,0 10,10 0 0 0 0,10 10,10 0 0 0 10,20 10,10 0 0 0 20,10 Z M 60,30 A 10,10 0 0 0 50,20 10,10 0 0 0 40,30 10,10 0 0 0 50,40 10,10 0 0 0 60,30 Z M 40,30 A 10,10 0 0 0 30,20 10,10 0 0 0 20,30 10,10 0 0 0 30,40 10,10 0 0 0 40,30 Z M 20,30 A 10,10 0 0 0 10,20 10,10 0 0 0 0,30 10,10 0 0 0 10,40 10,10 0 0 0 20,30 Z M 60,50 A 10,10 0 0 0 50,40 10,10 0 0 0 40,50 10,10 0 0 0 50,60 10,10 0 0 0 60,50 Z M 40,50 A 10,10 0 0 0 30,40 10,10 0 0 0 20,50 10,10 0 0 0 30,60 10,10 0 0 0 40,50 Z M 20,50 A 10,10 0 0 0 10,40 10,10 0 0 0 0,50 10,10 0 0 0 10,60 10,10 0 0 0 20,50 Z M 50,0 c 0,5.52 4.5,10 10,10 M 30,0 c 0,5.52 4.5,10 10,10 5.5,0 10,-4.48 10,-10 M 10,0 c 0,5.52 4.5,10 10,10 5.5,0 10,-4.48 10,-10 m 30,10 c -5.5,0 -10,4.5 -10,10 0,5.5 4.5,10 10,10 M 50,20 A 10,10 0 0 0 40,10 10,10 0 0 0 30,20 10,10 0 0 0 40,30 10,10 0 0 0 50,20 Z M 30,20 A 10,10 0 0 0 20,10 10,10 0 0 0 10,20 10,10 0 0 0 20,30 10,10 0 0 0 30,20 Z m 30,10 c -5.5,0 -10,4.5 -10,10 0,5.5 4.5,10 10,10 M 50,40 A 10,10 0 0 0 40,30 10,10 0 0 0 30,40 10,10 0 0 0 40,50 10,10 0 0 0 50,40 Z M 30,40 A 10,10 0 0 0 20,30 10,10 0 0 0 10,40 10,10 0 0 0 20,50 10,10 0 0 0 30,40 Z M 0,10 C 5.52,10 10,5.52 10,0 M 0,30 C 5.52,30 10,25.5 10,20 10,14.5 5.52,10 0,10 M 0,50 C 5.52,50 10,45.5 10,40 10,34.5 5.52,30 0,30 m 60,20 c -5.5,0 -10,4.5 -10,10 m 0,0 C 50,54.5 45.5,50 40,50 34.5,50 30,54.5 30,60 m 0,0 C 30,54.5 25.5,50 20,50 14.5,50 10,54.5 10,60 m 0,0 C 10,54.5 5.52,50 0,50" style="fill:none;stroke:hsl(206, 54%, 39%);stroke-width:0.5;stroke-linecap:square" />
      </svg>

      <svg x="565.6" y="0" viewBox="0 0 60 60" width="141.4" height="141.4">
        <path d="M 60,10 A 10,10 0 0 0 50,0 10,10 0 0 0 40,10 10,10 0 0 0 50,20 10,10 0 0 0 60,10 Z M 40,10 A 10,10 0 0 0 30,0 10,10 0 0 0 20,10 10,10 0 0 0 30,20 10,10 0 0 0 40,10 Z M 20,10 A 10,10 0 0 0 10,0 10,10 0 0 0 0,10 10,10 0 0 0 10,20 10,10 0 0 0 20,10 Z M 60,30 A 10,10 0 0 0 50,20 10,10 0 0 0 40,30 10,10 0 0 0 50,40 10,10 0 0 0 60,30 Z M 40,30 A 10,10 0 0 0 30,20 10,10 0 0 0 20,30 10,10 0 0 0 30,40 10,10 0 0 0 40,30 Z M 20,30 A 10,10 0 0 0 10,20 10,10 0 0 0 0,30 10,10 0 0 0 10,40 10,10 0 0 0 20,30 Z M 60,50 A 10,10 0 0 0 50,40 10,10 0 0 0 40,50 10,10 0 0 0 50,60 10,10 0 0 0 60,50 Z M 40,50 A 10,10 0 0 0 30,40 10,10 0 0 0 20,50 10,10 0 0 0 30,60 10,10 0 0 0 40,50 Z M 20,50 A 10,10 0 0 0 10,40 10,10 0 0 0 0,50 10,10 0 0 0 10,60 10,10 0 0 0 20,50 Z M 50,0 c 0,5.52 4.5,10 10,10 M 30,0 c 0,5.52 4.5,10 10,10 5.5,0 10,-4.48 10,-10 M 10,0 c 0,5.52 4.5,10 10,10 5.5,0 10,-4.48 10,-10 m 30,10 c -5.5,0 -10,4.5 -10,10 0,5.5 4.5,10 10,10 M 50,20 A 10,10 0 0 0 40,10 10,10 0 0 0 30,20 10,10 0 0 0 40,30 10,10 0 0 0 50,20 Z M 30,20 A 10,10 0 0 0 20,10 10,10 0 0 0 10,20 10,10 0 0 0 20,30 10,10 0 0 0 30,20 Z m 30,10 c -5.5,0 -10,4.5 -10,10 0,5.5 4.5,10 10,10 M 50,40 A 10,10 0 0 0 40,30 10,10 0 0 0 30,40 10,10 0 0 0 40,50 10,10 0 0 0 50,40 Z M 30,40 A 10,10 0 0 0 20,30 10,10 0 0 0 10,40 10,10 0 0 0 20,50 10,10 0 0 0 30,40 Z M 0,10 C 5.52,10 10,5.52 10,0 M 0,30 C 5.52,30 10,25.5 10,20 10,14.5 5.52,10 0,10 M 0,50 C 5.52,50 10,45.5 10,40 10,34.5 5.52,30 0,30 m 60,20 c -5.5,0 -10,4.5 -10,10 m 0,0 C 50,54.5 45.5,50 40,50 34.5,50 30,54.5 30,60 m 0,0 C 30,54.5 25.5,50 20,50 14.5,50 10,54.5 10,60 m 0,0 C 10,54.5 5.52,50 0,50" style="fill:none;stroke:hsl(206, 54%, 39%);stroke-width:0.5;stroke-linecap:square" />
      </svg>

      <svg x="707.0" y="0" viewBox="0 0 60 60" width="141.4" height="141.4">
        <path d="M 60,10 A 10,10 0 0 0 50,0 10,10 0 0 0 40,10 10,10 0 0 0 50,20 10,10 0 0 0 60,10 Z M 40,10 A 10,10 0 0 0 30,0 10,10 0 0 0 20,10 10,10 0 0 0 30,20 10,10 0 0 0 40,10 Z M 20,10 A 10,10 0 0 0 10,0 10,10 0 0 0 0,10 10,10 0 0 0 10,20 10,10 0 0 0 20,10 Z M 60,30 A 10,10 0 0 0 50,20 10,10 0 0 0 40,30 10,10 0 0 0 50,40 10,10 0 0 0 60,30 Z M 40,30 A 10,10 0 0 0 30,20 10,10 0 0 0 20,30 10,10 0 0 0 30,40 10,10 0 0 0 40,30 Z M 20,30 A 10,10 0 0 0 10,20 10,10 0 0 0 0,30 10,10 0 0 0 10,40 10,10 0 0 0 20,30 Z M 60,50 A 10,10 0 0 0 50,40 10,10 0 0 0 40,50 10,10 0 0 0 50,60 10,10 0 0 0 60,50 Z M 40,50 A 10,10 0 0 0 30,40 10,10 0 0 0 20,50 10,10 0 0 0 30,60 10,10 0 0 0 40,50 Z M 20,50 A 10,10 0 0 0 10,40 10,10 0 0 0 0,50 10,10 0 0 0 10,60 10,10 0 0 0 20,50 Z M 50,0 c 0,5.52 4.5,10 10,10 M 30,0 c 0,5.52 4.5,10 10,10 5.5,0 10,-4.48 10,-10 M 10,0 c 0,5.52 4.5,10 10,10 5.5,0 10,-4.48 10,-10 m 30,10 c -5.5,0 -10,4.5 -10,10 0,5.5 4.5,10 10,10 M 50,20 A 10,10 0 0 0 40,10 10,10 0 0 0 30,20 10,10 0 0 0 40,30 10,10 0 0 0 50,20 Z M 30,20 A 10,10 0 0 0 20,10 10,10 0 0 0 10,20 10,10 0 0 0 20,30 10,10 0 0 0 30,20 Z m 30,10 c -5.5,0 -10,4.5 -10,10 0,5.5 4.5,10 10,10 M 50,40 A 10,10 0 0 0 40,30 10,10 0 0 0 30,40 10,10 0 0 0 40,50 10,10 0 0 0 50,40 Z M 30,40 A 10,10 0 0 0 20,30 10,10 0 0 0 10,40 10,10 0 0 0 20,50 10,10 0 0 0 30,40 Z M 0,10 C 5.52,10 10,5.52 10,0 M 0,30 C 5.52,30 10,25.5 10,20 10,14.5 5.52,10 0,10 M 0,50 C 5.52,50 10,45.5 10,40 10,34.5 5.52,30 0,30 m 60,20 c -5.5,0 -10,4.5 -10,10 m 0,0 C 50,54.5 45.5,50 40,50 34.5,50 30,54.5 30,60 m 0,0 C 30,54.5 25.5,50 20,50 14.5,50 10,54.5 10,60 m 0,0 C 10,54.5 5.52,50 0,50" style="fill:none;stroke:hsl(206, 54%, 39%);stroke-width:0.5;stroke-linecap:square" />
      </svg>

      <svg x="848.4" y="0" viewBox="0 0 60 60" width="141.4" height="141.4">
        <path d="M 60,10 A 10,10 0 0 0 50,0 10,10 0 0 0 40,10 10,10 0 0 0 50,20 10,10 0 0 0 60,10 Z M 40,10 A 10,10 0 0 0 30,0 10,10 0 0 0 20,10 10,10 0 0 0 30,20 10,10 0 0 0 40,10 Z M 20,10 A 10,10 0 0 0 10,0 10,10 0 0 0 0,10 10,10 0 0 0 10,20 10,10 0 0 0 20,10 Z M 60,30 A 10,10 0 0 0 50,20 10,10 0 0 0 40,30 10,10 0 0 0 50,40 10,10 0 0 0 60,30 Z M 40,30 A 10,10 0 0 0 30,20 10,10 0 0 0 20,30 10,10 0 0 0 30,40 10,10 0 0 0 40,30 Z M 20,30 A 10,10 0 0 0 10,20 10,10 0 0 0 0,30 10,10 0 0 0 10,40 10,10 0 0 0 20,30 Z M 60,50 A 10,10 0 0 0 50,40 10,10 0 0 0 40,50 10,10 0 0 0 50,60 10,10 0 0 0 60,50 Z M 40,50 A 10,10 0 0 0 30,40 10,10 0 0 0 20,50 10,10 0 0 0 30,60 10,10 0 0 0 40,50 Z M 20,50 A 10,10 0 0 0 10,40 10,10 0 0 0 0,50 10,10 0 0 0 10,60 10,10 0 0 0 20,50 Z M 50,0 c 0,5.52 4.5,10 10,10 M 30,0 c 0,5.52 4.5,10 10,10 5.5,0 10,-4.48 10,-10 M 10,0 c 0,5.52 4.5,10 10,10 5.5,0 10,-4.48 10,-10 m 30,10 c -5.5,0 -10,4.5 -10,10 0,5.5 4.5,10 10,10 M 50,20 A 10,10 0 0 0 40,10 10,10 0 0 0 30,20 10,10 0 0 0 40,30 10,10 0 0 0 50,20 Z M 30,20 A 10,10 0 0 0 20,10 10,10 0 0 0 10,20 10,10 0 0 0 20,30 10,10 0 0 0 30,20 Z m 30,10 c -5.5,0 -10,4.5 -10,10 0,5.5 4.5,10 10,10 M 50,40 A 10,10 0 0 0 40,30 10,10 0 0 0 30,40 10,10 0 0 0 40,50 10,10 0 0 0 50,40 Z M 30,40 A 10,10 0 0 0 20,30 10,10 0 0 0 10,40 10,10 0 0 0 20,50 10,10 0 0 0 30,40 Z M 0,10 C 5.52,10 10,5.52 10,0 M 0,30 C 5.52,30 10,25.5 10,20 10,14.5 5.52,10 0,10 M 0,50 C 5.52,50 10,45.5 10,40 10,34.5 5.52,30 0,30 m 60,20 c -5.5,0 -10,4.5 -10,10 m 0,0 C 50,54.5 45.5,50 40,50 34.5,50 30,54.5 30,60 m 0,0 C 30,54.5 25.5,50 20,50 14.5,50 10,54.5 10,60 m 0,0 C 10,54.5 5.52,50 0,50" style="fill:none;stroke:hsl(206, 54%, 39%);stroke-width:0.5;stroke-linecap:square" />
      </svg>

      <svg x="989.8" y="0" viewBox="0 0 60 60" width="141.4" height="141.4">
        <path d="M 60,10 A 10,10 0 0 0 50,0 10,10 0 0 0 40,10 10,10 0 0 0 50,20 10,10 0 0 0 60,10 Z M 40,10 A 10,10 0 0 0 30,0 10,10 0 0 0 20,10 10,10 0 0 0 30,20 10,10 0 0 0 40,10 Z M 20,10 A 10,10 0 0 0 10,0 10,10 0 0 0 0,10 10,10 0 0 0 10,20 10,10 0 0 0 20,10 Z M 60,30 A 10,10 0 0 0 50,20 10,10 0 0 0 40,30 10,10 0 0 0 50,40 10,10 0 0 0 60,30 Z M 40,30 A 10,10 0 0 0 30,20 10,10 0 0 0 20,30 10,10 0 0 0 30,40 10,10 0 0 0 40,30 Z M 20,30 A 10,10 0 0 0 10,20 10,10 0 0 0 0,30 10,10 0 0 0 10,40 10,10 0 0 0 20,30 Z M 60,50 A 10,10 0 0 0 50,40 10,10 0 0 0 40,50 10,10 0 0 0 50,60 10,10 0 0 0 60,50 Z M 40,50 A 10,10 0 0 0 30,40 10,10 0 0 0 20,50 10,10 0 0 0 30,60 10,10 0 0 0 40,50 Z M 20,50 A 10,10 0 0 0 10,40 10,10 0 0 0 0,50 10,10 0 0 0 10,60 10,10 0 0 0 20,50 Z M 50,0 c 0,5.52 4.5,10 10,10 M 30,0 c 0,5.52 4.5,10 10,10 5.5,0 10,-4.48 10,-10 M 10,0 c 0,5.52 4.5,10 10,10 5.5,0 10,-4.48 10,-10 m 30,10 c -5.5,0 -10,4.5 -10,10 0,5.5 4.5,10 10,10 M 50,20 A 10,10 0 0 0 40,10 10,10 0 0 0 30,20 10,10 0 0 0 40,30 10,10 0 0 0 50,20 Z M 30,20 A 10,10 0 0 0 20,10 10,10 0 0 0 10,20 10,10 0 0 0 20,30 10,10 0 0 0 30,20 Z m 30,10 c -5.5,0 -10,4.5 -10,10 0,5.5 4.5,10 10,10 M 50,40 A 10,10 0 0 0 40,30 10,10 0 0 0 30,40 10,10 0 0 0 40,50 10,10 0 0 0 50,40 Z M 30,40 A 10,10 0 0 0 20,30 10,10 0 0 0 10,40 10,10 0 0 0 20,50 10,10 0 0 0 30,40 Z M 0,10 C 5.52,10 10,5.52 10,0 M 0,30 C 5.52,30 10,25.5 10,20 10,14.5 5.52,10 0,10 M 0,50 C 5.52,50 10,45.5 10,40 10,34.5 5.52,30 0,30 m 60,20 c -5.5,0 -10,4.5 -10,10 m 0,0 C 50,54.5 45.5,50 40,50 34.5,50 30,54.5 30,60 m 0,0 C 30,54.5 25.5,50 20,50 14.5,50 10,54.5 10,60 m 0,0 C 10,54.5 5.52,50 0,50" style="fill:none;stroke:hsl(206, 54%, 39%);stroke-width:0.5;stroke-linecap:square" />
      </svg>

      <svg x="1131.2" y="0" viewBox="0 0 60 60" width="141.4" height="141.4">
        <path d="M 60,10 A 10,10 0 0 0 50,0 10,10 0 0 0 40,10 10,10 0 0 0 50,20 10,10 0 0 0 60,10 Z M 40,10 A 10,10 0 0 0 30,0 10,10 0 0 0 20,10 10,10 0 0 0 30,20 10,10 0 0 0 40,10 Z M 20,10 A 10,10 0 0 0 10,0 10,10 0 0 0 0,10 10,10 0 0 0 10,20 10,10 0 0 0 20,10 Z M 60,30 A 10,10 0 0 0 50,20 10,10 0 0 0 40,30 10,10 0 0 0 50,40 10,10 0 0 0 60,30 Z M 40,30 A 10,10 0 0 0 30,20 10,10 0 0 0 20,30 10,10 0 0 0 30,40 10,10 0 0 0 40,30 Z M 20,30 A 10,10 0 0 0 10,20 10,10 0 0 0 0,30 10,10 0 0 0 10,40 10,10 0 0 0 20,30 Z M 60,50 A 10,10 0 0 0 50,40 10,10 0 0 0 40,50 10,10 0 0 0 50,60 10,10 0 0 0 60,50 Z M 40,50 A 10,10 0 0 0 30,40 10,10 0 0 0 20,50 10,10 0 0 0 30,60 10,10 0 0 0 40,50 Z M 20,50 A 10,10 0 0 0 10,40 10,10 0 0 0 0,50 10,10 0 0 0 10,60 10,10 0 0 0 20,50 Z M 50,0 c 0,5.52 4.5,10 10,10 M 30,0 c 0,5.52 4.5,10 10,10 5.5,0 10,-4.48 10,-10 M 10,0 c 0,5.52 4.5,10 10,10 5.5,0 10,-4.48 10,-10 m 30,10 c -5.5,0 -10,4.5 -10,10 0,5.5 4.5,10 10,10 M 50,20 A 10,10 0 0 0 40,10 10,10 0 0 0 30,20 10,10 0 0 0 40,30 10,10 0 0 0 50,20 Z M 30,20 A 10,10 0 0 0 20,10 10,10 0 0 0 10,20 10,10 0 0 0 20,30 10,10 0 0 0 30,20 Z m 30,10 c -5.5,0 -10,4.5 -10,10 0,5.5 4.5,10 10,10 M 50,40 A 10,10 0 0 0 40,30 10,10 0 0 0 30,40 10,10 0 0 0 40,50 10,10 0 0 0 50,40 Z M 30,40 A 10,10 0 0 0 20,30 10,10 0 0 0 10,40 10,10 0 0 0 20,50 10,10 0 0 0 30,40 Z M 0,10 C 5.52,10 10,5.52 10,0 M 0,30 C 5.52,30 10,25.5 10,20 10,14.5 5.52,10 0,10 M 0,50 C 5.52,50 10,45.5 10,40 10,34.5 5.52,30 0,30 m 60,20 c -5.5,0 -10,4.5 -10,10 m 0,0 C 50,54.5 45.5,50 40,50 34.5,50 30,54.5 30,60 m 0,0 C 30,54.5 25.5,50 20,50 14.5,50 10,54.5 10,60 m 0,0 C 10,54.5 5.52,50 0,50" style="fill:none;stroke:hsl(206, 54%, 39%);stroke-width:0.5;stroke-linecap:square" />
      </svg>

      <svg x="1272.6" y="0" viewBox="0 0 60 60" width="141.4" height="141.4">
        <path d="M 60,10 A 10,10 0 0 0 50,0 10,10 0 0 0 40,10 10,10 0 0 0 50,20 10,10 0 0 0 60,10 Z M 40,10 A 10,10 0 0 0 30,0 10,10 0 0 0 20,10 10,10 0 0 0 30,20 10,10 0 0 0 40,10 Z M 20,10 A 10,10 0 0 0 10,0 10,10 0 0 0 0,10 10,10 0 0 0 10,20 10,10 0 0 0 20,10 Z M 60,30 A 10,10 0 0 0 50,20 10,10 0 0 0 40,30 10,10 0 0 0 50,40 10,10 0 0 0 60,30 Z M 40,30 A 10,10 0 0 0 30,20 10,10 0 0 0 20,30 10,10 0 0 0 30,40 10,10 0 0 0 40,30 Z M 20,30 A 10,10 0 0 0 10,20 10,10 0 0 0 0,30 10,10 0 0 0 10,40 10,10 0 0 0 20,30 Z M 60,50 A 10,10 0 0 0 50,40 10,10 0 0 0 40,50 10,10 0 0 0 50,60 10,10 0 0 0 60,50 Z M 40,50 A 10,10 0 0 0 30,40 10,10 0 0 0 20,50 10,10 0 0 0 30,60 10,10 0 0 0 40,50 Z M 20,50 A 10,10 0 0 0 10,40 10,10 0 0 0 0,50 10,10 0 0 0 10,60 10,10 0 0 0 20,50 Z M 50,0 c 0,5.52 4.5,10 10,10 M 30,0 c 0,5.52 4.5,10 10,10 5.5,0 10,-4.48 10,-10 M 10,0 c 0,5.52 4.5,10 10,10 5.5,0 10,-4.48 10,-10 m 30,10 c -5.5,0 -10,4.5 -10,10 0,5.5 4.5,10 10,10 M 50,20 A 10,10 0 0 0 40,10 10,10 0 0 0 30,20 10,10 0 0 0 40,30 10,10 0 0 0 50,20 Z M 30,20 A 10,10 0 0 0 20,10 10,10 0 0 0 10,20 10,10 0 0 0 20,30 10,10 0 0 0 30,20 Z m 30,10 c -5.5,0 -10,4.5 -10,10 0,5.5 4.5,10 10,10 M 50,40 A 10,10 0 0 0 40,30 10,10 0 0 0 30,40 10,10 0 0 0 40,50 10,10 0 0 0 50,40 Z M 30,40 A 10,10 0 0 0 20,30 10,10 0 0 0 10,40 10,10 0 0 0 20,50 10,10 0 0 0 30,40 Z M 0,10 C 5.52,10 10,5.52 10,0 M 0,30 C 5.52,30 10,25.5 10,20 10,14.5 5.52,10 0,10 M 0,50 C 5.52,50 10,45.5 10,40 10,34.5 5.52,30 0,30 m 60,20 c -5.5,0 -10,4.5 -10,10 m 0,0 C 50,54.5 45.5,50 40,50 34.5,50 30,54.5 30,60 m 0,0 C 30,54.5 25.5,50 20,50 14.5,50 10,54.5 10,60 m 0,0 C 10,54.5 5.52,50 0,50" style="fill:none;stroke:hsl(206, 54%, 39%);stroke-width:0.5;stroke-linecap:square" />
      </svg>

      <svg x="1414.0" y="0" viewBox="0 0 60 60" width="141.4" height="141.4">
        <path d="M 60,10 A 10,10 0 0 0 50,0 10,10 0 0 0 40,10 10,10 0 0 0 50,20 10,10 0 0 0 60,10 Z M 40,10 A 10,10 0 0 0 30,0 10,10 0 0 0 20,10 10,10 0 0 0 30,20 10,10 0 0 0 40,10 Z M 20,10 A 10,10 0 0 0 10,0 10,10 0 0 0 0,10 10,10 0 0 0 10,20 10,10 0 0 0 20,10 Z M 60,30 A 10,10 0 0 0 50,20 10,10 0 0 0 40,30 10,10 0 0 0 50,40 10,10 0 0 0 60,30 Z M 40,30 A 10,10 0 0 0 30,20 10,10 0 0 0 20,30 10,10 0 0 0 30,40 10,10 0 0 0 40,30 Z M 20,30 A 10,10 0 0 0 10,20 10,10 0 0 0 0,30 10,10 0 0 0 10,40 10,10 0 0 0 20,30 Z M 60,50 A 10,10 0 0 0 50,40 10,10 0 0 0 40,50 10,10 0 0 0 50,60 10,10 0 0 0 60,50 Z M 40,50 A 10,10 0 0 0 30,40 10,10 0 0 0 20,50 10,10 0 0 0 30,60 10,10 0 0 0 40,50 Z M 20,50 A 10,10 0 0 0 10,40 10,10 0 0 0 0,50 10,10 0 0 0 10,60 10,10 0 0 0 20,50 Z M 50,0 c 0,5.52 4.5,10 10,10 M 30,0 c 0,5.52 4.5,10 10,10 5.5,0 10,-4.48 10,-10 M 10,0 c 0,5.52 4.5,10 10,10 5.5,0 10,-4.48 10,-10 m 30,10 c -5.5,0 -10,4.5 -10,10 0,5.5 4.5,10 10,10 M 50,20 A 10,10 0 0 0 40,10 10,10 0 0 0 30,20 10,10 0 0 0 40,30 10,10 0 0 0 50,20 Z M 30,20 A 10,10 0 0 0 20,10 10,10 0 0 0 10,20 10,10 0 0 0 20,30 10,10 0 0 0 30,20 Z m 30,10 c -5.5,0 -10,4.5 -10,10 0,5.5 4.5,10 10,10 M 50,40 A 10,10 0 0 0 40,30 10,10 0 0 0 30,40 10,10 0 0 0 40,50 10,10 0 0 0 50,40 Z M 30,40 A 10,10 0 0 0 20,30 10,10 0 0 0 10,40 10,10 0 0 0 20,50 10,10 0 0 0 30,40 Z M 0,10 C 5.52,10 10,5.52 10,0 M 0,30 C 5.52,30 10,25.5 10,20 10,14.5 5.52,10 0,10 M 0,50 C 5.52,50 10,45.5 10,40 10,34.5 5.52,30 0,30 m 60,20 c -5.5,0 -10,4.5 -10,10 m 0,0 C 50,54.5 45.5,50 40,50 34.5,50 30,54.5 30,60 m 0,0 C 30,54.5 25.5,50 20,50 14.5,50 10,54.5 10,60 m 0,0 C 10,54.5 5.52,50 0,50" style="fill:none;stroke:hsl(206, 54%, 39%);stroke-width:0.5;stroke-linecap:square" />
      </svg>

      <svg x="1555.4" y="0" viewBox="0 0 60 60" width="141.4" height="141.4">
        <path d="M 60,10 A 10,10 0 0 0 50,0 10,10 0 0 0 40,10 10,10 0 0 0 50,20 10,10 0 0 0 60,10 Z M 40,10 A 10,10 0 0 0 30,0 10,10 0 0 0 20,10 10,10 0 0 0 30,20 10,10 0 0 0 40,10 Z M 20,10 A 10,10 0 0 0 10,0 10,10 0 0 0 0,10 10,10 0 0 0 10,20 10,10 0 0 0 20,10 Z M 60,30 A 10,10 0 0 0 50,20 10,10 0 0 0 40,30 10,10 0 0 0 50,40 10,10 0 0 0 60,30 Z M 40,30 A 10,10 0 0 0 30,20 10,10 0 0 0 20,30 10,10 0 0 0 30,40 10,10 0 0 0 40,30 Z M 20,30 A 10,10 0 0 0 10,20 10,10 0 0 0 0,30 10,10 0 0 0 10,40 10,10 0 0 0 20,30 Z M 60,50 A 10,10 0 0 0 50,40 10,10 0 0 0 40,50 10,10 0 0 0 50,60 10,10 0 0 0 60,50 Z M 40,50 A 10,10 0 0 0 30,40 10,10 0 0 0 20,50 10,10 0 0 0 30,60 10,10 0 0 0 40,50 Z M 20,50 A 10,10 0 0 0 10,40 10,10 0 0 0 0,50 10,10 0 0 0 10,60 10,10 0 0 0 20,50 Z M 50,0 c 0,5.52 4.5,10 10,10 M 30,0 c 0,5.52 4.5,10 10,10 5.5,0 10,-4.48 10,-10 M 10,0 c 0,5.52 4.5,10 10,10 5.5,0 10,-4.48 10,-10 m 30,10 c -5.5,0 -10,4.5 -10,10 0,5.5 4.5,10 10,10 M 50,20 A 10,10 0 0 0 40,10 10,10 0 0 0 30,20 10,10 0 0 0 40,30 10,10 0 0 0 50,20 Z M 30,20 A 10,10 0 0 0 20,10 10,10 0 0 0 10,20 10,10 0 0 0 20,30 10,10 0 0 0 30,20 Z m 30,10 c -5.5,0 -10,4.5 -10,10 0,5.5 4.5,10 10,10 M 50,40 A 10,10 0 0 0 40,30 10,10 0 0 0 30,40 10,10 0 0 0 40,50 10,10 0 0 0 50,40 Z M 30,40 A 10,10 0 0 0 20,30 10,10 0 0 0 10,40 10,10 0 0 0 20,50 10,10 0 0 0 30,40 Z M 0,10 C 5.52,10 10,5.52 10,0 M 0,30 C 5.52,30 10,25.5 10,20 10,14.5 5.52,10 0,10 M 0,50 C 5.52,50 10,45.5 10,40 10,34.5 5.52,30 0,30 m 60,20 c -5.5,0 -10,4.5 -10,10 m 0,0 C 50,54.5 45.5,50 40,50 34.5,50 30,54.5 30,60 m 0,0 C 30,54.5 25.5,50 20,50 14.5,50 10,54.5 10,60 m 0,0 C 10,54.5 5.52,50 0,50" style="fill:none;stroke:hsl(206, 54%, 39%);stroke-width:0.5;stroke-linecap:square" />
      </svg>
    </g>
  </g>
</svg>
