<?xml version="1.0" encoding="utf-8"?>
<!-- Generator: Adobe Illustrator 18.0.0, SVG Export Plug-In . SVG Version: 6.00 Build 0)  -->
<!DOCTYPE svg PUBLIC "-//W3C//DTD SVG 1.1//EN" "http://www.w3.org/Graphics/SVG/1.1/DTD/svg11.dtd">
<svg version="1.1" xmlns="http://www.w3.org/2000/svg" xmlns:xlink="http://www.w3.org/1999/xlink" x="0px" y="0px"
	 viewBox="-100 -100 1200 1200" enable-background="new -100 -100 1200 1200" xml:space="preserve">
<g id="Layer_1">
</g>
<g id="Layer_2">
	<path fill="none" stroke="{{ color }}" stroke-miterlimit="10" d="M750,600v25h-25 M781.2,606.3v12.5h12.5 M800,625h-25.1v-25
		 M768.7,593.7v37.4l37.4,0 M800,650h-25.1v25 M812.5,637.5l-99.9,0.1 M731.3,618.8h12.5v-12.5 M718.8,631.3h37.4l0-37.4 M725,650
		h25v25 M781.2,668.7v-12.5h12.5 M768.7,681.2v-37.4l37.4,0 M743.7,668.7v-12.5h-12.5 M756.2,681.2v-37.4h-37.4 M762.4,687.4
		l0.1-99.9"/>
	<path fill="none" stroke="{{ color }}" stroke-miterlimit="10" d="M700,650v25h-25 M731.2,656.3v12.5h12.5 M750,675h-25.1l0-25
		 M718.7,643.7v37.4h37.4 M750,700h-25.1v25 M762.5,687.5l-99.9,0.1 M681.3,668.8h12.5v-12.5 M668.8,681.3h37.4l0-37.4 M675,700h25
		v25 M731.2,718.7v-12.5h12.5 M718.7,731.2v-37.4h37.4 M693.7,718.7v-12.5h-12.5 M706.2,731.2v-37.4h-37.4 M712.4,737.4l0.1-99.9"/>
	<path fill="none" stroke="{{ color }}" stroke-miterlimit="10" d="M650,700v25h-25 M681.2,706.3v12.5h12.5 M700,725h-25.1l0-25
		 M668.7,693.7v37.4h37.4 M700,750h-25.1v25 M712.5,737.5l-99.9,0.1 M631.3,718.8h12.5v-12.5 M618.8,731.3h37.4l0-37.4 M625,750h25
		v25 M681.2,768.7v-12.5h12.5 M668.7,781.2v-37.4h37.4 M643.7,768.7v-12.5h-12.5 M656.2,781.2v-37.4h-37.4 M662.4,787.4l0.1-99.9"/>
	<path fill="none" stroke="{{ color }}" stroke-miterlimit="10" d="M600,750v25h-25 M631.2,756.3v12.5h12.5 M650,775h-25.1l0-25
		 M618.7,743.7v37.4h37.4 M650,800h-25.1v25 M662.5,787.5l-99.9,0.1 M581.3,768.8h12.5v-12.5 M568.8,781.3h37.4v-37.4 M575,800h25
		v25 M631.2,818.7v-12.5h12.5 M618.7,831.2v-37.4h37.4 M593.7,818.7v-12.5h-12.5 M606.2,831.2v-37.4h-37.4 M612.4,837.4l0.1-99.9"/>
	<path fill="none" stroke="{{ color }}" stroke-miterlimit="10" d="M550,800v25h-25 M581.2,806.3v12.5h12.5 M600,825h-25.1l0-25
		 M568.7,793.7v37.4h37.4 M600,850h-25.1v25 M612.5,837.5l-99.9,0.1 M531.3,818.8h12.5v-12.5 M518.8,831.3h37.4v-37.4 M525,850h25
		v25 M581.2,868.7v-12.5h12.5 M568.7,881.2v-37.4h37.4 M543.7,868.7v-12.5h-12.5 M556.2,881.2v-37.4h-37.4 M562.4,887.4l0.1-99.9"/>
	<path fill="none" stroke="{{ color }}" stroke-miterlimit="10" d="M500,850v25h-25 M531.2,856.3v12.5h12.5 M550,875h-25.1l0-25
		 M518.7,843.7v37.4h37.4 M550,900h-25.1v25 M562.5,887.5h-100 M481.3,868.8h12.5v-12.5 M468.8,881.3h37.4v-37.4 M475,900h25v25
		 M531.2,918.7v-12.5h12.5 M518.7,931.2v-37.4h37.4 M493.7,918.7v-12.5h-12.5 M506.2,931.2v-37.4h-37.4 M512.4,937.4l0.1-99.9"/>
	<path fill="none" stroke="{{ color }}" stroke-miterlimit="10" d="M450,900v25h-25 M481.2,906.3l0,12.5h12.5 M500,925h-25.1v-25
		 M468.7,893.7l0,37.4h37.4 M500,950h-25.1v25 M512.5,937.5h-100 M431.3,918.8h12.5v-12.5 M418.8,931.3h37.4v-37.4 M425,950h25v25
		 M481.2,968.7v-12.5h12.5 M468.7,981.2v-37.4h37.4 M443.7,968.7v-12.5h-12.5 M456.2,981.2v-37.4h-37.4 M462.4,987.4l0.1-99.9"/>
	<path fill="none" stroke="{{ color }}" stroke-miterlimit="10" d="M400,950v25h-25 M431.2,956.3l0,12.5h12.5 M450,975h-25.1v-25
		 M418.7,943.7l0,37.4h37.4 M450,1000h-25.1v25 M462.5,987.5h-100 M381.3,968.8h12.5v-12.5 M368.8,981.3h37.4v-37.4 M375,1000h25v25
		 M431.2,1018.7v-12.5h12.5 M418.7,1031.2v-37.4h37.4 M393.7,1018.7v-12.5h-12.5 M406.2,1031.2v-37.4h-37.4 M412.4,1037.4l0.1-99.9"
		/>
	<path fill="none" stroke="{{ color }}" stroke-miterlimit="10" d="M350,1000v25h-25 M381.2,1006.3l0,12.5h12.5 M400,1025h-25.1v-25
		 M368.7,993.7l0,37.4l37.4,0 M400,1050h-25.1v25 M412.5,1037.5h-100 M331.3,1018.8h12.5v-12.5 M318.8,1031.3h37.4v-37.4 M325,1050
		h25v25 M381.2,1068.7v-12.5h12.5 M368.7,1081.2v-37.4h37.4 M343.7,1068.7v-12.5h-12.5 M356.2,1081.2v-37.4h-37.4 M362.4,1087.4
		l0.1-99.9"/>
	<path fill="none" stroke="{{ color }}" stroke-miterlimit="10" d="M300,1050v25h-25 M331.2,1056.3l0,12.5l12.5,0 M350,1075h-25.1v-25
		 M318.7,1043.7v37.4l37.4,0 M350,1100h-25.1v25 M362.5,1087.5h-100 M281.3,1068.8h12.5v-12.5 M268.8,1081.3h37.4v-37.4 M275,1100
		h25v25 M331.2,1118.7v-12.5h12.5 M318.7,1131.2v-37.4h37.4 M293.7,1118.7v-12.5l-12.5,0 M306.2,1131.2v-37.4l-37.4,0 M312.4,1137.4
		l0.1-99.9"/>
	<path fill="none" stroke="{{ color }}" stroke-miterlimit="10" d="M250,1100v25h-25 M281.2,1106.3v12.5h12.5 M300,1125h-25.1v-25
		 M268.7,1093.7v37.4h37.4 M300,1150h-25.1v25 M312.5,1137.5h-100 M231.3,1118.8h12.5v-12.5 M218.8,1131.3h37.4v-37.4 M225,1150h25
		v25 M281.2,1168.7v-12.5h12.5 M268.7,1181.2v-37.4h37.4 M243.7,1168.7v-12.5h-12.5 M256.2,1181.2v-37.4h-37.4 M262.4,1187.4
		l0.1-99.9"/>
	<path fill="none" stroke="{{ color }}" stroke-miterlimit="10" d="M200,1150v25h-25 M231.2,1156.3v12.5h12.5 M250,1175h-25.1v-25
		 M218.7,1143.7v37.4h37.4 M250,1200h-25.1v25 M262.5,1187.5l-99.9,0.1 M181.3,1168.8h12.5v-12.5 M168.8,1181.3h37.4v-37.4
		 M175,1200h25v25 M231.2,1218.7v-12.5h12.5 M218.7,1231.2v-37.4h37.4 M193.7,1218.7v-12.5h-12.5 M206.2,1231.2v-37.4h-37.4
		 M212.4,1237.4l0.1-99.9"/>
	<path fill="none" stroke="{{ color }}" stroke-miterlimit="10" d="M150,1200v25h-25 M181.2,1206.3v12.5h12.5 M200,1225h-25.1v-25
		 M168.7,1193.7v37.4h37.4 M200,1250h-25.1v25 M212.5,1237.5l-99.9,0.1 M131.3,1218.8h12.5v-12.5 M118.8,1231.3h37.4v-37.4
		 M125,1250h25v25 M181.2,1268.7v-12.5h12.5 M168.7,1281.2v-37.4h37.4 M143.7,1268.7v-12.5h-12.5 M156.2,1281.2v-37.4h-37.4
		 M162.4,1287.4l0.1-99.9"/>
	<path fill="none" stroke="{{ color }}" stroke-miterlimit="10" d="M800,550v25h-25 M831.2,556.3v12.5h12.5 M850,575h-25.1v-25
		 M818.7,543.7v37.4l37.4,0 M850,600h-25.1v25 M862.5,587.5l-99.9,0.1 M781.3,568.8h12.5v-12.5 M768.8,581.3h37.4v-37.4 M775,600h25
		v25 M831.2,618.7v-12.5h12.5 M818.7,631.2v-37.4l37.4,0 M793.7,618.7v-12.5h-12.5 M806.2,631.2v-37.4h-37.4 M812.4,637.4l0.1-99.9"
		/>
	<path fill="none" stroke="{{ color }}" stroke-miterlimit="10" d="M850,500v25h-25 M881.2,506.3v12.5h12.5 M900,525h-25.1v-25
		 M868.7,493.7v37.4l37.4,0 M900,550h-25.1v25 M912.5,537.5l-99.9,0.1 M831.3,518.8h12.5v-12.5 M818.8,531.3h37.4v-37.4 M825,550h25
		v25 M881.2,568.7v-12.5h12.5 M868.7,581.2v-37.4l37.4,0 M843.7,568.7v-12.5h-12.5 M856.2,581.2v-37.4h-37.4 M862.4,587.4l0.1-99.9"
		/>
	<path fill="none" stroke="{{ color }}" stroke-miterlimit="10" d="M900,450v25h-25 M931.2,456.3v12.5h12.5 M950,475h-25.1v-25
		 M918.7,443.7v37.4h37.4 M950,500h-25.1v25 M962.5,487.5l-99.9,0.1 M881.3,468.8h12.5v-12.5 M868.8,481.3h37.4v-37.4 M875,500h25
		v25 M931.2,518.7v-12.5h12.5 M918.7,531.2v-37.4h37.4 M893.7,518.7v-12.5h-12.5 M906.2,531.2v-37.4h-37.4 M912.4,537.4l0.1-99.9"/>
	<path fill="none" stroke="{{ color }}" stroke-miterlimit="10" d="M950,400v25h-25 M981.2,406.3v12.5h12.5 M1000,425h-25.1v-25
		 M968.7,393.7v37.4h37.4 M1000,450h-25.1v25 M1012.5,437.5l-99.9,0.1 M931.3,418.8h12.5v-12.5 M918.8,431.3h37.4v-37.4 M925,450h25
		v25 M981.2,468.7v-12.5h12.5 M968.7,481.2v-37.4h37.4 M943.7,468.7v-12.5h-12.5 M956.2,481.2v-37.4h-37.4 M962.4,487.4l0.1-99.9"/>
	<path fill="none" stroke="{{ color }}" stroke-miterlimit="10" d="M1000,350v25h-25 M1031.2,356.3v12.5h12.5 M1050,375h-25.1v-25
		 M1018.7,343.7v37.4h37.4 M1050,400h-25.1v25 M1062.5,387.5l-99.9,0.1 M981.3,368.8h12.5v-12.5 M968.8,381.3h37.4v-37.4 M975,400
		h25v25 M1031.2,418.7v-12.5h12.5 M1018.7,431.2v-37.4h37.4 M993.7,418.7v-12.5h-12.5 M1006.2,431.2v-37.4h-37.4 M1012.4,437.4
		l0.1-99.9"/>
	<path fill="none" stroke="{{ color }}" stroke-miterlimit="10" d="M1050,300v25h-25 M1081.2,306.3v12.5h12.5 M1100,325h-25.1v-25
		 M1068.7,293.7l0,37.4h37.4 M1100,350h-25.1v25 M1112.5,337.5l-99.9,0.1 M1031.3,318.8h12.5v-12.5 M1018.8,331.3h37.4l0-37.4
		 M1025,350h25v25 M1081.2,368.7v-12.5h12.5 M1068.7,381.2v-37.4h37.4 M1043.7,368.7v-12.5h-12.5 M1056.2,381.2v-37.4h-37.4
		 M1062.4,387.4l0.1-99.9"/>
	<path fill="none" stroke="{{ color }}" stroke-miterlimit="10" d="M1100,250v25h-25 M1131.2,256.3v12.5h12.5 M1150,275h-25.1v-25
		 M1118.7,243.7l0,37.4h37.4 M1150,300h-25.1v25 M1162.5,287.5l-99.9,0.1 M1081.3,268.8h12.5v-12.5 M1068.8,281.3h37.4l0-37.4
		 M1075,300h25v25 M1131.2,318.7v-12.5h12.5 M1118.7,331.2v-37.4h37.4 M1093.7,318.7v-12.5h-12.5 M1106.2,331.2v-37.4h-37.4
		 M1112.4,337.4l0.1-99.9"/>
	<path fill="none" stroke="{{ color }}" stroke-miterlimit="10" d="M1150,200v25h-25 M1181.2,206.3v12.5h12.5 M1200,225h-25.1v-25
		 M1168.7,193.7l0,37.4h37.4 M1200,250h-25.1v25 M1212.5,237.5l-99.9,0.1 M1131.3,218.8h12.5v-12.5 M1118.8,231.3h37.4l0-37.4
		 M1125,250h25v25 M1181.2,268.7v-12.5h12.5 M1168.7,281.2v-37.4l37.4,0 M1143.7,268.7v-12.5h-12.5 M1156.2,281.2v-37.4h-37.4
		 M1162.4,287.4l0.1-99.9"/>
	<path fill="none" stroke="{{ color }}" stroke-miterlimit="10" d="M1200,150v25h-25 M1231.2,156.3v12.5h12.5 M1250,175h-25.1v-25
		 M1218.7,143.7l0,37.4h37.4 M1250,200h-25.1v25 M1262.5,187.5h-99.9 M1181.3,168.8h12.5v-12.5 M1168.8,181.3h37.4l0-37.4 M1175,200
		h25v25 M1231.2,218.7v-12.5h12.5 M1218.7,231.2v-37.4l37.4,0 M1193.7,218.7v-12.5h-12.5 M1206.2,231.2v-37.4h-37.4 M1212.4,237.4
		l0.1-99.9"/>
	<path fill="none" stroke="{{ color }}" stroke-miterlimit="10" d="M1250,100v25h-25 M1281.2,106.3v12.5h12.5 M1300,125h-25.1v-25
		 M1268.7,93.7l0,37.4h37.4 M1300,150h-25.1v25 M1312.5,137.5h-99.9 M1231.3,118.8h12.5v-12.5 M1218.8,131.3h37.4l0-37.4 M1225,150
		h25v25 M1281.2,168.7v-12.5h12.5 M1268.7,181.2v-37.4h37.4 M1243.7,168.7v-12.5h-12.5 M1256.2,181.2v-37.4h-37.4 M1262.4,187.4
		l0.1-99.9"/>
	<path fill="none" stroke="{{ color }}" stroke-miterlimit="10" d="M1300,50v25h-25 M1331.2,56.3v12.5h12.5 M1350,75h-25.1V50
		 M1318.7,43.7v37.4h37.4 M1350,100h-25.1v25 M1362.5,87.5l-99.9,0.1 M1281.3,68.8h12.5V56.3 M1268.8,81.3h37.4V43.9 M1275,100h25
		v25 M1331.2,118.7v-12.5h12.5 M1318.7,131.2V93.8l37.4,0 M1293.7,118.7v-12.5h-12.5 M1306.2,131.2V93.8h-37.4 M1312.4,137.4
		l0.1-99.9"/>
</g>
</svg>
