<?xml version="1.0" encoding="utf-8"?>
<!-- Generator: Adobe Illustrator 18.0.0, SVG Export Plug-In . SVG Version: 6.00 Build 0)  -->
<!DOCTYPE svg PUBLIC "-//W3C//DTD SVG 1.1//EN" "http://www.w3.org/Graphics/SVG/1.1/DTD/svg11.dtd">
<svg version="1.1" id="Layer_1" xmlns="http://www.w3.org/2000/svg" xmlns:xlink="http://www.w3.org/1999/xlink" x="0px" y="0px"
	 viewBox="-100 -100 1200 1200" enable-background="new -100 -100 1200 1200" xml:space="preserve">
<path fill="none" stroke="{{ color }}" stroke-miterlimit="10" d="M575,424.9l0,49.9l-49.9,0 M637.4,437.6l0,25l25,0 M675,475l-50.1,0
	l0-49.9 M612.4,412.4l0,74.9l74.9,0 M675,524.9l-50.1,0l0,49.9 M700,499.9l-199.9,0.1 M537.6,462.6l25,0l0-25 M512.6,487.6l74.9,0
	l0-74.9 M525,525l49.9,0l0,49.9 M637.3,562.4l0-25l25,0 M612.3,587.3l0-74.9l74.9,0 M562.4,562.4l0-25l-25,0 M587.4,587.4l0-74.9
	l-74.9,0 M599.9,599.8l0.1-199.9"/>
<path fill="none" stroke="{{ color }}" stroke-miterlimit="10" d="M475,524.9l0,49.9l-49.9,0 M537.4,537.6l0,25l25,0 M575,575l-50.1,0
	l0-49.9 M512.4,512.4l0,74.9l74.9,0 M575,624.9l-50.1,0l0,49.9 M600,599.9l-199.9,0.1 M437.6,562.6l25,0l0-25 M412.6,587.6l74.9,0
	l0-74.9 M425,625l49.9,0l0,49.9 M537.3,662.4l0-25l25,0 M512.3,687.3l0-74.9l74.9,0 M462.4,662.4l0-25l-25,0 M487.4,687.4l0-74.9
	l-74.9,0 M499.9,699.8l0.1-199.9"/>
<path fill="none" stroke="{{ color }}" stroke-miterlimit="10" d="M375,624.9l0,49.9l-49.9,0 M437.4,637.6l0,25l25,0 M475,675l-50.1,0
	l0-49.9 M412.4,612.4l0,74.9l74.9,0 M475,724.9l-50.1,0l0,49.9 M500,699.9l-199.9,0.1 M337.6,662.6l25,0l0-25 M312.6,687.6l74.9,0
	l0-74.9 M325,725l49.9,0l0,49.9 M437.3,762.4l0-25l25,0 M412.3,787.3l0-74.9l74.9,0 M362.4,762.4l0-25l-25,0 M387.4,787.4l0-74.9
	l-74.9,0 M399.9,799.8L400,600"/>
<path fill="none" stroke="{{ color }}" stroke-miterlimit="10" d="M275,724.9l0,49.9l-49.9,0 M337.4,737.6l0,25l25,0 M375,775l-50.1,0
	l0-49.9 M312.4,712.4l0,74.9l74.9,0 M375,824.9l-50.1,0l0,49.9 M400,800l-199.9,0.1 M237.6,762.6l25,0l0-25 M212.6,787.6l74.9,0
	l0-74.9 M225,825l49.9,0l0,49.9 M337.3,862.4l0-25l25,0 M312.3,887.3l0-74.9l74.9,0 M262.4,862.4l0-25l-25,0 M287.4,887.4l0-74.9
	l-74.9,0 M299.9,899.8L300,700"/>
<path fill="none" stroke="{{ color }}" stroke-miterlimit="10" d="M175,824.9l0,49.9l-49.9,0 M237.4,837.6l0,25l25,0 M275,875l-50.1,0
	l0-49.9 M212.4,812.4l0,74.9l74.9,0 M275,924.9l-50.1,0l0,49.9 M300,900l-199.9,0.1 M137.6,862.6l25,0l0-25 M112.6,887.6l74.9,0
	l0-74.9 M125,925l49.9,0l0,49.9 M237.3,962.4l0-25l25,0 M212.3,987.3l0-74.9l74.9,0 M162.4,962.4l0-25l-25,0 M187.4,987.4l0-74.9
	l-74.9,0 M199.9,999.8L200,800"/>
<path fill="none" stroke="{{ color }}" stroke-miterlimit="10" d="M75,924.9l0,49.9l-49.9,0 M137.4,937.6l0,25l25,0 M175,975l-50.1,0
	l0-49.9 M112.4,912.4l0,74.9l74.9,0 M175,1024.9l-50.1,0l0,49.9 M200,1000l-199.9,0.1 M37.6,962.6l25,0l0-25 M12.6,987.6l74.9,0
	l0-74.9 M25,1025l49.9,0l0,49.9 M137.3,1062.4l0-25l25,0 M112.3,1087.3l0-74.9l74.9,0 M62.4,1062.4l0-25l-25,0 M87.4,1087.4l0-74.9
	l-74.9,0 M99.9,1099.8L100,900"/>
<path fill="none" stroke="{{ color }}" stroke-miterlimit="10" d="M-25,1024.9l0,49.9l-49.9,0 M37.4,1037.6l0,25l25,0 M75,1075l-50.1,0
	l0-49.9 M12.4,1012.4l0,74.9l74.9,0 M75,1124.9l-50.1,0l0,49.9 M100,1100l-199.9,0.1 M-62.4,1062.6l25,0l0-25 M-87.4,1087.6l74.9,0
	l0-74.9 M-75,1125l49.9,0l0,49.9 M37.3,1162.4l0-25l25,0 M12.3,1187.3l0-74.9l74.9,0 M-37.6,1162.4l0-25l-25,0 M-12.6,1187.4l0-74.9
	l-74.9,0 M-0.1,1199.8L0,1000"/>
<path fill="none" stroke="{{ color }}" stroke-miterlimit="10" d="M675,324.9l0,49.9l-49.9,0 M737.4,337.6l0,25l25,0 M775,375l-50.1,0
	l0-49.9 M712.5,312.4l0,74.9l74.9,0 M775,424.9l-50.1,0l0,49.9 M800,399.9l-199.9,0.1 M637.6,362.6l25,0l0-25 M612.6,387.6l74.9,0
	l0-74.9 M625,425l49.9,0l0,49.9 M737.3,462.4l0-25l25,0 M712.3,487.3l0-74.9l74.9,0 M662.4,462.4l0-25l-25,0 M687.4,487.4l0-74.9
	l-74.9,0 M699.9,499.8l0.1-199.9"/>
<path fill="none" stroke="{{ color }}" stroke-miterlimit="10" d="M775,224.9l0,49.9l-49.9,0 M837.4,237.6l0,25l25,0 M875,275l-50.1,0
	l0-49.9 M812.5,212.4l0,74.9l74.9,0 M875,324.9l-50.1,0l0,49.9 M900,299.9l-199.9,0.1 M737.6,262.6l25,0l0-25 M712.6,287.6l74.9,0
	l0-74.9 M725,325l49.9,0l0,49.9 M837.3,362.4l0-25l25,0 M812.3,387.3l0-74.9l74.9,0 M762.5,362.4l0-25l-25,0 M787.4,387.4l0-74.9
	l-74.9,0 M799.9,399.8l0.1-199.9"/>
<path fill="none" stroke="{{ color }}" stroke-miterlimit="10" d="M875,124.9l0,49.9l-49.9,0 M937.4,137.6l0,25l25,0 M975,175l-50.1,0
	l0-49.9 M912.5,112.4l0,74.9l74.9,0 M975,224.9l-50.1,0l0,49.9 M1000,199.9l-199.9,0.1 M837.6,162.6l25,0l0-25 M812.6,187.6l74.9,0
	l0-74.9 M825,225l49.9,0l0,49.9 M937.3,262.4l0-25l25,0 M912.3,287.3l0-74.9l74.9,0 M862.5,262.4l0-25l-25,0 M887.4,287.4l0-74.9
	l-74.9,0 M899.9,299.8L900,99.9"/>
<path fill="none" stroke="{{ color }}" stroke-miterlimit="10" d="M975,24.9l0,49.9l-49.9,0 M1037.4,37.6l0,25l25,0 M1075,75l-50.1,0
	l0-49.9 M1012.5,12.4l0,74.9l74.9,0 M1075,124.9l-50.1,0l0,49.9 M1100,99.9l-199.9,0.1 M937.6,62.6l25,0l0-25 M912.6,87.6l74.9,0
	l0-74.9 M925,125l49.9,0l0,49.9 M1037.3,162.4l0-25l25,0 M1012.3,187.3l0-74.9l74.9,0 M962.5,162.4l0-25l-25,0 M987.4,187.4l0-74.9
	l-74.9,0 M999.9,199.8L1000-0.1"/>
<path fill="none" stroke="{{ color }}" stroke-miterlimit="10" d="M1075-75.1l0,49.9l-49.9,0 M1137.4-62.4l0,25l25,0 M1175-25l-50.1,0
	l0-49.9 M1112.5-87.6l0,74.9l74.9,0 M1175,24.9l-50.1,0l0,49.9 M1200-0.1l-199.9,0.1 M1037.6-37.4l25,0l0-25 M1012.6-12.4l74.9,0
	l0-74.9 M1025,25l49.9,0l0,49.9 M1137.3,62.4l0-25l25,0 M1112.3,87.3l0-74.9l74.9,0 M1062.5,62.4l0-25l-25,0 M1087.4,87.4l0-74.9
	l-74.9,0 M1099.9,99.8l0.1-199.9"/>
</svg>
