<svg version="1.1" xmlns="http://www.w3.org/2000/svg" xmlns:xlink="http://www.w3.org/1999/xlink" viewBox="0 0 1200 1200" width="1200" height="1200">
  <g transform="translate(200 1200)">
    <g transform="rotate(-45)">
      <svg x="0" y="0" viewBox="0 0 60 60" width="141.4" height="141.4">
        <path d=" m 25.5,27.5 q 0,0 0,0 M 1,57.5 q 0,0 0,0 m 5.5,0 q 0,0 0,0 m 4,0 q 0,0 0,0 m 5.5,0 q 0,0 0,0 m 5.5,0 q 0,0 0,0 m 4,0 q 0,0 0,0 m 5.5,0 q 0,0 0,0 m 5.5,0 q 0,0 0,0 m 4,0 q 0,0 0,0 m 5.5,0 q 0,0 0,0 m 5.5,0 q 0,0 0,0 m 5.5,0 q 0,0 0,0 m 2,-5 q 0,0 0,0 m -5.5,0 q 0,0 0,0 m -4,0 q 0,0 0,0 m -5.5,0 q 0,0 0,0 m -5.5,0 q 0,0 0,0 m -5,0 q 0,0 0,0 m -4.5,0 q 0,0 0,0 m -5.5,0 q 0,0 0,0 m -5.5,0 q 0,0 0,0 m -4,0 q 0,0 0,0 m -5.5,0 q 0,0 0,0 m -5.5,0 q 0,0 0,0 m -2,-5 q 0,0 0,0 m 5,0 q 0,0 0,0 m 4.5,0 q 0,0 0,0 m 5.5,0 q 0,0 0,0 m 5,0 q 0,0 0,0 m 4.5,0 q 0,0 0,0 m 5.5,0 q 0,0 0,0 m 5.5,0 q 0,0 0,0 m 4,0 q 0,0 0,0 m 5.5,0 q 0,0 0,0 m 5.5,0 q 0,0 0,0 m 5.5,0 q 0,0 0,0 m 2,-5 q 0,0 0,0 m -5.5,0 q 0,0 0,0 m -4,0 q 0,0 0,0 m -5,0 q 0,0 0,0 m -5.5,0 q 0,0 0,0 m -5.5,0 q 0,0 0,0 m -4.5,0 q 0,0 0,0 m -5.5,0 q 0,0 0,0 m -5.5,0 q 0,0 0,0 m -4.5,0 q 0,0 0,0 m -5,0 q 0,0 0,0 m -5.5,0 q 0,0 0,0 m -2,-5 q 0,0 0,0 m 5,0 q 0,0 0,0 m 4.5,0 q 0,0 0,0 m 5.5,0 q 0,0 0,0 m 5.5,0 q 0,0 0,0 m 4,0 q 0,0 0,0 m 5.5,0 q 0,0 0,0 m 5.5,0 q 0,0 0,0 m 4.5,0 q 0,0 0,0 m 5,0 q 0,0 0,0 m 5.5,0 q 0,0 0,0 m -30,-10 q 0,0 0,0 m 0,0 q 0,0 0,0 m -5.5,0 q 0,0 0,0 m -5.5,0 q 0,0 0,0 m -4,0 q 0,0 0,0 m -5.5,0 q 0,0 0,0 m 2,5 q 0,0 0,0 m 5.5,0 q 0,0 0,0 m 5,0 q 0,0 0,0 m 4.5,0 q 0,0 0,0 m 5.5,0 q 0,0 0,0 m 5.5,0 q 0,0 0,0 m 28,5 q 0,0 0,0 m 2,-5 q 0,0 0,0 m -5.5,0 q 0,0 0,0 m -4.5,0 q 0,0 0,0 m -5,0 q 0,0 0,0 m -5.5,0 q 0,0 0,0 m -5.5,0 q 0,0 0,0 m -2,-5 q 0,0 0,0 m 5.5,0 q 0,0 0,0 m 4,0 q 0,0 0,0 m 5.5,0 q 0,0 0,0 m 5.5,0 q 0,0 0,0 m 5.5,0 q 0,0 0,0 m 2,-5 q 0,0 0,0 m -5.5,0 q 0,0 0,0 m -4,0 q 0,0 0,0 m -5.5,0 q 0,0 0,0 m -5.5,0 q 0,0 0,0 m -5.5,0 q 0,0 0,0 m -4,0 q 0,0 0,0 m -5.5,0 q 0,0 0,0 m -5.5,0 q 0,0 0,0 m -4,0 q 0,0 0,0 m -5.5,0 q 0,0 0,0 m -5.5,0 q 0,0 0,0 M 1,17 q 0,0 0,0 m 5.5,0 q 0,0 0,0 m 4,0 q 0,0 0,0 m 5.5,0 q 0,0 0,0 m 5.5,0 q 0,0 0,0 m 4,0 q 0,0 0,0 m 5.5,0 q 0,0 0,0 m 5.5,0 q 0,0 0,0 M 57,17 q 0,0 0,0 m -5.5,0 q 0,0 0,0 M 46,17 q 0,0 0,0 m -5,0 q 0,0 0,0 m -7.5,-5 q 0,0 0,0 M 29,12 q 0,0 0,0 m -5.5,0 q 0,0 0,0 M 18,12 q 0,0 0,0 m -4,0 q 0,0 0,0 m -5.5,0 q 0,0 0,0 M 3,12 q 0,0 0,0 M 1,7 q 0,0 0,0 m 5,0 q 0,0 0,0 m 4.5,0 q 0,0 0,0 M 16,7 q 0,0 0,0 m 5,0 q 0,0 0,0 m 4.5,0 q 0,0 0,0 M 31,7 q 0,0 0,0 m 5.5,0 q 0,0 0,0 m 15,0 q 0,0 0,0 M 46,7 q 0,0 0,0 m -5,0 q 0,0 0,0 m -2.5,5 q 0,0 0,0 m 5.5,0 q 0,0 0,0 m 5.5,0 q 0,0 0,0 m 4,0 q 0,0 0,0 m 5.5,0 q 0,0 0,0 M 57,7 q 0,0 0,0 m 2,-5 q 0,0 0,0 m -5,0 q 0,0 0,0 m -4.5,0 q 0,0 0,0 M 44,2 q 0,0 0,0 m -5.5,0 q 0,0 0,0 m -5,0 q 0,0 0,0 M 29,2 q 0,0 0,0 m -5.5,0 q 0,0 0,0 M 18,2 q 0,0 0,0 m -4,0 q 0,0 0,0 M 8.5,2 q 0,0 0,0 M 3,2 q 0,0 0,0" style="fill:none;stroke:hsl(79, 100%, 42%);stroke-width:0.5;stroke-linecap:square" />
      </svg>

      <svg x="141.4" y="0" viewBox="0 0 60 60" width="141.4" height="141.4">
        <path d=" m 25.5,27.5 q 0,0 0,0 M 1,57.5 q 0,0 0,0 m 5.5,0 q 0,0 0,0 m 4,0 q 0,0 0,0 m 5.5,0 q 0,0 0,0 m 5.5,0 q 0,0 0,0 m 4,0 q 0,0 0,0 m 5.5,0 q 0,0 0,0 m 5.5,0 q 0,0 0,0 m 4,0 q 0,0 0,0 m 5.5,0 q 0,0 0,0 m 5.5,0 q 0,0 0,0 m 5.5,0 q 0,0 0,0 m 2,-5 q 0,0 0,0 m -5.5,0 q 0,0 0,0 m -4,0 q 0,0 0,0 m -5.5,0 q 0,0 0,0 m -5.5,0 q 0,0 0,0 m -5,0 q 0,0 0,0 m -4.5,0 q 0,0 0,0 m -5.5,0 q 0,0 0,0 m -5.5,0 q 0,0 0,0 m -4,0 q 0,0 0,0 m -5.5,0 q 0,0 0,0 m -5.5,0 q 0,0 0,0 m -2,-5 q 0,0 0,0 m 5,0 q 0,0 0,0 m 4.5,0 q 0,0 0,0 m 5.5,0 q 0,0 0,0 m 5,0 q 0,0 0,0 m 4.5,0 q 0,0 0,0 m 5.5,0 q 0,0 0,0 m 5.5,0 q 0,0 0,0 m 4,0 q 0,0 0,0 m 5.5,0 q 0,0 0,0 m 5.5,0 q 0,0 0,0 m 5.5,0 q 0,0 0,0 m 2,-5 q 0,0 0,0 m -5.5,0 q 0,0 0,0 m -4,0 q 0,0 0,0 m -5,0 q 0,0 0,0 m -5.5,0 q 0,0 0,0 m -5.5,0 q 0,0 0,0 m -4.5,0 q 0,0 0,0 m -5.5,0 q 0,0 0,0 m -5.5,0 q 0,0 0,0 m -4.5,0 q 0,0 0,0 m -5,0 q 0,0 0,0 m -5.5,0 q 0,0 0,0 m -2,-5 q 0,0 0,0 m 5,0 q 0,0 0,0 m 4.5,0 q 0,0 0,0 m 5.5,0 q 0,0 0,0 m 5.5,0 q 0,0 0,0 m 4,0 q 0,0 0,0 m 5.5,0 q 0,0 0,0 m 5.5,0 q 0,0 0,0 m 4.5,0 q 0,0 0,0 m 5,0 q 0,0 0,0 m 5.5,0 q 0,0 0,0 m -30,-10 q 0,0 0,0 m 0,0 q 0,0 0,0 m -5.5,0 q 0,0 0,0 m -5.5,0 q 0,0 0,0 m -4,0 q 0,0 0,0 m -5.5,0 q 0,0 0,0 m 2,5 q 0,0 0,0 m 5.5,0 q 0,0 0,0 m 5,0 q 0,0 0,0 m 4.5,0 q 0,0 0,0 m 5.5,0 q 0,0 0,0 m 5.5,0 q 0,0 0,0 m 28,5 q 0,0 0,0 m 2,-5 q 0,0 0,0 m -5.5,0 q 0,0 0,0 m -4.5,0 q 0,0 0,0 m -5,0 q 0,0 0,0 m -5.5,0 q 0,0 0,0 m -5.5,0 q 0,0 0,0 m -2,-5 q 0,0 0,0 m 5.5,0 q 0,0 0,0 m 4,0 q 0,0 0,0 m 5.5,0 q 0,0 0,0 m 5.5,0 q 0,0 0,0 m 5.5,0 q 0,0 0,0 m 2,-5 q 0,0 0,0 m -5.5,0 q 0,0 0,0 m -4,0 q 0,0 0,0 m -5.5,0 q 0,0 0,0 m -5.5,0 q 0,0 0,0 m -5.5,0 q 0,0 0,0 m -4,0 q 0,0 0,0 m -5.5,0 q 0,0 0,0 m -5.5,0 q 0,0 0,0 m -4,0 q 0,0 0,0 m -5.5,0 q 0,0 0,0 m -5.5,0 q 0,0 0,0 M 1,17 q 0,0 0,0 m 5.5,0 q 0,0 0,0 m 4,0 q 0,0 0,0 m 5.5,0 q 0,0 0,0 m 5.5,0 q 0,0 0,0 m 4,0 q 0,0 0,0 m 5.5,0 q 0,0 0,0 m 5.5,0 q 0,0 0,0 M 57,17 q 0,0 0,0 m -5.5,0 q 0,0 0,0 M 46,17 q 0,0 0,0 m -5,0 q 0,0 0,0 m -7.5,-5 q 0,0 0,0 M 29,12 q 0,0 0,0 m -5.5,0 q 0,0 0,0 M 18,12 q 0,0 0,0 m -4,0 q 0,0 0,0 m -5.5,0 q 0,0 0,0 M 3,12 q 0,0 0,0 M 1,7 q 0,0 0,0 m 5,0 q 0,0 0,0 m 4.5,0 q 0,0 0,0 M 16,7 q 0,0 0,0 m 5,0 q 0,0 0,0 m 4.5,0 q 0,0 0,0 M 31,7 q 0,0 0,0 m 5.5,0 q 0,0 0,0 m 15,0 q 0,0 0,0 M 46,7 q 0,0 0,0 m -5,0 q 0,0 0,0 m -2.5,5 q 0,0 0,0 m 5.5,0 q 0,0 0,0 m 5.5,0 q 0,0 0,0 m 4,0 q 0,0 0,0 m 5.5,0 q 0,0 0,0 M 57,7 q 0,0 0,0 m 2,-5 q 0,0 0,0 m -5,0 q 0,0 0,0 m -4.5,0 q 0,0 0,0 M 44,2 q 0,0 0,0 m -5.5,0 q 0,0 0,0 m -5,0 q 0,0 0,0 M 29,2 q 0,0 0,0 m -5.5,0 q 0,0 0,0 M 18,2 q 0,0 0,0 m -4,0 q 0,0 0,0 M 8.5,2 q 0,0 0,0 M 3,2 q 0,0 0,0" style="fill:none;stroke:hsl(79, 100%, 42%);stroke-width:0.5;stroke-linecap:square" />
      </svg>

      <svg x="282.8" y="0" viewBox="0 0 60 60" width="141.4" height="141.4">
        <path d=" m 25.5,27.5 q 0,0 0,0 M 1,57.5 q 0,0 0,0 m 5.5,0 q 0,0 0,0 m 4,0 q 0,0 0,0 m 5.5,0 q 0,0 0,0 m 5.5,0 q 0,0 0,0 m 4,0 q 0,0 0,0 m 5.5,0 q 0,0 0,0 m 5.5,0 q 0,0 0,0 m 4,0 q 0,0 0,0 m 5.5,0 q 0,0 0,0 m 5.5,0 q 0,0 0,0 m 5.5,0 q 0,0 0,0 m 2,-5 q 0,0 0,0 m -5.5,0 q 0,0 0,0 m -4,0 q 0,0 0,0 m -5.5,0 q 0,0 0,0 m -5.5,0 q 0,0 0,0 m -5,0 q 0,0 0,0 m -4.5,0 q 0,0 0,0 m -5.5,0 q 0,0 0,0 m -5.5,0 q 0,0 0,0 m -4,0 q 0,0 0,0 m -5.5,0 q 0,0 0,0 m -5.5,0 q 0,0 0,0 m -2,-5 q 0,0 0,0 m 5,0 q 0,0 0,0 m 4.5,0 q 0,0 0,0 m 5.5,0 q 0,0 0,0 m 5,0 q 0,0 0,0 m 4.5,0 q 0,0 0,0 m 5.5,0 q 0,0 0,0 m 5.5,0 q 0,0 0,0 m 4,0 q 0,0 0,0 m 5.5,0 q 0,0 0,0 m 5.5,0 q 0,0 0,0 m 5.5,0 q 0,0 0,0 m 2,-5 q 0,0 0,0 m -5.5,0 q 0,0 0,0 m -4,0 q 0,0 0,0 m -5,0 q 0,0 0,0 m -5.5,0 q 0,0 0,0 m -5.5,0 q 0,0 0,0 m -4.5,0 q 0,0 0,0 m -5.5,0 q 0,0 0,0 m -5.5,0 q 0,0 0,0 m -4.5,0 q 0,0 0,0 m -5,0 q 0,0 0,0 m -5.5,0 q 0,0 0,0 m -2,-5 q 0,0 0,0 m 5,0 q 0,0 0,0 m 4.5,0 q 0,0 0,0 m 5.5,0 q 0,0 0,0 m 5.5,0 q 0,0 0,0 m 4,0 q 0,0 0,0 m 5.5,0 q 0,0 0,0 m 5.5,0 q 0,0 0,0 m 4.5,0 q 0,0 0,0 m 5,0 q 0,0 0,0 m 5.5,0 q 0,0 0,0 m -30,-10 q 0,0 0,0 m 0,0 q 0,0 0,0 m -5.5,0 q 0,0 0,0 m -5.5,0 q 0,0 0,0 m -4,0 q 0,0 0,0 m -5.5,0 q 0,0 0,0 m 2,5 q 0,0 0,0 m 5.5,0 q 0,0 0,0 m 5,0 q 0,0 0,0 m 4.5,0 q 0,0 0,0 m 5.5,0 q 0,0 0,0 m 5.5,0 q 0,0 0,0 m 28,5 q 0,0 0,0 m 2,-5 q 0,0 0,0 m -5.5,0 q 0,0 0,0 m -4.5,0 q 0,0 0,0 m -5,0 q 0,0 0,0 m -5.5,0 q 0,0 0,0 m -5.5,0 q 0,0 0,0 m -2,-5 q 0,0 0,0 m 5.5,0 q 0,0 0,0 m 4,0 q 0,0 0,0 m 5.5,0 q 0,0 0,0 m 5.5,0 q 0,0 0,0 m 5.5,0 q 0,0 0,0 m 2,-5 q 0,0 0,0 m -5.5,0 q 0,0 0,0 m -4,0 q 0,0 0,0 m -5.5,0 q 0,0 0,0 m -5.5,0 q 0,0 0,0 m -5.5,0 q 0,0 0,0 m -4,0 q 0,0 0,0 m -5.5,0 q 0,0 0,0 m -5.5,0 q 0,0 0,0 m -4,0 q 0,0 0,0 m -5.5,0 q 0,0 0,0 m -5.5,0 q 0,0 0,0 M 1,17 q 0,0 0,0 m 5.5,0 q 0,0 0,0 m 4,0 q 0,0 0,0 m 5.5,0 q 0,0 0,0 m 5.5,0 q 0,0 0,0 m 4,0 q 0,0 0,0 m 5.5,0 q 0,0 0,0 m 5.5,0 q 0,0 0,0 M 57,17 q 0,0 0,0 m -5.5,0 q 0,0 0,0 M 46,17 q 0,0 0,0 m -5,0 q 0,0 0,0 m -7.5,-5 q 0,0 0,0 M 29,12 q 0,0 0,0 m -5.5,0 q 0,0 0,0 M 18,12 q 0,0 0,0 m -4,0 q 0,0 0,0 m -5.5,0 q 0,0 0,0 M 3,12 q 0,0 0,0 M 1,7 q 0,0 0,0 m 5,0 q 0,0 0,0 m 4.5,0 q 0,0 0,0 M 16,7 q 0,0 0,0 m 5,0 q 0,0 0,0 m 4.5,0 q 0,0 0,0 M 31,7 q 0,0 0,0 m 5.5,0 q 0,0 0,0 m 15,0 q 0,0 0,0 M 46,7 q 0,0 0,0 m -5,0 q 0,0 0,0 m -2.5,5 q 0,0 0,0 m 5.5,0 q 0,0 0,0 m 5.5,0 q 0,0 0,0 m 4,0 q 0,0 0,0 m 5.5,0 q 0,0 0,0 M 57,7 q 0,0 0,0 m 2,-5 q 0,0 0,0 m -5,0 q 0,0 0,0 m -4.5,0 q 0,0 0,0 M 44,2 q 0,0 0,0 m -5.5,0 q 0,0 0,0 m -5,0 q 0,0 0,0 M 29,2 q 0,0 0,0 m -5.5,0 q 0,0 0,0 M 18,2 q 0,0 0,0 m -4,0 q 0,0 0,0 M 8.5,2 q 0,0 0,0 M 3,2 q 0,0 0,0" style="fill:none;stroke:hsl(79, 100%, 42%);stroke-width:0.5;stroke-linecap:square" />
      </svg>

      <svg x="424.2" y="0" viewBox="0 0 60 60" width="141.4" height="141.4">
        <path d=" m 25.5,27.5 q 0,0 0,0 M 1,57.5 q 0,0 0,0 m 5.5,0 q 0,0 0,0 m 4,0 q 0,0 0,0 m 5.5,0 q 0,0 0,0 m 5.5,0 q 0,0 0,0 m 4,0 q 0,0 0,0 m 5.5,0 q 0,0 0,0 m 5.5,0 q 0,0 0,0 m 4,0 q 0,0 0,0 m 5.5,0 q 0,0 0,0 m 5.5,0 q 0,0 0,0 m 5.5,0 q 0,0 0,0 m 2,-5 q 0,0 0,0 m -5.5,0 q 0,0 0,0 m -4,0 q 0,0 0,0 m -5.5,0 q 0,0 0,0 m -5.5,0 q 0,0 0,0 m -5,0 q 0,0 0,0 m -4.5,0 q 0,0 0,0 m -5.5,0 q 0,0 0,0 m -5.5,0 q 0,0 0,0 m -4,0 q 0,0 0,0 m -5.5,0 q 0,0 0,0 m -5.5,0 q 0,0 0,0 m -2,-5 q 0,0 0,0 m 5,0 q 0,0 0,0 m 4.5,0 q 0,0 0,0 m 5.5,0 q 0,0 0,0 m 5,0 q 0,0 0,0 m 4.5,0 q 0,0 0,0 m 5.5,0 q 0,0 0,0 m 5.5,0 q 0,0 0,0 m 4,0 q 0,0 0,0 m 5.5,0 q 0,0 0,0 m 5.5,0 q 0,0 0,0 m 5.5,0 q 0,0 0,0 m 2,-5 q 0,0 0,0 m -5.5,0 q 0,0 0,0 m -4,0 q 0,0 0,0 m -5,0 q 0,0 0,0 m -5.5,0 q 0,0 0,0 m -5.5,0 q 0,0 0,0 m -4.5,0 q 0,0 0,0 m -5.5,0 q 0,0 0,0 m -5.5,0 q 0,0 0,0 m -4.5,0 q 0,0 0,0 m -5,0 q 0,0 0,0 m -5.5,0 q 0,0 0,0 m -2,-5 q 0,0 0,0 m 5,0 q 0,0 0,0 m 4.5,0 q 0,0 0,0 m 5.5,0 q 0,0 0,0 m 5.5,0 q 0,0 0,0 m 4,0 q 0,0 0,0 m 5.5,0 q 0,0 0,0 m 5.5,0 q 0,0 0,0 m 4.5,0 q 0,0 0,0 m 5,0 q 0,0 0,0 m 5.5,0 q 0,0 0,0 m -30,-10 q 0,0 0,0 m 0,0 q 0,0 0,0 m -5.5,0 q 0,0 0,0 m -5.5,0 q 0,0 0,0 m -4,0 q 0,0 0,0 m -5.5,0 q 0,0 0,0 m 2,5 q 0,0 0,0 m 5.5,0 q 0,0 0,0 m 5,0 q 0,0 0,0 m 4.5,0 q 0,0 0,0 m 5.5,0 q 0,0 0,0 m 5.5,0 q 0,0 0,0 m 28,5 q 0,0 0,0 m 2,-5 q 0,0 0,0 m -5.5,0 q 0,0 0,0 m -4.5,0 q 0,0 0,0 m -5,0 q 0,0 0,0 m -5.5,0 q 0,0 0,0 m -5.5,0 q 0,0 0,0 m -2,-5 q 0,0 0,0 m 5.5,0 q 0,0 0,0 m 4,0 q 0,0 0,0 m 5.5,0 q 0,0 0,0 m 5.5,0 q 0,0 0,0 m 5.5,0 q 0,0 0,0 m 2,-5 q 0,0 0,0 m -5.5,0 q 0,0 0,0 m -4,0 q 0,0 0,0 m -5.5,0 q 0,0 0,0 m -5.5,0 q 0,0 0,0 m -5.5,0 q 0,0 0,0 m -4,0 q 0,0 0,0 m -5.5,0 q 0,0 0,0 m -5.5,0 q 0,0 0,0 m -4,0 q 0,0 0,0 m -5.5,0 q 0,0 0,0 m -5.5,0 q 0,0 0,0 M 1,17 q 0,0 0,0 m 5.5,0 q 0,0 0,0 m 4,0 q 0,0 0,0 m 5.5,0 q 0,0 0,0 m 5.5,0 q 0,0 0,0 m 4,0 q 0,0 0,0 m 5.5,0 q 0,0 0,0 m 5.5,0 q 0,0 0,0 M 57,17 q 0,0 0,0 m -5.5,0 q 0,0 0,0 M 46,17 q 0,0 0,0 m -5,0 q 0,0 0,0 m -7.5,-5 q 0,0 0,0 M 29,12 q 0,0 0,0 m -5.5,0 q 0,0 0,0 M 18,12 q 0,0 0,0 m -4,0 q 0,0 0,0 m -5.5,0 q 0,0 0,0 M 3,12 q 0,0 0,0 M 1,7 q 0,0 0,0 m 5,0 q 0,0 0,0 m 4.5,0 q 0,0 0,0 M 16,7 q 0,0 0,0 m 5,0 q 0,0 0,0 m 4.5,0 q 0,0 0,0 M 31,7 q 0,0 0,0 m 5.5,0 q 0,0 0,0 m 15,0 q 0,0 0,0 M 46,7 q 0,0 0,0 m -5,0 q 0,0 0,0 m -2.5,5 q 0,0 0,0 m 5.5,0 q 0,0 0,0 m 5.5,0 q 0,0 0,0 m 4,0 q 0,0 0,0 m 5.5,0 q 0,0 0,0 M 57,7 q 0,0 0,0 m 2,-5 q 0,0 0,0 m -5,0 q 0,0 0,0 m -4.5,0 q 0,0 0,0 M 44,2 q 0,0 0,0 m -5.5,0 q 0,0 0,0 m -5,0 q 0,0 0,0 M 29,2 q 0,0 0,0 m -5.5,0 q 0,0 0,0 M 18,2 q 0,0 0,0 m -4,0 q 0,0 0,0 M 8.5,2 q 0,0 0,0 M 3,2 q 0,0 0,0" style="fill:none;stroke:hsl(79, 100%, 42%);stroke-width:0.5;stroke-linecap:square" />
      </svg>

      <svg x="565.6" y="0" viewBox="0 0 60 60" width="141.4" height="141.4">
        <path d=" m 25.5,27.5 q 0,0 0,0 M 1,57.5 q 0,0 0,0 m 5.5,0 q 0,0 0,0 m 4,0 q 0,0 0,0 m 5.5,0 q 0,0 0,0 m 5.5,0 q 0,0 0,0 m 4,0 q 0,0 0,0 m 5.5,0 q 0,0 0,0 m 5.5,0 q 0,0 0,0 m 4,0 q 0,0 0,0 m 5.5,0 q 0,0 0,0 m 5.5,0 q 0,0 0,0 m 5.5,0 q 0,0 0,0 m 2,-5 q 0,0 0,0 m -5.5,0 q 0,0 0,0 m -4,0 q 0,0 0,0 m -5.5,0 q 0,0 0,0 m -5.5,0 q 0,0 0,0 m -5,0 q 0,0 0,0 m -4.5,0 q 0,0 0,0 m -5.5,0 q 0,0 0,0 m -5.5,0 q 0,0 0,0 m -4,0 q 0,0 0,0 m -5.5,0 q 0,0 0,0 m -5.5,0 q 0,0 0,0 m -2,-5 q 0,0 0,0 m 5,0 q 0,0 0,0 m 4.5,0 q 0,0 0,0 m 5.5,0 q 0,0 0,0 m 5,0 q 0,0 0,0 m 4.5,0 q 0,0 0,0 m 5.5,0 q 0,0 0,0 m 5.5,0 q 0,0 0,0 m 4,0 q 0,0 0,0 m 5.5,0 q 0,0 0,0 m 5.5,0 q 0,0 0,0 m 5.5,0 q 0,0 0,0 m 2,-5 q 0,0 0,0 m -5.5,0 q 0,0 0,0 m -4,0 q 0,0 0,0 m -5,0 q 0,0 0,0 m -5.5,0 q 0,0 0,0 m -5.5,0 q 0,0 0,0 m -4.5,0 q 0,0 0,0 m -5.5,0 q 0,0 0,0 m -5.5,0 q 0,0 0,0 m -4.5,0 q 0,0 0,0 m -5,0 q 0,0 0,0 m -5.5,0 q 0,0 0,0 m -2,-5 q 0,0 0,0 m 5,0 q 0,0 0,0 m 4.5,0 q 0,0 0,0 m 5.5,0 q 0,0 0,0 m 5.5,0 q 0,0 0,0 m 4,0 q 0,0 0,0 m 5.5,0 q 0,0 0,0 m 5.5,0 q 0,0 0,0 m 4.5,0 q 0,0 0,0 m 5,0 q 0,0 0,0 m 5.5,0 q 0,0 0,0 m -30,-10 q 0,0 0,0 m 0,0 q 0,0 0,0 m -5.5,0 q 0,0 0,0 m -5.5,0 q 0,0 0,0 m -4,0 q 0,0 0,0 m -5.5,0 q 0,0 0,0 m 2,5 q 0,0 0,0 m 5.5,0 q 0,0 0,0 m 5,0 q 0,0 0,0 m 4.5,0 q 0,0 0,0 m 5.5,0 q 0,0 0,0 m 5.5,0 q 0,0 0,0 m 28,5 q 0,0 0,0 m 2,-5 q 0,0 0,0 m -5.5,0 q 0,0 0,0 m -4.5,0 q 0,0 0,0 m -5,0 q 0,0 0,0 m -5.5,0 q 0,0 0,0 m -5.5,0 q 0,0 0,0 m -2,-5 q 0,0 0,0 m 5.5,0 q 0,0 0,0 m 4,0 q 0,0 0,0 m 5.5,0 q 0,0 0,0 m 5.5,0 q 0,0 0,0 m 5.5,0 q 0,0 0,0 m 2,-5 q 0,0 0,0 m -5.5,0 q 0,0 0,0 m -4,0 q 0,0 0,0 m -5.5,0 q 0,0 0,0 m -5.5,0 q 0,0 0,0 m -5.5,0 q 0,0 0,0 m -4,0 q 0,0 0,0 m -5.5,0 q 0,0 0,0 m -5.5,0 q 0,0 0,0 m -4,0 q 0,0 0,0 m -5.5,0 q 0,0 0,0 m -5.5,0 q 0,0 0,0 M 1,17 q 0,0 0,0 m 5.5,0 q 0,0 0,0 m 4,0 q 0,0 0,0 m 5.5,0 q 0,0 0,0 m 5.5,0 q 0,0 0,0 m 4,0 q 0,0 0,0 m 5.5,0 q 0,0 0,0 m 5.5,0 q 0,0 0,0 M 57,17 q 0,0 0,0 m -5.5,0 q 0,0 0,0 M 46,17 q 0,0 0,0 m -5,0 q 0,0 0,0 m -7.5,-5 q 0,0 0,0 M 29,12 q 0,0 0,0 m -5.5,0 q 0,0 0,0 M 18,12 q 0,0 0,0 m -4,0 q 0,0 0,0 m -5.5,0 q 0,0 0,0 M 3,12 q 0,0 0,0 M 1,7 q 0,0 0,0 m 5,0 q 0,0 0,0 m 4.5,0 q 0,0 0,0 M 16,7 q 0,0 0,0 m 5,0 q 0,0 0,0 m 4.5,0 q 0,0 0,0 M 31,7 q 0,0 0,0 m 5.5,0 q 0,0 0,0 m 15,0 q 0,0 0,0 M 46,7 q 0,0 0,0 m -5,0 q 0,0 0,0 m -2.5,5 q 0,0 0,0 m 5.5,0 q 0,0 0,0 m 5.5,0 q 0,0 0,0 m 4,0 q 0,0 0,0 m 5.5,0 q 0,0 0,0 M 57,7 q 0,0 0,0 m 2,-5 q 0,0 0,0 m -5,0 q 0,0 0,0 m -4.5,0 q 0,0 0,0 M 44,2 q 0,0 0,0 m -5.5,0 q 0,0 0,0 m -5,0 q 0,0 0,0 M 29,2 q 0,0 0,0 m -5.5,0 q 0,0 0,0 M 18,2 q 0,0 0,0 m -4,0 q 0,0 0,0 M 8.5,2 q 0,0 0,0 M 3,2 q 0,0 0,0" style="fill:none;stroke:hsl(79, 100%, 42%);stroke-width:0.5;stroke-linecap:square" />
      </svg>

      <svg x="707.0" y="0" viewBox="0 0 60 60" width="141.4" height="141.4">
        <path d=" m 25.5,27.5 q 0,0 0,0 M 1,57.5 q 0,0 0,0 m 5.5,0 q 0,0 0,0 m 4,0 q 0,0 0,0 m 5.5,0 q 0,0 0,0 m 5.5,0 q 0,0 0,0 m 4,0 q 0,0 0,0 m 5.5,0 q 0,0 0,0 m 5.5,0 q 0,0 0,0 m 4,0 q 0,0 0,0 m 5.5,0 q 0,0 0,0 m 5.5,0 q 0,0 0,0 m 5.5,0 q 0,0 0,0 m 2,-5 q 0,0 0,0 m -5.5,0 q 0,0 0,0 m -4,0 q 0,0 0,0 m -5.5,0 q 0,0 0,0 m -5.5,0 q 0,0 0,0 m -5,0 q 0,0 0,0 m -4.5,0 q 0,0 0,0 m -5.5,0 q 0,0 0,0 m -5.5,0 q 0,0 0,0 m -4,0 q 0,0 0,0 m -5.5,0 q 0,0 0,0 m -5.5,0 q 0,0 0,0 m -2,-5 q 0,0 0,0 m 5,0 q 0,0 0,0 m 4.5,0 q 0,0 0,0 m 5.5,0 q 0,0 0,0 m 5,0 q 0,0 0,0 m 4.5,0 q 0,0 0,0 m 5.5,0 q 0,0 0,0 m 5.5,0 q 0,0 0,0 m 4,0 q 0,0 0,0 m 5.5,0 q 0,0 0,0 m 5.5,0 q 0,0 0,0 m 5.5,0 q 0,0 0,0 m 2,-5 q 0,0 0,0 m -5.5,0 q 0,0 0,0 m -4,0 q 0,0 0,0 m -5,0 q 0,0 0,0 m -5.5,0 q 0,0 0,0 m -5.5,0 q 0,0 0,0 m -4.5,0 q 0,0 0,0 m -5.5,0 q 0,0 0,0 m -5.5,0 q 0,0 0,0 m -4.5,0 q 0,0 0,0 m -5,0 q 0,0 0,0 m -5.5,0 q 0,0 0,0 m -2,-5 q 0,0 0,0 m 5,0 q 0,0 0,0 m 4.5,0 q 0,0 0,0 m 5.5,0 q 0,0 0,0 m 5.5,0 q 0,0 0,0 m 4,0 q 0,0 0,0 m 5.5,0 q 0,0 0,0 m 5.5,0 q 0,0 0,0 m 4.5,0 q 0,0 0,0 m 5,0 q 0,0 0,0 m 5.5,0 q 0,0 0,0 m -30,-10 q 0,0 0,0 m 0,0 q 0,0 0,0 m -5.5,0 q 0,0 0,0 m -5.5,0 q 0,0 0,0 m -4,0 q 0,0 0,0 m -5.5,0 q 0,0 0,0 m 2,5 q 0,0 0,0 m 5.5,0 q 0,0 0,0 m 5,0 q 0,0 0,0 m 4.5,0 q 0,0 0,0 m 5.5,0 q 0,0 0,0 m 5.5,0 q 0,0 0,0 m 28,5 q 0,0 0,0 m 2,-5 q 0,0 0,0 m -5.5,0 q 0,0 0,0 m -4.5,0 q 0,0 0,0 m -5,0 q 0,0 0,0 m -5.5,0 q 0,0 0,0 m -5.5,0 q 0,0 0,0 m -2,-5 q 0,0 0,0 m 5.5,0 q 0,0 0,0 m 4,0 q 0,0 0,0 m 5.5,0 q 0,0 0,0 m 5.5,0 q 0,0 0,0 m 5.5,0 q 0,0 0,0 m 2,-5 q 0,0 0,0 m -5.5,0 q 0,0 0,0 m -4,0 q 0,0 0,0 m -5.5,0 q 0,0 0,0 m -5.5,0 q 0,0 0,0 m -5.5,0 q 0,0 0,0 m -4,0 q 0,0 0,0 m -5.5,0 q 0,0 0,0 m -5.5,0 q 0,0 0,0 m -4,0 q 0,0 0,0 m -5.5,0 q 0,0 0,0 m -5.5,0 q 0,0 0,0 M 1,17 q 0,0 0,0 m 5.5,0 q 0,0 0,0 m 4,0 q 0,0 0,0 m 5.5,0 q 0,0 0,0 m 5.5,0 q 0,0 0,0 m 4,0 q 0,0 0,0 m 5.5,0 q 0,0 0,0 m 5.5,0 q 0,0 0,0 M 57,17 q 0,0 0,0 m -5.5,0 q 0,0 0,0 M 46,17 q 0,0 0,0 m -5,0 q 0,0 0,0 m -7.5,-5 q 0,0 0,0 M 29,12 q 0,0 0,0 m -5.5,0 q 0,0 0,0 M 18,12 q 0,0 0,0 m -4,0 q 0,0 0,0 m -5.5,0 q 0,0 0,0 M 3,12 q 0,0 0,0 M 1,7 q 0,0 0,0 m 5,0 q 0,0 0,0 m 4.5,0 q 0,0 0,0 M 16,7 q 0,0 0,0 m 5,0 q 0,0 0,0 m 4.5,0 q 0,0 0,0 M 31,7 q 0,0 0,0 m 5.5,0 q 0,0 0,0 m 15,0 q 0,0 0,0 M 46,7 q 0,0 0,0 m -5,0 q 0,0 0,0 m -2.5,5 q 0,0 0,0 m 5.5,0 q 0,0 0,0 m 5.5,0 q 0,0 0,0 m 4,0 q 0,0 0,0 m 5.5,0 q 0,0 0,0 M 57,7 q 0,0 0,0 m 2,-5 q 0,0 0,0 m -5,0 q 0,0 0,0 m -4.5,0 q 0,0 0,0 M 44,2 q 0,0 0,0 m -5.5,0 q 0,0 0,0 m -5,0 q 0,0 0,0 M 29,2 q 0,0 0,0 m -5.5,0 q 0,0 0,0 M 18,2 q 0,0 0,0 m -4,0 q 0,0 0,0 M 8.5,2 q 0,0 0,0 M 3,2 q 0,0 0,0" style="fill:none;stroke:hsl(79, 100%, 42%);stroke-width:0.5;stroke-linecap:square" />
      </svg>

      <svg x="848.4" y="0" viewBox="0 0 60 60" width="141.4" height="141.4">
        <path d=" m 25.5,27.5 q 0,0 0,0 M 1,57.5 q 0,0 0,0 m 5.5,0 q 0,0 0,0 m 4,0 q 0,0 0,0 m 5.5,0 q 0,0 0,0 m 5.5,0 q 0,0 0,0 m 4,0 q 0,0 0,0 m 5.5,0 q 0,0 0,0 m 5.5,0 q 0,0 0,0 m 4,0 q 0,0 0,0 m 5.5,0 q 0,0 0,0 m 5.5,0 q 0,0 0,0 m 5.5,0 q 0,0 0,0 m 2,-5 q 0,0 0,0 m -5.5,0 q 0,0 0,0 m -4,0 q 0,0 0,0 m -5.5,0 q 0,0 0,0 m -5.5,0 q 0,0 0,0 m -5,0 q 0,0 0,0 m -4.5,0 q 0,0 0,0 m -5.5,0 q 0,0 0,0 m -5.5,0 q 0,0 0,0 m -4,0 q 0,0 0,0 m -5.5,0 q 0,0 0,0 m -5.5,0 q 0,0 0,0 m -2,-5 q 0,0 0,0 m 5,0 q 0,0 0,0 m 4.5,0 q 0,0 0,0 m 5.5,0 q 0,0 0,0 m 5,0 q 0,0 0,0 m 4.5,0 q 0,0 0,0 m 5.5,0 q 0,0 0,0 m 5.5,0 q 0,0 0,0 m 4,0 q 0,0 0,0 m 5.5,0 q 0,0 0,0 m 5.5,0 q 0,0 0,0 m 5.5,0 q 0,0 0,0 m 2,-5 q 0,0 0,0 m -5.5,0 q 0,0 0,0 m -4,0 q 0,0 0,0 m -5,0 q 0,0 0,0 m -5.5,0 q 0,0 0,0 m -5.5,0 q 0,0 0,0 m -4.5,0 q 0,0 0,0 m -5.5,0 q 0,0 0,0 m -5.5,0 q 0,0 0,0 m -4.5,0 q 0,0 0,0 m -5,0 q 0,0 0,0 m -5.5,0 q 0,0 0,0 m -2,-5 q 0,0 0,0 m 5,0 q 0,0 0,0 m 4.5,0 q 0,0 0,0 m 5.5,0 q 0,0 0,0 m 5.5,0 q 0,0 0,0 m 4,0 q 0,0 0,0 m 5.5,0 q 0,0 0,0 m 5.5,0 q 0,0 0,0 m 4.5,0 q 0,0 0,0 m 5,0 q 0,0 0,0 m 5.5,0 q 0,0 0,0 m -30,-10 q 0,0 0,0 m 0,0 q 0,0 0,0 m -5.5,0 q 0,0 0,0 m -5.5,0 q 0,0 0,0 m -4,0 q 0,0 0,0 m -5.5,0 q 0,0 0,0 m 2,5 q 0,0 0,0 m 5.5,0 q 0,0 0,0 m 5,0 q 0,0 0,0 m 4.5,0 q 0,0 0,0 m 5.5,0 q 0,0 0,0 m 5.5,0 q 0,0 0,0 m 28,5 q 0,0 0,0 m 2,-5 q 0,0 0,0 m -5.5,0 q 0,0 0,0 m -4.5,0 q 0,0 0,0 m -5,0 q 0,0 0,0 m -5.5,0 q 0,0 0,0 m -5.5,0 q 0,0 0,0 m -2,-5 q 0,0 0,0 m 5.5,0 q 0,0 0,0 m 4,0 q 0,0 0,0 m 5.5,0 q 0,0 0,0 m 5.5,0 q 0,0 0,0 m 5.5,0 q 0,0 0,0 m 2,-5 q 0,0 0,0 m -5.5,0 q 0,0 0,0 m -4,0 q 0,0 0,0 m -5.5,0 q 0,0 0,0 m -5.5,0 q 0,0 0,0 m -5.5,0 q 0,0 0,0 m -4,0 q 0,0 0,0 m -5.5,0 q 0,0 0,0 m -5.5,0 q 0,0 0,0 m -4,0 q 0,0 0,0 m -5.5,0 q 0,0 0,0 m -5.5,0 q 0,0 0,0 M 1,17 q 0,0 0,0 m 5.5,0 q 0,0 0,0 m 4,0 q 0,0 0,0 m 5.5,0 q 0,0 0,0 m 5.5,0 q 0,0 0,0 m 4,0 q 0,0 0,0 m 5.5,0 q 0,0 0,0 m 5.5,0 q 0,0 0,0 M 57,17 q 0,0 0,0 m -5.5,0 q 0,0 0,0 M 46,17 q 0,0 0,0 m -5,0 q 0,0 0,0 m -7.5,-5 q 0,0 0,0 M 29,12 q 0,0 0,0 m -5.5,0 q 0,0 0,0 M 18,12 q 0,0 0,0 m -4,0 q 0,0 0,0 m -5.5,0 q 0,0 0,0 M 3,12 q 0,0 0,0 M 1,7 q 0,0 0,0 m 5,0 q 0,0 0,0 m 4.5,0 q 0,0 0,0 M 16,7 q 0,0 0,0 m 5,0 q 0,0 0,0 m 4.5,0 q 0,0 0,0 M 31,7 q 0,0 0,0 m 5.5,0 q 0,0 0,0 m 15,0 q 0,0 0,0 M 46,7 q 0,0 0,0 m -5,0 q 0,0 0,0 m -2.5,5 q 0,0 0,0 m 5.5,0 q 0,0 0,0 m 5.5,0 q 0,0 0,0 m 4,0 q 0,0 0,0 m 5.5,0 q 0,0 0,0 M 57,7 q 0,0 0,0 m 2,-5 q 0,0 0,0 m -5,0 q 0,0 0,0 m -4.5,0 q 0,0 0,0 M 44,2 q 0,0 0,0 m -5.5,0 q 0,0 0,0 m -5,0 q 0,0 0,0 M 29,2 q 0,0 0,0 m -5.5,0 q 0,0 0,0 M 18,2 q 0,0 0,0 m -4,0 q 0,0 0,0 M 8.5,2 q 0,0 0,0 M 3,2 q 0,0 0,0" style="fill:none;stroke:hsl(79, 100%, 42%);stroke-width:0.5;stroke-linecap:square" />
      </svg>

      <svg x="989.8" y="0" viewBox="0 0 60 60" width="141.4" height="141.4">
        <path d=" m 25.5,27.5 q 0,0 0,0 M 1,57.5 q 0,0 0,0 m 5.5,0 q 0,0 0,0 m 4,0 q 0,0 0,0 m 5.5,0 q 0,0 0,0 m 5.5,0 q 0,0 0,0 m 4,0 q 0,0 0,0 m 5.5,0 q 0,0 0,0 m 5.5,0 q 0,0 0,0 m 4,0 q 0,0 0,0 m 5.5,0 q 0,0 0,0 m 5.5,0 q 0,0 0,0 m 5.5,0 q 0,0 0,0 m 2,-5 q 0,0 0,0 m -5.5,0 q 0,0 0,0 m -4,0 q 0,0 0,0 m -5.5,0 q 0,0 0,0 m -5.5,0 q 0,0 0,0 m -5,0 q 0,0 0,0 m -4.5,0 q 0,0 0,0 m -5.5,0 q 0,0 0,0 m -5.5,0 q 0,0 0,0 m -4,0 q 0,0 0,0 m -5.5,0 q 0,0 0,0 m -5.5,0 q 0,0 0,0 m -2,-5 q 0,0 0,0 m 5,0 q 0,0 0,0 m 4.5,0 q 0,0 0,0 m 5.5,0 q 0,0 0,0 m 5,0 q 0,0 0,0 m 4.5,0 q 0,0 0,0 m 5.5,0 q 0,0 0,0 m 5.5,0 q 0,0 0,0 m 4,0 q 0,0 0,0 m 5.5,0 q 0,0 0,0 m 5.5,0 q 0,0 0,0 m 5.5,0 q 0,0 0,0 m 2,-5 q 0,0 0,0 m -5.5,0 q 0,0 0,0 m -4,0 q 0,0 0,0 m -5,0 q 0,0 0,0 m -5.5,0 q 0,0 0,0 m -5.5,0 q 0,0 0,0 m -4.5,0 q 0,0 0,0 m -5.5,0 q 0,0 0,0 m -5.5,0 q 0,0 0,0 m -4.5,0 q 0,0 0,0 m -5,0 q 0,0 0,0 m -5.5,0 q 0,0 0,0 m -2,-5 q 0,0 0,0 m 5,0 q 0,0 0,0 m 4.5,0 q 0,0 0,0 m 5.5,0 q 0,0 0,0 m 5.5,0 q 0,0 0,0 m 4,0 q 0,0 0,0 m 5.5,0 q 0,0 0,0 m 5.5,0 q 0,0 0,0 m 4.5,0 q 0,0 0,0 m 5,0 q 0,0 0,0 m 5.5,0 q 0,0 0,0 m -30,-10 q 0,0 0,0 m 0,0 q 0,0 0,0 m -5.5,0 q 0,0 0,0 m -5.5,0 q 0,0 0,0 m -4,0 q 0,0 0,0 m -5.5,0 q 0,0 0,0 m 2,5 q 0,0 0,0 m 5.5,0 q 0,0 0,0 m 5,0 q 0,0 0,0 m 4.5,0 q 0,0 0,0 m 5.5,0 q 0,0 0,0 m 5.5,0 q 0,0 0,0 m 28,5 q 0,0 0,0 m 2,-5 q 0,0 0,0 m -5.5,0 q 0,0 0,0 m -4.5,0 q 0,0 0,0 m -5,0 q 0,0 0,0 m -5.5,0 q 0,0 0,0 m -5.5,0 q 0,0 0,0 m -2,-5 q 0,0 0,0 m 5.5,0 q 0,0 0,0 m 4,0 q 0,0 0,0 m 5.5,0 q 0,0 0,0 m 5.5,0 q 0,0 0,0 m 5.5,0 q 0,0 0,0 m 2,-5 q 0,0 0,0 m -5.5,0 q 0,0 0,0 m -4,0 q 0,0 0,0 m -5.5,0 q 0,0 0,0 m -5.5,0 q 0,0 0,0 m -5.5,0 q 0,0 0,0 m -4,0 q 0,0 0,0 m -5.5,0 q 0,0 0,0 m -5.5,0 q 0,0 0,0 m -4,0 q 0,0 0,0 m -5.5,0 q 0,0 0,0 m -5.5,0 q 0,0 0,0 M 1,17 q 0,0 0,0 m 5.5,0 q 0,0 0,0 m 4,0 q 0,0 0,0 m 5.5,0 q 0,0 0,0 m 5.5,0 q 0,0 0,0 m 4,0 q 0,0 0,0 m 5.5,0 q 0,0 0,0 m 5.5,0 q 0,0 0,0 M 57,17 q 0,0 0,0 m -5.5,0 q 0,0 0,0 M 46,17 q 0,0 0,0 m -5,0 q 0,0 0,0 m -7.5,-5 q 0,0 0,0 M 29,12 q 0,0 0,0 m -5.5,0 q 0,0 0,0 M 18,12 q 0,0 0,0 m -4,0 q 0,0 0,0 m -5.5,0 q 0,0 0,0 M 3,12 q 0,0 0,0 M 1,7 q 0,0 0,0 m 5,0 q 0,0 0,0 m 4.5,0 q 0,0 0,0 M 16,7 q 0,0 0,0 m 5,0 q 0,0 0,0 m 4.5,0 q 0,0 0,0 M 31,7 q 0,0 0,0 m 5.5,0 q 0,0 0,0 m 15,0 q 0,0 0,0 M 46,7 q 0,0 0,0 m -5,0 q 0,0 0,0 m -2.5,5 q 0,0 0,0 m 5.5,0 q 0,0 0,0 m 5.5,0 q 0,0 0,0 m 4,0 q 0,0 0,0 m 5.5,0 q 0,0 0,0 M 57,7 q 0,0 0,0 m 2,-5 q 0,0 0,0 m -5,0 q 0,0 0,0 m -4.5,0 q 0,0 0,0 M 44,2 q 0,0 0,0 m -5.5,0 q 0,0 0,0 m -5,0 q 0,0 0,0 M 29,2 q 0,0 0,0 m -5.5,0 q 0,0 0,0 M 18,2 q 0,0 0,0 m -4,0 q 0,0 0,0 M 8.5,2 q 0,0 0,0 M 3,2 q 0,0 0,0" style="fill:none;stroke:hsl(79, 100%, 42%);stroke-width:0.5;stroke-linecap:square" />
      </svg>

      <svg x="1131.2" y="0" viewBox="0 0 60 60" width="141.4" height="141.4">
        <path d=" m 25.5,27.5 q 0,0 0,0 M 1,57.5 q 0,0 0,0 m 5.5,0 q 0,0 0,0 m 4,0 q 0,0 0,0 m 5.5,0 q 0,0 0,0 m 5.5,0 q 0,0 0,0 m 4,0 q 0,0 0,0 m 5.5,0 q 0,0 0,0 m 5.5,0 q 0,0 0,0 m 4,0 q 0,0 0,0 m 5.5,0 q 0,0 0,0 m 5.5,0 q 0,0 0,0 m 5.5,0 q 0,0 0,0 m 2,-5 q 0,0 0,0 m -5.5,0 q 0,0 0,0 m -4,0 q 0,0 0,0 m -5.5,0 q 0,0 0,0 m -5.5,0 q 0,0 0,0 m -5,0 q 0,0 0,0 m -4.5,0 q 0,0 0,0 m -5.5,0 q 0,0 0,0 m -5.5,0 q 0,0 0,0 m -4,0 q 0,0 0,0 m -5.5,0 q 0,0 0,0 m -5.5,0 q 0,0 0,0 m -2,-5 q 0,0 0,0 m 5,0 q 0,0 0,0 m 4.5,0 q 0,0 0,0 m 5.5,0 q 0,0 0,0 m 5,0 q 0,0 0,0 m 4.5,0 q 0,0 0,0 m 5.5,0 q 0,0 0,0 m 5.5,0 q 0,0 0,0 m 4,0 q 0,0 0,0 m 5.5,0 q 0,0 0,0 m 5.5,0 q 0,0 0,0 m 5.5,0 q 0,0 0,0 m 2,-5 q 0,0 0,0 m -5.5,0 q 0,0 0,0 m -4,0 q 0,0 0,0 m -5,0 q 0,0 0,0 m -5.5,0 q 0,0 0,0 m -5.5,0 q 0,0 0,0 m -4.5,0 q 0,0 0,0 m -5.5,0 q 0,0 0,0 m -5.5,0 q 0,0 0,0 m -4.5,0 q 0,0 0,0 m -5,0 q 0,0 0,0 m -5.5,0 q 0,0 0,0 m -2,-5 q 0,0 0,0 m 5,0 q 0,0 0,0 m 4.5,0 q 0,0 0,0 m 5.5,0 q 0,0 0,0 m 5.5,0 q 0,0 0,0 m 4,0 q 0,0 0,0 m 5.5,0 q 0,0 0,0 m 5.5,0 q 0,0 0,0 m 4.5,0 q 0,0 0,0 m 5,0 q 0,0 0,0 m 5.5,0 q 0,0 0,0 m -30,-10 q 0,0 0,0 m 0,0 q 0,0 0,0 m -5.5,0 q 0,0 0,0 m -5.5,0 q 0,0 0,0 m -4,0 q 0,0 0,0 m -5.5,0 q 0,0 0,0 m 2,5 q 0,0 0,0 m 5.5,0 q 0,0 0,0 m 5,0 q 0,0 0,0 m 4.5,0 q 0,0 0,0 m 5.5,0 q 0,0 0,0 m 5.5,0 q 0,0 0,0 m 28,5 q 0,0 0,0 m 2,-5 q 0,0 0,0 m -5.5,0 q 0,0 0,0 m -4.5,0 q 0,0 0,0 m -5,0 q 0,0 0,0 m -5.5,0 q 0,0 0,0 m -5.5,0 q 0,0 0,0 m -2,-5 q 0,0 0,0 m 5.5,0 q 0,0 0,0 m 4,0 q 0,0 0,0 m 5.5,0 q 0,0 0,0 m 5.5,0 q 0,0 0,0 m 5.5,0 q 0,0 0,0 m 2,-5 q 0,0 0,0 m -5.5,0 q 0,0 0,0 m -4,0 q 0,0 0,0 m -5.5,0 q 0,0 0,0 m -5.5,0 q 0,0 0,0 m -5.5,0 q 0,0 0,0 m -4,0 q 0,0 0,0 m -5.5,0 q 0,0 0,0 m -5.5,0 q 0,0 0,0 m -4,0 q 0,0 0,0 m -5.5,0 q 0,0 0,0 m -5.5,0 q 0,0 0,0 M 1,17 q 0,0 0,0 m 5.5,0 q 0,0 0,0 m 4,0 q 0,0 0,0 m 5.5,0 q 0,0 0,0 m 5.5,0 q 0,0 0,0 m 4,0 q 0,0 0,0 m 5.5,0 q 0,0 0,0 m 5.5,0 q 0,0 0,0 M 57,17 q 0,0 0,0 m -5.5,0 q 0,0 0,0 M 46,17 q 0,0 0,0 m -5,0 q 0,0 0,0 m -7.5,-5 q 0,0 0,0 M 29,12 q 0,0 0,0 m -5.5,0 q 0,0 0,0 M 18,12 q 0,0 0,0 m -4,0 q 0,0 0,0 m -5.5,0 q 0,0 0,0 M 3,12 q 0,0 0,0 M 1,7 q 0,0 0,0 m 5,0 q 0,0 0,0 m 4.5,0 q 0,0 0,0 M 16,7 q 0,0 0,0 m 5,0 q 0,0 0,0 m 4.5,0 q 0,0 0,0 M 31,7 q 0,0 0,0 m 5.5,0 q 0,0 0,0 m 15,0 q 0,0 0,0 M 46,7 q 0,0 0,0 m -5,0 q 0,0 0,0 m -2.5,5 q 0,0 0,0 m 5.5,0 q 0,0 0,0 m 5.5,0 q 0,0 0,0 m 4,0 q 0,0 0,0 m 5.5,0 q 0,0 0,0 M 57,7 q 0,0 0,0 m 2,-5 q 0,0 0,0 m -5,0 q 0,0 0,0 m -4.5,0 q 0,0 0,0 M 44,2 q 0,0 0,0 m -5.5,0 q 0,0 0,0 m -5,0 q 0,0 0,0 M 29,2 q 0,0 0,0 m -5.5,0 q 0,0 0,0 M 18,2 q 0,0 0,0 m -4,0 q 0,0 0,0 M 8.5,2 q 0,0 0,0 M 3,2 q 0,0 0,0" style="fill:none;stroke:hsl(79, 100%, 42%);stroke-width:0.5;stroke-linecap:square" />
      </svg>

      <svg x="1272.6" y="0" viewBox="0 0 60 60" width="141.4" height="141.4">
        <path d=" m 25.5,27.5 q 0,0 0,0 M 1,57.5 q 0,0 0,0 m 5.5,0 q 0,0 0,0 m 4,0 q 0,0 0,0 m 5.5,0 q 0,0 0,0 m 5.5,0 q 0,0 0,0 m 4,0 q 0,0 0,0 m 5.5,0 q 0,0 0,0 m 5.5,0 q 0,0 0,0 m 4,0 q 0,0 0,0 m 5.5,0 q 0,0 0,0 m 5.5,0 q 0,0 0,0 m 5.5,0 q 0,0 0,0 m 2,-5 q 0,0 0,0 m -5.5,0 q 0,0 0,0 m -4,0 q 0,0 0,0 m -5.5,0 q 0,0 0,0 m -5.5,0 q 0,0 0,0 m -5,0 q 0,0 0,0 m -4.5,0 q 0,0 0,0 m -5.5,0 q 0,0 0,0 m -5.5,0 q 0,0 0,0 m -4,0 q 0,0 0,0 m -5.5,0 q 0,0 0,0 m -5.5,0 q 0,0 0,0 m -2,-5 q 0,0 0,0 m 5,0 q 0,0 0,0 m 4.5,0 q 0,0 0,0 m 5.5,0 q 0,0 0,0 m 5,0 q 0,0 0,0 m 4.5,0 q 0,0 0,0 m 5.5,0 q 0,0 0,0 m 5.5,0 q 0,0 0,0 m 4,0 q 0,0 0,0 m 5.5,0 q 0,0 0,0 m 5.5,0 q 0,0 0,0 m 5.5,0 q 0,0 0,0 m 2,-5 q 0,0 0,0 m -5.5,0 q 0,0 0,0 m -4,0 q 0,0 0,0 m -5,0 q 0,0 0,0 m -5.5,0 q 0,0 0,0 m -5.5,0 q 0,0 0,0 m -4.5,0 q 0,0 0,0 m -5.5,0 q 0,0 0,0 m -5.5,0 q 0,0 0,0 m -4.5,0 q 0,0 0,0 m -5,0 q 0,0 0,0 m -5.5,0 q 0,0 0,0 m -2,-5 q 0,0 0,0 m 5,0 q 0,0 0,0 m 4.5,0 q 0,0 0,0 m 5.5,0 q 0,0 0,0 m 5.5,0 q 0,0 0,0 m 4,0 q 0,0 0,0 m 5.5,0 q 0,0 0,0 m 5.5,0 q 0,0 0,0 m 4.5,0 q 0,0 0,0 m 5,0 q 0,0 0,0 m 5.5,0 q 0,0 0,0 m -30,-10 q 0,0 0,0 m 0,0 q 0,0 0,0 m -5.5,0 q 0,0 0,0 m -5.5,0 q 0,0 0,0 m -4,0 q 0,0 0,0 m -5.5,0 q 0,0 0,0 m 2,5 q 0,0 0,0 m 5.5,0 q 0,0 0,0 m 5,0 q 0,0 0,0 m 4.5,0 q 0,0 0,0 m 5.5,0 q 0,0 0,0 m 5.5,0 q 0,0 0,0 m 28,5 q 0,0 0,0 m 2,-5 q 0,0 0,0 m -5.5,0 q 0,0 0,0 m -4.5,0 q 0,0 0,0 m -5,0 q 0,0 0,0 m -5.5,0 q 0,0 0,0 m -5.5,0 q 0,0 0,0 m -2,-5 q 0,0 0,0 m 5.5,0 q 0,0 0,0 m 4,0 q 0,0 0,0 m 5.5,0 q 0,0 0,0 m 5.5,0 q 0,0 0,0 m 5.5,0 q 0,0 0,0 m 2,-5 q 0,0 0,0 m -5.5,0 q 0,0 0,0 m -4,0 q 0,0 0,0 m -5.5,0 q 0,0 0,0 m -5.5,0 q 0,0 0,0 m -5.5,0 q 0,0 0,0 m -4,0 q 0,0 0,0 m -5.5,0 q 0,0 0,0 m -5.5,0 q 0,0 0,0 m -4,0 q 0,0 0,0 m -5.5,0 q 0,0 0,0 m -5.5,0 q 0,0 0,0 M 1,17 q 0,0 0,0 m 5.5,0 q 0,0 0,0 m 4,0 q 0,0 0,0 m 5.5,0 q 0,0 0,0 m 5.5,0 q 0,0 0,0 m 4,0 q 0,0 0,0 m 5.5,0 q 0,0 0,0 m 5.5,0 q 0,0 0,0 M 57,17 q 0,0 0,0 m -5.5,0 q 0,0 0,0 M 46,17 q 0,0 0,0 m -5,0 q 0,0 0,0 m -7.5,-5 q 0,0 0,0 M 29,12 q 0,0 0,0 m -5.5,0 q 0,0 0,0 M 18,12 q 0,0 0,0 m -4,0 q 0,0 0,0 m -5.5,0 q 0,0 0,0 M 3,12 q 0,0 0,0 M 1,7 q 0,0 0,0 m 5,0 q 0,0 0,0 m 4.5,0 q 0,0 0,0 M 16,7 q 0,0 0,0 m 5,0 q 0,0 0,0 m 4.5,0 q 0,0 0,0 M 31,7 q 0,0 0,0 m 5.5,0 q 0,0 0,0 m 15,0 q 0,0 0,0 M 46,7 q 0,0 0,0 m -5,0 q 0,0 0,0 m -2.5,5 q 0,0 0,0 m 5.5,0 q 0,0 0,0 m 5.5,0 q 0,0 0,0 m 4,0 q 0,0 0,0 m 5.5,0 q 0,0 0,0 M 57,7 q 0,0 0,0 m 2,-5 q 0,0 0,0 m -5,0 q 0,0 0,0 m -4.5,0 q 0,0 0,0 M 44,2 q 0,0 0,0 m -5.5,0 q 0,0 0,0 m -5,0 q 0,0 0,0 M 29,2 q 0,0 0,0 m -5.5,0 q 0,0 0,0 M 18,2 q 0,0 0,0 m -4,0 q 0,0 0,0 M 8.5,2 q 0,0 0,0 M 3,2 q 0,0 0,0" style="fill:none;stroke:hsl(79, 100%, 42%);stroke-width:0.5;stroke-linecap:square" />
      </svg>

      <svg x="1414.0" y="0" viewBox="0 0 60 60" width="141.4" height="141.4">
        <path d=" m 25.5,27.5 q 0,0 0,0 M 1,57.5 q 0,0 0,0 m 5.5,0 q 0,0 0,0 m 4,0 q 0,0 0,0 m 5.5,0 q 0,0 0,0 m 5.5,0 q 0,0 0,0 m 4,0 q 0,0 0,0 m 5.5,0 q 0,0 0,0 m 5.5,0 q 0,0 0,0 m 4,0 q 0,0 0,0 m 5.5,0 q 0,0 0,0 m 5.5,0 q 0,0 0,0 m 5.5,0 q 0,0 0,0 m 2,-5 q 0,0 0,0 m -5.5,0 q 0,0 0,0 m -4,0 q 0,0 0,0 m -5.5,0 q 0,0 0,0 m -5.5,0 q 0,0 0,0 m -5,0 q 0,0 0,0 m -4.5,0 q 0,0 0,0 m -5.5,0 q 0,0 0,0 m -5.5,0 q 0,0 0,0 m -4,0 q 0,0 0,0 m -5.5,0 q 0,0 0,0 m -5.5,0 q 0,0 0,0 m -2,-5 q 0,0 0,0 m 5,0 q 0,0 0,0 m 4.5,0 q 0,0 0,0 m 5.5,0 q 0,0 0,0 m 5,0 q 0,0 0,0 m 4.5,0 q 0,0 0,0 m 5.5,0 q 0,0 0,0 m 5.5,0 q 0,0 0,0 m 4,0 q 0,0 0,0 m 5.5,0 q 0,0 0,0 m 5.5,0 q 0,0 0,0 m 5.5,0 q 0,0 0,0 m 2,-5 q 0,0 0,0 m -5.5,0 q 0,0 0,0 m -4,0 q 0,0 0,0 m -5,0 q 0,0 0,0 m -5.5,0 q 0,0 0,0 m -5.5,0 q 0,0 0,0 m -4.5,0 q 0,0 0,0 m -5.5,0 q 0,0 0,0 m -5.5,0 q 0,0 0,0 m -4.5,0 q 0,0 0,0 m -5,0 q 0,0 0,0 m -5.5,0 q 0,0 0,0 m -2,-5 q 0,0 0,0 m 5,0 q 0,0 0,0 m 4.5,0 q 0,0 0,0 m 5.5,0 q 0,0 0,0 m 5.5,0 q 0,0 0,0 m 4,0 q 0,0 0,0 m 5.5,0 q 0,0 0,0 m 5.5,0 q 0,0 0,0 m 4.5,0 q 0,0 0,0 m 5,0 q 0,0 0,0 m 5.5,0 q 0,0 0,0 m -30,-10 q 0,0 0,0 m 0,0 q 0,0 0,0 m -5.5,0 q 0,0 0,0 m -5.5,0 q 0,0 0,0 m -4,0 q 0,0 0,0 m -5.5,0 q 0,0 0,0 m 2,5 q 0,0 0,0 m 5.5,0 q 0,0 0,0 m 5,0 q 0,0 0,0 m 4.5,0 q 0,0 0,0 m 5.5,0 q 0,0 0,0 m 5.5,0 q 0,0 0,0 m 28,5 q 0,0 0,0 m 2,-5 q 0,0 0,0 m -5.5,0 q 0,0 0,0 m -4.5,0 q 0,0 0,0 m -5,0 q 0,0 0,0 m -5.5,0 q 0,0 0,0 m -5.5,0 q 0,0 0,0 m -2,-5 q 0,0 0,0 m 5.5,0 q 0,0 0,0 m 4,0 q 0,0 0,0 m 5.5,0 q 0,0 0,0 m 5.5,0 q 0,0 0,0 m 5.5,0 q 0,0 0,0 m 2,-5 q 0,0 0,0 m -5.5,0 q 0,0 0,0 m -4,0 q 0,0 0,0 m -5.5,0 q 0,0 0,0 m -5.5,0 q 0,0 0,0 m -5.5,0 q 0,0 0,0 m -4,0 q 0,0 0,0 m -5.5,0 q 0,0 0,0 m -5.5,0 q 0,0 0,0 m -4,0 q 0,0 0,0 m -5.5,0 q 0,0 0,0 m -5.5,0 q 0,0 0,0 M 1,17 q 0,0 0,0 m 5.5,0 q 0,0 0,0 m 4,0 q 0,0 0,0 m 5.5,0 q 0,0 0,0 m 5.5,0 q 0,0 0,0 m 4,0 q 0,0 0,0 m 5.5,0 q 0,0 0,0 m 5.5,0 q 0,0 0,0 M 57,17 q 0,0 0,0 m -5.5,0 q 0,0 0,0 M 46,17 q 0,0 0,0 m -5,0 q 0,0 0,0 m -7.5,-5 q 0,0 0,0 M 29,12 q 0,0 0,0 m -5.5,0 q 0,0 0,0 M 18,12 q 0,0 0,0 m -4,0 q 0,0 0,0 m -5.5,0 q 0,0 0,0 M 3,12 q 0,0 0,0 M 1,7 q 0,0 0,0 m 5,0 q 0,0 0,0 m 4.5,0 q 0,0 0,0 M 16,7 q 0,0 0,0 m 5,0 q 0,0 0,0 m 4.5,0 q 0,0 0,0 M 31,7 q 0,0 0,0 m 5.5,0 q 0,0 0,0 m 15,0 q 0,0 0,0 M 46,7 q 0,0 0,0 m -5,0 q 0,0 0,0 m -2.5,5 q 0,0 0,0 m 5.5,0 q 0,0 0,0 m 5.5,0 q 0,0 0,0 m 4,0 q 0,0 0,0 m 5.5,0 q 0,0 0,0 M 57,7 q 0,0 0,0 m 2,-5 q 0,0 0,0 m -5,0 q 0,0 0,0 m -4.5,0 q 0,0 0,0 M 44,2 q 0,0 0,0 m -5.5,0 q 0,0 0,0 m -5,0 q 0,0 0,0 M 29,2 q 0,0 0,0 m -5.5,0 q 0,0 0,0 M 18,2 q 0,0 0,0 m -4,0 q 0,0 0,0 M 8.5,2 q 0,0 0,0 M 3,2 q 0,0 0,0" style="fill:none;stroke:hsl(79, 100%, 42%);stroke-width:0.5;stroke-linecap:square" />
      </svg>

      <svg x="1555.4" y="0" viewBox="0 0 60 60" width="141.4" height="141.4">
        <path d=" m 25.5,27.5 q 0,0 0,0 M 1,57.5 q 0,0 0,0 m 5.5,0 q 0,0 0,0 m 4,0 q 0,0 0,0 m 5.5,0 q 0,0 0,0 m 5.5,0 q 0,0 0,0 m 4,0 q 0,0 0,0 m 5.5,0 q 0,0 0,0 m 5.5,0 q 0,0 0,0 m 4,0 q 0,0 0,0 m 5.5,0 q 0,0 0,0 m 5.5,0 q 0,0 0,0 m 5.5,0 q 0,0 0,0 m 2,-5 q 0,0 0,0 m -5.5,0 q 0,0 0,0 m -4,0 q 0,0 0,0 m -5.5,0 q 0,0 0,0 m -5.5,0 q 0,0 0,0 m -5,0 q 0,0 0,0 m -4.5,0 q 0,0 0,0 m -5.5,0 q 0,0 0,0 m -5.5,0 q 0,0 0,0 m -4,0 q 0,0 0,0 m -5.5,0 q 0,0 0,0 m -5.5,0 q 0,0 0,0 m -2,-5 q 0,0 0,0 m 5,0 q 0,0 0,0 m 4.5,0 q 0,0 0,0 m 5.5,0 q 0,0 0,0 m 5,0 q 0,0 0,0 m 4.5,0 q 0,0 0,0 m 5.5,0 q 0,0 0,0 m 5.5,0 q 0,0 0,0 m 4,0 q 0,0 0,0 m 5.5,0 q 0,0 0,0 m 5.5,0 q 0,0 0,0 m 5.5,0 q 0,0 0,0 m 2,-5 q 0,0 0,0 m -5.5,0 q 0,0 0,0 m -4,0 q 0,0 0,0 m -5,0 q 0,0 0,0 m -5.5,0 q 0,0 0,0 m -5.5,0 q 0,0 0,0 m -4.5,0 q 0,0 0,0 m -5.5,0 q 0,0 0,0 m -5.5,0 q 0,0 0,0 m -4.5,0 q 0,0 0,0 m -5,0 q 0,0 0,0 m -5.5,0 q 0,0 0,0 m -2,-5 q 0,0 0,0 m 5,0 q 0,0 0,0 m 4.5,0 q 0,0 0,0 m 5.5,0 q 0,0 0,0 m 5.5,0 q 0,0 0,0 m 4,0 q 0,0 0,0 m 5.5,0 q 0,0 0,0 m 5.5,0 q 0,0 0,0 m 4.5,0 q 0,0 0,0 m 5,0 q 0,0 0,0 m 5.5,0 q 0,0 0,0 m -30,-10 q 0,0 0,0 m 0,0 q 0,0 0,0 m -5.5,0 q 0,0 0,0 m -5.5,0 q 0,0 0,0 m -4,0 q 0,0 0,0 m -5.5,0 q 0,0 0,0 m 2,5 q 0,0 0,0 m 5.5,0 q 0,0 0,0 m 5,0 q 0,0 0,0 m 4.5,0 q 0,0 0,0 m 5.5,0 q 0,0 0,0 m 5.5,0 q 0,0 0,0 m 28,5 q 0,0 0,0 m 2,-5 q 0,0 0,0 m -5.5,0 q 0,0 0,0 m -4.5,0 q 0,0 0,0 m -5,0 q 0,0 0,0 m -5.5,0 q 0,0 0,0 m -5.5,0 q 0,0 0,0 m -2,-5 q 0,0 0,0 m 5.5,0 q 0,0 0,0 m 4,0 q 0,0 0,0 m 5.5,0 q 0,0 0,0 m 5.5,0 q 0,0 0,0 m 5.5,0 q 0,0 0,0 m 2,-5 q 0,0 0,0 m -5.5,0 q 0,0 0,0 m -4,0 q 0,0 0,0 m -5.5,0 q 0,0 0,0 m -5.5,0 q 0,0 0,0 m -5.5,0 q 0,0 0,0 m -4,0 q 0,0 0,0 m -5.5,0 q 0,0 0,0 m -5.5,0 q 0,0 0,0 m -4,0 q 0,0 0,0 m -5.5,0 q 0,0 0,0 m -5.5,0 q 0,0 0,0 M 1,17 q 0,0 0,0 m 5.5,0 q 0,0 0,0 m 4,0 q 0,0 0,0 m 5.5,0 q 0,0 0,0 m 5.5,0 q 0,0 0,0 m 4,0 q 0,0 0,0 m 5.5,0 q 0,0 0,0 m 5.5,0 q 0,0 0,0 M 57,17 q 0,0 0,0 m -5.5,0 q 0,0 0,0 M 46,17 q 0,0 0,0 m -5,0 q 0,0 0,0 m -7.5,-5 q 0,0 0,0 M 29,12 q 0,0 0,0 m -5.5,0 q 0,0 0,0 M 18,12 q 0,0 0,0 m -4,0 q 0,0 0,0 m -5.5,0 q 0,0 0,0 M 3,12 q 0,0 0,0 M 1,7 q 0,0 0,0 m 5,0 q 0,0 0,0 m 4.5,0 q 0,0 0,0 M 16,7 q 0,0 0,0 m 5,0 q 0,0 0,0 m 4.5,0 q 0,0 0,0 M 31,7 q 0,0 0,0 m 5.5,0 q 0,0 0,0 m 15,0 q 0,0 0,0 M 46,7 q 0,0 0,0 m -5,0 q 0,0 0,0 m -2.5,5 q 0,0 0,0 m 5.5,0 q 0,0 0,0 m 5.5,0 q 0,0 0,0 m 4,0 q 0,0 0,0 m 5.5,0 q 0,0 0,0 M 57,7 q 0,0 0,0 m 2,-5 q 0,0 0,0 m -5,0 q 0,0 0,0 m -4.5,0 q 0,0 0,0 M 44,2 q 0,0 0,0 m -5.5,0 q 0,0 0,0 m -5,0 q 0,0 0,0 M 29,2 q 0,0 0,0 m -5.5,0 q 0,0 0,0 M 18,2 q 0,0 0,0 m -4,0 q 0,0 0,0 M 8.5,2 q 0,0 0,0 M 3,2 q 0,0 0,0" style="fill:none;stroke:hsl(79, 100%, 42%);stroke-width:0.5;stroke-linecap:square" />
      </svg>
    </g>
  </g>
</svg>
