<svg class="rh-pattern community communities" xmlns="http://www.w3.org/2000/svg" viewBox="0 0 60 60" height="60" width="60">
<path d=" m 25.5,27.5 q 0,0 0,0 M 1,57.5 q 0,0 0,0 m 5.5,0 q 0,0 0,0 m 4,0 q 0,0 0,0 m 5.5,0 q 0,0 0,0 m 5.5,0 q 0,0 0,0 m 4,0 q 0,0 0,0 m 5.5,0 q 0,0 0,0 m 5.5,0 q 0,0 0,0 m 4,0 q 0,0 0,0 m 5.5,0 q 0,0 0,0 m 5.5,0 q 0,0 0,0 m 5.5,0 q 0,0 0,0 m 2,-5 q 0,0 0,0 m -5.5,0 q 0,0 0,0 m -4,0 q 0,0 0,0 m -5.5,0 q 0,0 0,0 m -5.5,0 q 0,0 0,0 m -5,0 q 0,0 0,0 m -4.5,0 q 0,0 0,0 m -5.5,0 q 0,0 0,0 m -5.5,0 q 0,0 0,0 m -4,0 q 0,0 0,0 m -5.5,0 q 0,0 0,0 m -5.5,0 q 0,0 0,0 m -2,-5 q 0,0 0,0 m 5,0 q 0,0 0,0 m 4.5,0 q 0,0 0,0 m 5.5,0 q 0,0 0,0 m 5,0 q 0,0 0,0 m 4.5,0 q 0,0 0,0 m 5.5,0 q 0,0 0,0 m 5.5,0 q 0,0 0,0 m 4,0 q 0,0 0,0 m 5.5,0 q 0,0 0,0 m 5.5,0 q 0,0 0,0 m 5.5,0 q 0,0 0,0 m 2,-5 q 0,0 0,0 m -5.5,0 q 0,0 0,0 m -4,0 q 0,0 0,0 m -5,0 q 0,0 0,0 m -5.5,0 q 0,0 0,0 m -5.5,0 q 0,0 0,0 m -4.5,0 q 0,0 0,0 m -5.5,0 q 0,0 0,0 m -5.5,0 q 0,0 0,0 m -4.5,0 q 0,0 0,0 m -5,0 q 0,0 0,0 m -5.5,0 q 0,0 0,0 m -2,-5 q 0,0 0,0 m 5,0 q 0,0 0,0 m 4.5,0 q 0,0 0,0 m 5.5,0 q 0,0 0,0 m 5.5,0 q 0,0 0,0 m 4,0 q 0,0 0,0 m 5.5,0 q 0,0 0,0 m 5.5,0 q 0,0 0,0 m 4.5,0 q 0,0 0,0 m 5,0 q 0,0 0,0 m 5.5,0 q 0,0 0,0 m -30,-10 q 0,0 0,0 m 0,0 q 0,0 0,0 m -5.5,0 q 0,0 0,0 m -5.5,0 q 0,0 0,0 m -4,0 q 0,0 0,0 m -5.5,0 q 0,0 0,0 m 2,5 q 0,0 0,0 m 5.5,0 q 0,0 0,0 m 5,0 q 0,0 0,0 m 4.5,0 q 0,0 0,0 m 5.5,0 q 0,0 0,0 m 5.5,0 q 0,0 0,0 m 28,5 q 0,0 0,0 m 2,-5 q 0,0 0,0 m -5.5,0 q 0,0 0,0 m -4.5,0 q 0,0 0,0 m -5,0 q 0,0 0,0 m -5.5,0 q 0,0 0,0 m -5.5,0 q 0,0 0,0 m -2,-5 q 0,0 0,0 m 5.5,0 q 0,0 0,0 m 4,0 q 0,0 0,0 m 5.5,0 q 0,0 0,0 m 5.5,0 q 0,0 0,0 m 5.5,0 q 0,0 0,0 m 2,-5 q 0,0 0,0 m -5.5,0 q 0,0 0,0 m -4,0 q 0,0 0,0 m -5.5,0 q 0,0 0,0 m -5.5,0 q 0,0 0,0 m -5.5,0 q 0,0 0,0 m -4,0 q 0,0 0,0 m -5.5,0 q 0,0 0,0 m -5.5,0 q 0,0 0,0 m -4,0 q 0,0 0,0 m -5.5,0 q 0,0 0,0 m -5.5,0 q 0,0 0,0 M 1,17 q 0,0 0,0 m 5.5,0 q 0,0 0,0 m 4,0 q 0,0 0,0 m 5.5,0 q 0,0 0,0 m 5.5,0 q 0,0 0,0 m 4,0 q 0,0 0,0 m 5.5,0 q 0,0 0,0 m 5.5,0 q 0,0 0,0 M 57,17 q 0,0 0,0 m -5.5,0 q 0,0 0,0 M 46,17 q 0,0 0,0 m -5,0 q 0,0 0,0 m -7.5,-5 q 0,0 0,0 M 29,12 q 0,0 0,0 m -5.5,0 q 0,0 0,0 M 18,12 q 0,0 0,0 m -4,0 q 0,0 0,0 m -5.5,0 q 0,0 0,0 M 3,12 q 0,0 0,0 M 1,7 q 0,0 0,0 m 5,0 q 0,0 0,0 m 4.5,0 q 0,0 0,0 M 16,7 q 0,0 0,0 m 5,0 q 0,0 0,0 m 4.5,0 q 0,0 0,0 M 31,7 q 0,0 0,0 m 5.5,0 q 0,0 0,0 m 15,0 q 0,0 0,0 M 46,7 q 0,0 0,0 m -5,0 q 0,0 0,0 m -2.5,5 q 0,0 0,0 m 5.5,0 q 0,0 0,0 m 5.5,0 q 0,0 0,0 m 4,0 q 0,0 0,0 m 5.5,0 q 0,0 0,0 M 57,7 q 0,0 0,0 m 2,-5 q 0,0 0,0 m -5,0 q 0,0 0,0 m -4.5,0 q 0,0 0,0 M 44,2 q 0,0 0,0 m -5.5,0 q 0,0 0,0 m -5,0 q 0,0 0,0 M 29,2 q 0,0 0,0 m -5.5,0 q 0,0 0,0 M 18,2 q 0,0 0,0 m -4,0 q 0,0 0,0 M 8.5,2 q 0,0 0,0 M 3,2 q 0,0 0,0"
  style="fill:none;stroke:hsl(0, 100%, 30%);stroke-linecap:round" /></svg>
