<svg version="1.1" xmlns="http://www.w3.org/2000/svg" xmlns:xlink="http://www.w3.org/1999/xlink" viewBox="0 0 1200 1200" width="1200" height="1200">
  <g transform="translate(400 1200)">
    <g transform="rotate(-45)">
      <svg x="0" y="0" viewBox="0 0 60 60" width="141.4" height="141.4">
        <path d="M 0,30 30,0 M 30,60 60,30 M 0,30 30,60 M 30,0 60,30 M 0,60 60,0 M 0,0 60,60 M 37.5,60 30,52.5 22.5,60 M 37.5,0 30,7.5 22.5,0 M 60,37.5 52.5,30 60,22.5 M 60,45 45,60 M 60,15 45,0 M 0,15 15,0 M 0,45 15,60 M 52.5,0 60,7.5 m 0,45 -7.5,7.5 M 7.5,0 0,7.5 m 0,45 7.5,7.5 M 0,37.5 7.5,30 0,22.5 m 30,0 L 22.5,30 30,37.5 37.5,30 Z M 45,37.5 37.5,45 45,52.5 52.5,45 Z M 15,37.5 7.5,45 15,52.5 22.5,45 Z M 45,7.5 37.5,15 45,22.5 52.5,15 Z M 15,7.5 7.5,15 15,22.5 22.5,15 Z M 45,0 0,45 M 60,15 15,60 M 15,0 60,45 M 0,15 45,60" style="fill:none;stroke:hsl(0, 0%, 30%);stroke-width:0.5;stroke-linecap:square" />
      </svg>

      <svg x="141.4" y="0" viewBox="0 0 60 60" width="141.4" height="141.4">
        <path d="M 0,30 30,0 M 30,60 60,30 M 0,30 30,60 M 30,0 60,30 M 0,60 60,0 M 0,0 60,60 M 37.5,60 30,52.5 22.5,60 M 37.5,0 30,7.5 22.5,0 M 60,37.5 52.5,30 60,22.5 M 60,45 45,60 M 60,15 45,0 M 0,15 15,0 M 0,45 15,60 M 52.5,0 60,7.5 m 0,45 -7.5,7.5 M 7.5,0 0,7.5 m 0,45 7.5,7.5 M 0,37.5 7.5,30 0,22.5 m 30,0 L 22.5,30 30,37.5 37.5,30 Z M 45,37.5 37.5,45 45,52.5 52.5,45 Z M 15,37.5 7.5,45 15,52.5 22.5,45 Z M 45,7.5 37.5,15 45,22.5 52.5,15 Z M 15,7.5 7.5,15 15,22.5 22.5,15 Z M 45,0 0,45 M 60,15 15,60 M 15,0 60,45 M 0,15 45,60" style="fill:none;stroke:hsl(0, 0%, 30%);stroke-width:0.5;stroke-linecap:square" />
      </svg>

      <svg x="282.8" y="0" viewBox="0 0 60 60" width="141.4" height="141.4">
        <path d="M 0,30 30,0 M 30,60 60,30 M 0,30 30,60 M 30,0 60,30 M 0,60 60,0 M 0,0 60,60 M 37.5,60 30,52.5 22.5,60 M 37.5,0 30,7.5 22.5,0 M 60,37.5 52.5,30 60,22.5 M 60,45 45,60 M 60,15 45,0 M 0,15 15,0 M 0,45 15,60 M 52.5,0 60,7.5 m 0,45 -7.5,7.5 M 7.5,0 0,7.5 m 0,45 7.5,7.5 M 0,37.5 7.5,30 0,22.5 m 30,0 L 22.5,30 30,37.5 37.5,30 Z M 45,37.5 37.5,45 45,52.5 52.5,45 Z M 15,37.5 7.5,45 15,52.5 22.5,45 Z M 45,7.5 37.5,15 45,22.5 52.5,15 Z M 15,7.5 7.5,15 15,22.5 22.5,15 Z M 45,0 0,45 M 60,15 15,60 M 15,0 60,45 M 0,15 45,60" style="fill:none;stroke:hsl(0, 0%, 30%);stroke-width:0.5;stroke-linecap:square" />
      </svg>

      <svg x="424.2" y="0" viewBox="0 0 60 60" width="141.4" height="141.4">
        <path d="M 0,30 30,0 M 30,60 60,30 M 0,30 30,60 M 30,0 60,30 M 0,60 60,0 M 0,0 60,60 M 37.5,60 30,52.5 22.5,60 M 37.5,0 30,7.5 22.5,0 M 60,37.5 52.5,30 60,22.5 M 60,45 45,60 M 60,15 45,0 M 0,15 15,0 M 0,45 15,60 M 52.5,0 60,7.5 m 0,45 -7.5,7.5 M 7.5,0 0,7.5 m 0,45 7.5,7.5 M 0,37.5 7.5,30 0,22.5 m 30,0 L 22.5,30 30,37.5 37.5,30 Z M 45,37.5 37.5,45 45,52.5 52.5,45 Z M 15,37.5 7.5,45 15,52.5 22.5,45 Z M 45,7.5 37.5,15 45,22.5 52.5,15 Z M 15,7.5 7.5,15 15,22.5 22.5,15 Z M 45,0 0,45 M 60,15 15,60 M 15,0 60,45 M 0,15 45,60" style="fill:none;stroke:hsl(0, 0%, 30%);stroke-width:0.5;stroke-linecap:square" />
      </svg>

      <svg x="565.6" y="0" viewBox="0 0 60 60" width="141.4" height="141.4">
        <path d="M 0,30 30,0 M 30,60 60,30 M 0,30 30,60 M 30,0 60,30 M 0,60 60,0 M 0,0 60,60 M 37.5,60 30,52.5 22.5,60 M 37.5,0 30,7.5 22.5,0 M 60,37.5 52.5,30 60,22.5 M 60,45 45,60 M 60,15 45,0 M 0,15 15,0 M 0,45 15,60 M 52.5,0 60,7.5 m 0,45 -7.5,7.5 M 7.5,0 0,7.5 m 0,45 7.5,7.5 M 0,37.5 7.5,30 0,22.5 m 30,0 L 22.5,30 30,37.5 37.5,30 Z M 45,37.5 37.5,45 45,52.5 52.5,45 Z M 15,37.5 7.5,45 15,52.5 22.5,45 Z M 45,7.5 37.5,15 45,22.5 52.5,15 Z M 15,7.5 7.5,15 15,22.5 22.5,15 Z M 45,0 0,45 M 60,15 15,60 M 15,0 60,45 M 0,15 45,60" style="fill:none;stroke:hsl(0, 0%, 30%);stroke-width:0.5;stroke-linecap:square" />
      </svg>

      <svg x="707.0" y="0" viewBox="0 0 60 60" width="141.4" height="141.4">
        <path d="M 0,30 30,0 M 30,60 60,30 M 0,30 30,60 M 30,0 60,30 M 0,60 60,0 M 0,0 60,60 M 37.5,60 30,52.5 22.5,60 M 37.5,0 30,7.5 22.5,0 M 60,37.5 52.5,30 60,22.5 M 60,45 45,60 M 60,15 45,0 M 0,15 15,0 M 0,45 15,60 M 52.5,0 60,7.5 m 0,45 -7.5,7.5 M 7.5,0 0,7.5 m 0,45 7.5,7.5 M 0,37.5 7.5,30 0,22.5 m 30,0 L 22.5,30 30,37.5 37.5,30 Z M 45,37.5 37.5,45 45,52.5 52.5,45 Z M 15,37.5 7.5,45 15,52.5 22.5,45 Z M 45,7.5 37.5,15 45,22.5 52.5,15 Z M 15,7.5 7.5,15 15,22.5 22.5,15 Z M 45,0 0,45 M 60,15 15,60 M 15,0 60,45 M 0,15 45,60" style="fill:none;stroke:hsl(0, 0%, 30%);stroke-width:0.5;stroke-linecap:square" />
      </svg>

      <svg x="848.4" y="0" viewBox="0 0 60 60" width="141.4" height="141.4">
        <path d="M 0,30 30,0 M 30,60 60,30 M 0,30 30,60 M 30,0 60,30 M 0,60 60,0 M 0,0 60,60 M 37.5,60 30,52.5 22.5,60 M 37.5,0 30,7.5 22.5,0 M 60,37.5 52.5,30 60,22.5 M 60,45 45,60 M 60,15 45,0 M 0,15 15,0 M 0,45 15,60 M 52.5,0 60,7.5 m 0,45 -7.5,7.5 M 7.5,0 0,7.5 m 0,45 7.5,7.5 M 0,37.5 7.5,30 0,22.5 m 30,0 L 22.5,30 30,37.5 37.5,30 Z M 45,37.5 37.5,45 45,52.5 52.5,45 Z M 15,37.5 7.5,45 15,52.5 22.5,45 Z M 45,7.5 37.5,15 45,22.5 52.5,15 Z M 15,7.5 7.5,15 15,22.5 22.5,15 Z M 45,0 0,45 M 60,15 15,60 M 15,0 60,45 M 0,15 45,60" style="fill:none;stroke:hsl(0, 0%, 30%);stroke-width:0.5;stroke-linecap:square" />
      </svg>

      <svg x="989.8" y="0" viewBox="0 0 60 60" width="141.4" height="141.4">
        <path d="M 0,30 30,0 M 30,60 60,30 M 0,30 30,60 M 30,0 60,30 M 0,60 60,0 M 0,0 60,60 M 37.5,60 30,52.5 22.5,60 M 37.5,0 30,7.5 22.5,0 M 60,37.5 52.5,30 60,22.5 M 60,45 45,60 M 60,15 45,0 M 0,15 15,0 M 0,45 15,60 M 52.5,0 60,7.5 m 0,45 -7.5,7.5 M 7.5,0 0,7.5 m 0,45 7.5,7.5 M 0,37.5 7.5,30 0,22.5 m 30,0 L 22.5,30 30,37.5 37.5,30 Z M 45,37.5 37.5,45 45,52.5 52.5,45 Z M 15,37.5 7.5,45 15,52.5 22.5,45 Z M 45,7.5 37.5,15 45,22.5 52.5,15 Z M 15,7.5 7.5,15 15,22.5 22.5,15 Z M 45,0 0,45 M 60,15 15,60 M 15,0 60,45 M 0,15 45,60" style="fill:none;stroke:hsl(0, 0%, 30%);stroke-width:0.5;stroke-linecap:square" />
      </svg>

      <svg x="1131.2" y="0" viewBox="0 0 60 60" width="141.4" height="141.4">
        <path d="M 0,30 30,0 M 30,60 60,30 M 0,30 30,60 M 30,0 60,30 M 0,60 60,0 M 0,0 60,60 M 37.5,60 30,52.5 22.5,60 M 37.5,0 30,7.5 22.5,0 M 60,37.5 52.5,30 60,22.5 M 60,45 45,60 M 60,15 45,0 M 0,15 15,0 M 0,45 15,60 M 52.5,0 60,7.5 m 0,45 -7.5,7.5 M 7.5,0 0,7.5 m 0,45 7.5,7.5 M 0,37.5 7.5,30 0,22.5 m 30,0 L 22.5,30 30,37.5 37.5,30 Z M 45,37.5 37.5,45 45,52.5 52.5,45 Z M 15,37.5 7.5,45 15,52.5 22.5,45 Z M 45,7.5 37.5,15 45,22.5 52.5,15 Z M 15,7.5 7.5,15 15,22.5 22.5,15 Z M 45,0 0,45 M 60,15 15,60 M 15,0 60,45 M 0,15 45,60" style="fill:none;stroke:hsl(0, 0%, 30%);stroke-width:0.5;stroke-linecap:square" />
      </svg>

      <svg x="1272.6" y="0" viewBox="0 0 60 60" width="141.4" height="141.4">
        <path d="M 0,30 30,0 M 30,60 60,30 M 0,30 30,60 M 30,0 60,30 M 0,60 60,0 M 0,0 60,60 M 37.5,60 30,52.5 22.5,60 M 37.5,0 30,7.5 22.5,0 M 60,37.5 52.5,30 60,22.5 M 60,45 45,60 M 60,15 45,0 M 0,15 15,0 M 0,45 15,60 M 52.5,0 60,7.5 m 0,45 -7.5,7.5 M 7.5,0 0,7.5 m 0,45 7.5,7.5 M 0,37.5 7.5,30 0,22.5 m 30,0 L 22.5,30 30,37.5 37.5,30 Z M 45,37.5 37.5,45 45,52.5 52.5,45 Z M 15,37.5 7.5,45 15,52.5 22.5,45 Z M 45,7.5 37.5,15 45,22.5 52.5,15 Z M 15,7.5 7.5,15 15,22.5 22.5,15 Z M 45,0 0,45 M 60,15 15,60 M 15,0 60,45 M 0,15 45,60" style="fill:none;stroke:hsl(0, 0%, 30%);stroke-width:0.5;stroke-linecap:square" />
      </svg>

      <svg x="1414.0" y="0" viewBox="0 0 60 60" width="141.4" height="141.4">
        <path d="M 0,30 30,0 M 30,60 60,30 M 0,30 30,60 M 30,0 60,30 M 0,60 60,0 M 0,0 60,60 M 37.5,60 30,52.5 22.5,60 M 37.5,0 30,7.5 22.5,0 M 60,37.5 52.5,30 60,22.5 M 60,45 45,60 M 60,15 45,0 M 0,15 15,0 M 0,45 15,60 M 52.5,0 60,7.5 m 0,45 -7.5,7.5 M 7.5,0 0,7.5 m 0,45 7.5,7.5 M 0,37.5 7.5,30 0,22.5 m 30,0 L 22.5,30 30,37.5 37.5,30 Z M 45,37.5 37.5,45 45,52.5 52.5,45 Z M 15,37.5 7.5,45 15,52.5 22.5,45 Z M 45,7.5 37.5,15 45,22.5 52.5,15 Z M 15,7.5 7.5,15 15,22.5 22.5,15 Z M 45,0 0,45 M 60,15 15,60 M 15,0 60,45 M 0,15 45,60" style="fill:none;stroke:hsl(0, 0%, 30%);stroke-width:0.5;stroke-linecap:square" />
      </svg>

      <svg x="1555.4" y="0" viewBox="0 0 60 60" width="141.4" height="141.4">
        <path d="M 0,30 30,0 M 30,60 60,30 M 0,30 30,60 M 30,0 60,30 M 0,60 60,0 M 0,0 60,60 M 37.5,60 30,52.5 22.5,60 M 37.5,0 30,7.5 22.5,0 M 60,37.5 52.5,30 60,22.5 M 60,45 45,60 M 60,15 45,0 M 0,15 15,0 M 0,45 15,60 M 52.5,0 60,7.5 m 0,45 -7.5,7.5 M 7.5,0 0,7.5 m 0,45 7.5,7.5 M 0,37.5 7.5,30 0,22.5 m 30,0 L 22.5,30 30,37.5 37.5,30 Z M 45,37.5 37.5,45 45,52.5 52.5,45 Z M 15,37.5 7.5,45 15,52.5 22.5,45 Z M 45,7.5 37.5,15 45,22.5 52.5,15 Z M 15,7.5 7.5,15 15,22.5 22.5,15 Z M 45,0 0,45 M 60,15 15,60 M 15,0 60,45 M 0,15 45,60" style="fill:none;stroke:hsl(0, 0%, 30%);stroke-width:0.5;stroke-linecap:square" />
      </svg>
    </g>
  </g>
</svg>
