<svg class="rh-pattern group-3b business-process" xmlns="http://www.w3.org/2000/svg" viewBox="0 0 60 60" height="60" width="60">
<path d="m 30.5,53 0,7.5 m 7.5,0 c 0,-4.3 3.5,-7.5 7.5,-7.5 4,0 7.5,3 7.5,7.5 M 60.5,53 C 56.5,53 53,49.5 53,45.5 53,41.2 56.5,38 60.5,38 m 0,-15 C 56.5,23 53,19.5 53,15.5 53,11.2 56.5,8 60.5,8 m 0,-7.5 -7.5,0 C 53,4.5 49.5,8 45.5,8 41.5,8 38,4.5 38,0.5 l -15,0 C 23,4.5 19.5,8 15.5,8 11.5,8 8,4.5 8,0.5 l -7.5,0 0,7.5 C 4.5,8 8,11 8,15.5 8,19.5 4.5,23 0.5,23 l 0,15 c 4,0 7.5,3 7.5,7.5 0,4 -3.5,7.5 -7.5,7.5 l 0,7.5 m 7.5,0 c 0,-4.3 3.5,-7.5 7.5,-7.5 4,0 7.5,3 7.5,7.5 m 15,-15 15,0 m -45,0 15,0 m 30,-15 c 0,4 -3.5,7.5 -7.5,7.5 -4,0 -7.5,-3.5 -7.5,-7.5 0,-4.3 3.5,-7.5 7.5,-7.5 4,0 7.5,3 7.5,7.5 z m -15,-15 c 0,4 -3.5,7.5 -7.5,7.5 -4,0 -7.5,-3.5 -7.5,-7.5 0,-4.3 3.5,-7.5 7.5,-7.5 4,0 7.5,3 7.5,7.5 z m 0,30 c 0,4 -3.5,7.5 -7.5,7.5 -4,0 -7.5,-3.5 -7.5,-7.5 0,-4.3 3.5,-7.5 7.5,-7.5 4,0 7.5,3 7.5,7.5 z m 0,-30 15,0 m -45,0 15,0 m 0,15 15,0 m -37.5,0 7.5,0 m 22.5,-7.5 0,15 m 0,-37.5 0,7.5 m 15,30 0,15 m 0,-45 0,15 m -30,15 0,15 m 0,-45 0,15 M 23,30.5 C 23,34.5 19.5,38 15.5,38 11.5,38 8,34.5 8,30.5 8,26.2 11.5,23 15.5,23 c 4,0 7.5,3 7.5,7.5 z m 30,0 7.5,0"
 style="fill:none;stroke:hsl(206, 54%, 39%);stroke-linecap:square" /></svg>
